SplineFontDB: 3.0
FontName: Chilanka
FullName: Chilanka
FamilyName: Chilanka
Weight: Book
Copyright: Copyright 2014 Santhosh Thottingal, Kavya Manohar, Swathanthra Malayalam Computing (http://smc.org.in)
Version: 0.1
ItalicAngle: 0
UnderlinePosition: -942
UnderlineWidth: 61
Ascent: 1434
Descent: 614
sfntRevision: 0x00060000
LayerCount: 2
Layer: 0 1 "Back"  1
Layer: 1 1 "Fore"  0
XUID: [1021 393 960756424 4828222]
FSType: 8
OS2Version: 1
OS2_WeightWidthSlopeOnly: 0
OS2_UseTypoMetrics: 1
CreationTime: 1201144287
ModificationTime: 1412676210
PfmFamily: 65
TTFWeight: 400
TTFWidth: 5
LineGap: 0
VLineGap: 0
OS2TypoAscent: 0
OS2TypoAOffset: 1
OS2TypoDescent: 0
OS2TypoDOffset: 1
OS2TypoLinegap: 0
OS2WinAscent: 0
OS2WinAOffset: 1
OS2WinDescent: 0
OS2WinDOffset: 1
HheadAscent: 0
HheadAOffset: 1
HheadDescent: 0
HheadDOffset: 1
OS2SubXSize: 1327
OS2SubYSize: 1225
OS2SubXOff: 0
OS2SubYOff: 150
OS2SupXSize: 1327
OS2SupYSize: 1427
OS2SupXOff: 0
OS2SupYOff: 977
OS2StrikeYSize: 98
OS2StrikeYPos: 512
OS2Vendor: 'PfEd'
OS2CodePages: 00000001.00000000
OS2UnicodeRanges: 80800003.00002000.00000000.00000000
Lookup: 4 0 0 "'akhn' Akhand in Malay+AQEA-lam lookup 0"  {"'akhn' Akhand in Malay+AQEA-lam lookup 0 subtable"  } ['akhn' ('mlym' <'dflt' > ) ]
Lookup: 4 0 0 "'akhn' Akhand in Malay+AQEA-lam2 lookup 0"  {"'akhn' Akhand in Malay+AQEA-lam2 lookup 0 subtable"  } ['akhn' ('mlm2' <'dflt' > ) ]
Lookup: 4 0 0 "'pref' Pre Base Forms in Malay+AQEA-lam2 lookup 1"  {"'pref' Pre Base Forms in Malay+AQEA-lam2 lookup 1 subtable"  } ['pref' ('mlm2' <'dflt' > ) ]
Lookup: 4 0 0 "'half' Half Forms in Malay+AQEA-lam lookup 1"  {"'half' Half Forms in Malay+AQEA-lam lookup 1 subtable"  } ['half' ('mlym' <'dflt' > ) ]
Lookup: 4 0 0 "'blwf' Below Base Forms in Malay+AQEA-lam lookup 2"  {"'blwf' Below Base Forms in Malay+AQEA-lam lookup 2 subtable"  } ['blwf' ('mlym' <'dflt' > ) ]

StartChar: .notdef
Encoding: 121 -1 0
Width: 692
GlyphClass: 2
Flags: MW
LayerCount: 2
Fore
SplineSet
45 1 m 1,0,-1
 45 1119 l 1,1,-1
 606 1119 l 1,2,-1
 606 1 l 1,3,-1
 45 1 l 1,0,-1
102 55 m 1,4,-1
 552 55 l 1,5,-1
 552 1063 l 1,6,-1
 102 1063 l 1,7,-1
 102 55 l 1,4,-1
EndSplineSet
Validated: 1
EndChar

StartChar: exclam
Encoding: 1 33 2
Width: 409
GlyphClass: 2
Flags: MW
LayerCount: 2
Fore
SplineSet
130.238 985.92 m 0,0,1
 134.061 1006.61 134.061 1006.61 149.565 1021.51 c 128,-1,2
 165.069 1036.4 165.069 1036.4 185.741 1039.13 c 0,3,4
 212.074 1042.62 212.074 1042.62 233.647 1026.08 c 128,-1,5
 255.221 1009.55 255.221 1009.55 258.703 983.22 c 0,6,7
 304.026 640.571 304.026 640.571 292.115 433.632 c 1,8,9
 290.038 421.13 290.038 421.13 292.112 399.293 c 128,-1,10
 294.187 377.456 294.187 377.456 289.815 351.166 c 128,-1,11
 285.443 324.876 285.443 324.876 277.795 302.174 c 128,-1,12
 270.147 279.472 270.147 279.472 248.624 265.239 c 128,-1,13
 227.102 251.008 227.102 251.008 194.873 253.287 c 0,14,15
 169.984 255.048 169.984 255.048 152.282 266.765 c 128,-1,16
 134.579 278.48 134.579 278.48 125.807 293.461 c 128,-1,17
 117.033 308.441 117.033 308.441 112.053 331.52 c 128,-1,18
 107.072 354.598 107.072 354.598 106.369 371.149 c 128,-1,19
 105.666 387.7 105.666 387.7 105.445 411.021 c 128,-1,20
 105.226 434.342 105.226 434.342 104.714 441.872 c 0,21,22
 90.8281 646.22 90.8281 646.22 128.089 975.095 c 0,23,24
 128.62 979.785 128.62 979.785 130.238 985.92 c 0,0,1
158.149 70.2197 m 0,25,26
 163.83 75.8613 163.83 75.8613 170.599 79.9219 c 0,27,28
 193.38 93.585 193.38 93.585 219.747 86.9883 c 128,-1,29
 246.115 80.3916 246.115 80.3916 259.776 57.6191 c 0,30,31
 309.688 -25.5811 309.688 -25.5811 314.914 -93.3672 c 0,32,33
 318.067 -134.26 318.067 -134.26 303.066 -171.409 c 128,-1,34
 288.066 -208.559 288.066 -208.559 247.895 -225.158 c 0,35,36
 212.518 -239.776 212.518 -239.776 177.667 -225.519 c 128,-1,37
 142.815 -211.261 142.815 -211.261 124.237 -182.031 c 0,38,39
 77.4795 -108.468 77.4795 -108.468 125.438 11.1289 c 0,40,41
 133.444 31.0967 133.444 31.0967 144.121 51.8721 c 0,42,43
 149.195 61.7461 149.195 61.7461 158.149 70.2197 c 0,25,26
EndSplineSet
EndChar

StartChar: numbersign
Encoding: 3 35 4
Width: 1113
GlyphClass: 2
Flags: MW
LayerCount: 2
Fore
SplineSet
68.2783 379.7 m 128,-1,1
 68.2783 406.256 68.2783 406.256 87.4974 425.478 c 128,-1,2
 106.717 444.7 106.717 444.7 133.278 444.7 c 2,3,-1
 261.11 444.7 l 1,4,-1
 304.297 581.46 l 1,5,-1
 228.279 581.46 l 2,6,7
 201.717 581.458 201.717 581.458 182.498 600.679 c 128,-1,8
 163.279 619.903 163.279 619.903 163.279 646.46 c 128,-1,9
 163.279 673.016 163.279 673.016 182.498 692.238 c 128,-1,10
 201.717 711.46 201.717 711.46 228.279 711.46 c 2,11,-1
 345.35 711.46 l 1,12,-1
 418.017 941.574 l 2,13,14
 426.016 966.902 426.016 966.902 450.133 979.441 c 128,-1,15
 474.251 991.98 474.251 991.98 499.574 983.983 c 128,-1,16
 524.897 975.986 524.897 975.986 537.439 951.87 c 128,-1,17
 549.982 927.755 549.982 927.755 541.983 902.426 c 2,18,-1
 481.678 711.46 l 1,19,-1
 676.391 711.46 l 1,20,-1
 741.413 917.363 l 2,21,22
 749.412 942.691 749.412 942.691 773.529 955.23 c 128,-1,23
 797.646 967.769 797.646 967.769 822.969 959.772 c 128,-1,24
 848.292 951.774 848.292 951.774 860.835 927.659 c 128,-1,25
 873.378 903.544 873.378 903.544 865.378 878.216 c 2,26,-1
 812.719 711.46 l 1,27,-1
 948.207 711.46 l 2,28,29
 974.763 711.458 974.763 711.458 993.985 692.238 c 128,-1,30
 1013.21 673.02 1013.21 673.02 1013.21 646.46 c 128,-1,31
 1013.21 619.898 1013.21 619.898 993.985 600.679 c 128,-1,32
 974.763 581.46 974.763 581.46 948.207 581.46 c 2,33,-1
 771.666 581.46 l 1,34,-1
 728.479 444.7 l 1,35,-1
 853.206 444.7 l 2,36,37
 879.762 444.699 879.762 444.699 898.984 425.478 c 128,-1,38
 918.206 406.26 918.206 406.26 918.206 379.7 c 128,-1,39
 918.206 353.138 918.206 353.138 898.984 333.919 c 128,-1,40
 879.762 314.7 879.762 314.7 853.206 314.7 c 2,41,-1
 687.426 314.7 l 1,42,-1
 577.378 -33.7835 l 2,43,44
 569.381 -59.1067 569.381 -59.1067 545.266 -71.6491 c 128,-1,45
 521.151 -84.1915 521.151 -84.1915 495.822 -76.1928 c 128,-1,46
 470.493 -68.1942 470.493 -68.1942 457.955 -44.077 c 128,-1,47
 445.416 -19.9598 445.416 -19.9598 453.413 5.36359 c 2,48,-1
 551.098 314.7 l 1,49,-1
 356.385 314.7 l 1,50,-1
 253.983 -9.57354 l 2,51,52
 245.986 -34.8967 245.986 -34.8967 221.871 -47.4391 c 128,-1,53
 197.755 -59.9815 197.755 -59.9815 172.426 -51.9829 c 128,-1,54
 147.098 -43.9843 147.098 -43.9843 134.559 -19.8669 c 128,-1,55
 122.02 4.25037 122.02 4.25037 130.017 29.5735 c 2,56,-1
 220.057 314.7 l 1,57,-1
 133.278 314.7 l 2,58,59
 106.717 314.699 106.717 314.699 87.4974 333.919 c 128,-1,0
 68.2783 353.143 68.2783 353.143 68.2783 379.7 c 128,-1,1
592.151 444.7 m 1,60,-1
 635.338 581.46 l 1,61,-1
 440.625 581.46 l 1,62,-1
 397.438 444.7 l 1,63,-1
 592.151 444.7 l 1,60,-1
EndSplineSet
EndChar

StartChar: dollar
Encoding: 4 36 5
Width: 955
GlyphClass: 2
Flags: MW
LayerCount: 2
Fore
SplineSet
676.672 795.68 m 128,-1,1
 654.107 781.684 654.107 781.684 627.641 787.886 c 128,-1,2
 601.174 794.089 601.174 794.089 587.175 816.662 c 0,3,4
 542.788 888.236 542.788 888.236 463.802 924.79 c 1,5,6
 462.774 789.897 462.774 789.897 461.746 655.003 c 1,7,8
 463.377 654.533 463.377 654.533 496.057 645.146 c 0,9,10
 660.575 597.894 660.575 597.894 727.189 535.724 c 0,11,12
 858.642 413.039 858.642 413.039 844.686 242.72 c 0,13,14
 838.328 165.123 838.328 165.123 799.553 95.4102 c 128,-1,15
 760.778 25.6975 760.778 25.6975 693.558 -25.7876 c 0,16,17
 592.731 -103.014 592.731 -103.014 455.986 -100.778 c 1,18,-1
 455.269 -194.93 l 2,19,20
 455.066 -221.485 455.066 -221.485 435.701 -240.56 c 128,-1,21
 416.336 -259.635 416.336 -259.635 389.775 -259.433 c 128,-1,22
 363.214 -259.23 363.214 -259.23 344.142 -239.862 c 128,-1,23
 325.07 -220.494 325.07 -220.494 325.397 -177.568 c 128,-1,24
 325.724 -134.641 325.724 -134.641 326.176 -75.3435 c 1,25,26
 255.622 -48.0962 255.622 -48.0962 193.278 11.6481 c 128,-1,27
 130.934 71.3924 130.934 71.3924 101.008 157.605 c 0,28,29
 92.2999 182.692 92.2999 182.692 104.153 207.154 c 128,-1,30
 116.006 231.615 116.006 231.615 141.099 240.326 c 128,-1,31
 166.192 249.036 166.192 249.036 190.652 237.179 c 128,-1,32
 215.111 225.322 215.111 225.322 229.296 184.459 c 0,33,34
 252.164 118.58 252.164 118.58 327.28 69.457 c 1,35,36
 329.151 314.934 329.151 314.934 331.021 560.412 c 1,37,38
 130.425 635.698 130.425 635.698 94.5013 792.772 c 0,39,40
 66.0972 916.942 66.0972 916.942 155.1 1004.18 c 0,41,42
 226.5 1074.17 226.5 1074.17 334.979 1079.71 c 1,43,44
 335.304 1122.34 335.304 1122.34 354.672 1141.41 c 128,-1,45
 374.039 1160.48 374.039 1160.48 400.595 1160.28 c 128,-1,46
 427.149 1160.08 427.149 1160.08 446.225 1140.72 c 128,-1,47
 465.3 1121.35 465.3 1121.35 465.139 1100.16 c 128,-1,48
 464.977 1078.96 464.977 1078.96 464.856 1063.14 c 1,49,50
 615.303 1017.97 615.303 1017.97 697.654 885.178 c 0,51,52
 711.652 862.601 711.652 862.601 705.446 836.139 c 128,-1,0
 699.24 809.676 699.24 809.676 676.672 795.68 c 128,-1,1
333.985 949.282 m 1,53,54
 279.709 944.29 279.709 944.29 255.058 920.127 c 128,-1,55
 230.407 895.963 230.407 895.963 222.423 873.7 c 0,56,57
 203.98 822.27 203.98 822.27 241.223 775.55 c 128,-1,58
 278.466 728.831 278.466 728.831 332.097 701.608 c 1,59,60
 333.041 825.445 333.041 825.445 333.985 949.282 c 1,53,54
456.977 29.2738 m 1,61,62
 549.076 27.3005 549.076 27.3005 619.74 81.4234 c 0,63,64
 706.478 147.858 706.478 147.858 715.12 253.334 c 0,65,66
 729.867 433.305 729.867 433.305 508.922 505.473 c 0,67,68
 495.817 509.753 495.817 509.753 460.717 519.982 c 1,69,-1
 456.977 29.2738 l 1,61,62
EndSplineSet
EndChar

StartChar: percent
Encoding: 5 37 6
Width: 972
GlyphClass: 2
Flags: MW
LayerCount: 2
Fore
SplineSet
618.146 344.941 m 1,0,1
 636.967 349.024 636.967 349.024 654.436 342.802 c 0,2,3
 915.592 249.771 915.592 249.771 918.593 96.4268 c 0,4,5
 919.725 38.5801 919.725 38.5801 871.747 -22.8018 c 128,-1,6
 823.77 -84.1836 823.77 -84.1836 722.347 -101.994 c 0,7,8
 599.088 -123.641 599.088 -123.641 525.962 -42.9395 c 0,9,10
 468.194 20.8125 468.194 20.8125 470.917 126.223 c 1,11,-1
 240.711 -62.5654 l 2,12,13
 206.258 -90.8193 206.258 -90.8193 174.999 -72.9033 c 128,-1,14
 143.74 -54.9863 143.74 -54.9863 136.861 -28.6855 c 128,-1,15
 129.983 -2.38379 129.983 -2.38379 143.397 20.5322 c 2,16,-1
 607.914 814.082 l 1,17,-1
 538.984 779.214 l 2,18,19
 529.683 774.367 529.683 774.367 518.873 769.98 c 1,20,21
 513.422 712.988 513.422 712.988 481.062 668.768 c 128,-1,22
 448.701 624.547 448.701 624.547 396.2 602.203 c 0,23,24
 304.12 563.015 304.12 563.015 209.604 599.911 c 1,25,26
 103.752 642.527 103.752 642.527 93.8311 745.398 c 0,27,28
 80.3809 884.858 80.3809 884.858 278.331 1044.52 c 0,29,30
 299.01 1061.2 299.01 1061.2 326.035 1058.3 c 0,31,32
 358.668 1054.8 358.668 1054.8 375.149 1026.91 c 1,33,34
 396.921 1033.71 396.921 1033.71 418.898 1025.78 c 128,-1,35
 440.875 1017.84 440.875 1017.84 452.248 998.802 c 0,36,37
 481.48 949.874 481.48 949.874 498.299 904.319 c 1,38,-1
 746.153 1029.7 l 2,39,40
 769.848 1041.68 769.848 1041.68 795.678 1033.21 c 128,-1,41
 821.508 1024.73 821.508 1024.73 835.496 997.079 c 128,-1,42
 849.483 969.429 849.483 969.429 831.589 938.858 c 2,43,-1
 438.986 268.162 l 1,44,-1
 534.061 346.131 l 2,45,46
 551.465 360.117 551.465 360.117 575.439 359.624 c 128,-1,47
 599.414 359.132 599.414 359.132 618.146 344.941 c 1,0,1
389.511 782.984 m 1,48,49
 338.401 825.632 338.401 825.632 332 919.9 c 1,50,51
 217.295 819.417 217.295 819.417 223.23 757.878 c 0,52,53
 224.563 744.057 224.563 744.057 230.787 736.537 c 128,-1,54
 237.011 729.017 237.011 729.017 269.506 716.207 c 128,-1,55
 302 703.396 302 703.396 335.271 717.556 c 128,-1,56
 368.54 731.715 368.54 731.715 377.965 744.812 c 128,-1,57
 387.39 757.911 387.39 757.911 389.511 782.984 c 1,48,49
617.745 217.839 m 1,58,59
 581.012 89.915 581.012 89.915 622.296 44.3516 c 0,60,61
 645.488 18.7559 645.488 18.7559 698.965 27.0176 c 128,-1,62
 752.44 35.2803 752.44 35.2803 779.001 68.9355 c 0,63,64
 792.12 84.3818 792.12 84.3818 791.933 94.2197 c 128,-1,65
 791.745 104.058 791.745 104.058 776.147 124.04 c 0,66,67
 737.071 174.105 737.071 174.105 617.745 217.839 c 1,58,59
EndSplineSet
EndChar

StartChar: ampersand
Encoding: 6 38 7
Width: 871
GlyphClass: 2
Flags: MW
LayerCount: 2
Fore
SplineSet
807.695 498.48 m 128,-1,1
 833.107 490.771 833.107 490.771 845.922 466.8 c 128,-1,2
 858.736 442.828 858.736 442.828 851.025 417.41 c 0,3,4
 815.364 299.852 815.364 299.852 731.384 203.435 c 1,5,6
 801.144 109.673 801.144 109.673 790.493 76.5371 c 128,-1,7
 779.842 43.4014 779.842 43.4014 756.213 31.2705 c 128,-1,8
 732.58 19.1396 732.58 19.1396 706.704 27.4609 c 128,-1,9
 680.829 35.7832 680.829 35.7832 667.806 61.1514 c 128,-1,10
 654.781 86.5195 654.781 86.5195 636.188 113.211 c 1,11,12
 501.68 6.90234 501.68 6.90234 368.194 -9.1416 c 0,13,14
 297.327 -17.6592 297.327 -17.6592 239.861 6.68359 c 128,-1,15
 182.396 31.0254 182.396 31.0254 149.794 101.996 c 128,-1,16
 117.191 172.967 117.191 172.967 157.031 303.309 c 0,17,18
 178.617 371.753 178.617 371.753 251.252 466.631 c 1,19,20
 228.639 490.175 228.639 490.175 195.815 529.895 c 128,-1,21
 162.991 569.614 162.991 569.614 135.774 640.604 c 0,22,23
 100.841 731.718 100.841 731.718 106.925 813.121 c 0,24,25
 118.935 973.83 118.935 973.83 247.471 1022.89 c 1,26,27
 350.505 1061.05 350.505 1061.05 460 1011.5 c 128,-1,28
 569.495 961.948 569.495 961.948 603.481 860.743 c 0,29,30
 654.847 707.793 654.847 707.793 496.382 549.328 c 0,31,32
 462.503 515.449 462.503 515.449 430.116 479.051 c 1,33,34
 457.578 456.108 457.578 456.108 499.966 423.276 c 0,35,36
 596.893 348.201 596.893 348.201 644.315 301.824 c 1,37,38
 701.456 372.182 701.456 372.182 726.624 455.15 c 0,39,40
 734.335 480.567 734.335 480.567 758.309 493.379 c 128,-1,0
 782.283 506.19 782.283 506.19 807.695 498.48 c 128,-1,1
347.622 378.571 m 1,41,42
 295.162 308.521 295.162 308.521 275.63 245.266 c 128,-1,43
 256.098 182.01 256.098 182.01 268.423 155.179 c 128,-1,44
 280.749 128.348 280.749 128.348 296.372 121.693 c 128,-1,45
 311.995 115.04 311.995 115.04 352.681 119.93 c 0,46,47
 447.905 131.375 447.905 131.375 550.793 211.445 c 1,48,49
 509.474 251.477 509.474 251.477 443.21 302.802 c 128,-1,50
 376.946 354.128 376.946 354.128 347.622 378.571 c 1,41,42
334.809 567.502 m 1,51,52
 368.649 605.443 368.649 605.443 404.458 641.252 c 0,53,54
 505.968 742.762 505.968 742.762 480.246 819.357 c 0,55,56
 464.291 866.865 464.291 866.865 404.931 893.729 c 128,-1,57
 345.571 920.593 345.571 920.593 305.604 905.633 c 128,-1,58
 265.636 890.673 265.636 890.673 252.974 872.136 c 0,59,60
 235.894 847.13 235.894 847.13 236.986 792.017 c 0,61,62
 239.389 670.895 239.389 670.895 334.809 567.502 c 1,51,52
EndSplineSet
EndChar

StartChar: quotesingle
Encoding: 7 39 8
Width: 368
GlyphClass: 2
Flags: MW
LayerCount: 2
Fore
SplineSet
203.366 953.969 m 128,-1,1
 179.659 940.672 179.659 940.672 148.109 949.55 c 128,-1,2
 116.56 958.428 116.56 958.428 105.115 1005.9 c 128,-1,3
 93.6699 1053.38 93.6699 1053.38 84.243 1112.9 c 0,4,5
 61.4712 1256.67 61.4712 1256.67 100.91 1335.06 c 0,6,7
 141.432 1415.6 141.432 1415.6 215.291 1375.3 c 0,8,9
 266.69 1347.25 266.69 1347.25 272.036 1277.53 c 128,-1,10
 277.383 1207.82 277.383 1207.82 267.773 1142.78 c 128,-1,11
 258.162 1077.74 258.162 1077.74 234.268 992.828 c 0,12,0
 227.074 967.265 227.074 967.265 203.366 953.969 c 128,-1,1
EndSplineSet
EndChar

StartChar: parenleft
Encoding: 8 40 9
Width: 500
GlyphClass: 2
Flags: MW
LayerCount: 2
Fore
SplineSet
380.554 1120.86 m 128,-1,1
 402.892 1106.5 402.892 1106.5 408.668 1079.94 c 128,-1,2
 414.445 1053.38 414.445 1053.38 392.473 1019.2 c 0,3,4
 215.421 743.751 215.421 743.751 207.184 499.984 c 0,5,6
 202.128 350.319 202.128 350.319 235.443 241.2 c 0,7,8
 297.353 38.4242 297.353 38.4242 414.155 -135.742 c 0,9,10
 428.947 -157.794 428.947 -157.794 423.691 -184.465 c 128,-1,11
 418.435 -211.135 418.435 -211.135 396.374 -225.93 c 128,-1,12
 374.31 -240.723 374.31 -240.723 347.644 -235.464 c 128,-1,13
 320.978 -230.204 320.978 -230.204 306.187 -208.149 c 0,14,15
 -110.732 413.529 -110.732 413.529 235.253 1010.89 c 0,16,17
 259.51 1052.77 259.51 1052.77 282.301 1088.22 c 128,-1,18
 305.091 1123.67 305.091 1123.67 331.655 1129.45 c 128,-1,0
 358.219 1135.22 358.219 1135.22 380.554 1120.86 c 128,-1,1
EndSplineSet
EndChar

StartChar: parenright
Encoding: 9 41 10
Width: 537
GlyphClass: 2
Flags: MW
LayerCount: 2
Fore
SplineSet
121.814 1120.86 m 128,-1,1
 144.149 1135.22 144.149 1135.22 170.713 1129.45 c 128,-1,2
 197.277 1123.67 197.277 1123.67 220.065 1088.23 c 0,3,4
 415.668 783.946 415.668 783.946 425.11 504.374 c 0,5,6
 437.044 151.007 437.044 151.007 196.182 -208.149 c 0,7,8
 181.391 -230.204 181.391 -230.204 154.724 -235.464 c 128,-1,9
 128.058 -240.723 128.058 -240.723 105.994 -225.93 c 128,-1,10
 83.9334 -211.135 83.9334 -211.135 78.6773 -184.464 c 128,-1,11
 73.4212 -157.794 73.4212 -157.794 88.213 -135.742 c 0,12,13
 356.415 264.18 356.415 264.18 279.27 626.947 c 0,14,15
 238.351 819.372 238.351 819.372 102.286 1031.03 c 0,16,17
 87.9234 1053.38 87.9234 1053.38 93.6997 1079.94 c 128,-1,0
 99.476 1106.5 99.476 1106.5 121.814 1120.86 c 128,-1,1
EndSplineSet
EndChar

StartChar: asterisk
Encoding: 10 42 11
Width: 1182
GlyphClass: 2
Flags: MW
LayerCount: 2
Fore
SplineSet
257.742 598.681 m 128,-1,1
 238.965 617.458 238.965 617.458 238.962 644.639 c 128,-1,2
 238.96 671.819 238.96 671.819 257.742 690.604 c 2,3,-1
 485.789 918.651 l 1,4,-1
 136.808 1034.98 l 2,5,6
 111.614 1043.38 111.614 1043.38 99.4561 1067.69 c 128,-1,7
 87.2979 1092 87.2979 1092 95.6982 1117.2 c 128,-1,8
 104.098 1142.4 104.098 1142.4 128.411 1154.55 c 128,-1,9
 152.724 1166.71 152.724 1166.71 177.917 1158.31 c 2,10,-1
 524.362 1042.83 l 1,11,-1
 524.362 1352.64 l 2,12,13
 524.362 1364.32 524.362 1364.32 528.085 1378.53 c 128,-1,14
 531.809 1392.75 531.809 1392.75 548.256 1409.19 c 128,-1,15
 564.704 1425.64 564.704 1425.64 591.704 1425.64 c 128,-1,16
 618.704 1425.64 618.704 1425.64 637.704 1406.64 c 128,-1,17
 656.704 1387.64 656.704 1387.64 656.704 1360.64 c 2,18,-1
 656.704 1050.83 l 1,19,-1
 1003.15 1166.31 l 2,20,21
 1028.34 1174.71 1028.34 1174.71 1052.66 1162.55 c 128,-1,22
 1076.97 1150.4 1076.97 1150.4 1085.37 1125.2 c 128,-1,23
 1093.77 1100 1093.77 1100 1081.61 1075.69 c 128,-1,24
 1069.45 1051.38 1069.45 1051.38 1044.26 1042.98 c 2,25,-1
 691.034 925.236 l 1,26,-1
 925.666 690.604 l 2,27,28
 944.444 671.822 944.444 671.822 944.446 644.639 c 128,-1,29
 944.448 617.463 944.448 617.463 925.666 598.681 c 128,-1,30
 906.881 579.899 906.881 579.899 879.7 579.9 c 128,-1,31
 852.52 579.901 852.52 579.901 833.742 598.681 c 2,32,-1
 591.704 840.719 l 1,33,-1
 349.666 598.681 l 2,34,35
 330.881 579.899 330.881 579.899 303.7 579.9 c 128,-1,0
 276.52 579.901 276.52 579.901 257.742 598.681 c 128,-1,1
EndSplineSet
EndChar

StartChar: plus
Encoding: 11 43 12
Width: 1233
GlyphClass: 2
Flags: MW
LayerCount: 2
Fore
SplineSet
1141.13 599 m 128,-1,1
 1141.13 572 1141.13 572 1122.13 553 c 128,-1,2
 1103.13 534 1103.13 534 1076.13 534 c 2,3,-1
 676 534 l 1,4,-1
 676 94.0801 l 2,5,6
 675.998 67.5244 675.998 67.5244 656.778 48.3018 c 128,-1,7
 637.561 29.0801 637.561 29.0801 611 29.0801 c 128,-1,8
 584.438 29.0801 584.438 29.0801 565.219 48.3018 c 128,-1,9
 546 67.5244 546 67.5244 546 94.0801 c 2,10,-1
 546 534 l 1,11,-1
 164.135 534 l 2,12,13
 137.135 534 137.135 534 118.135 553 c 128,-1,14
 99.1348 572 99.1348 572 99.1348 599 c 128,-1,15
 99.1348 626 99.1348 626 118.135 645 c 128,-1,16
 137.135 664 137.135 664 164.135 664 c 2,17,-1
 546 664 l 1,18,-1
 546 1070.08 l 2,19,20
 545.998 1096.64 545.998 1096.64 565.219 1115.86 c 128,-1,21
 584.442 1135.08 584.442 1135.08 611 1135.08 c 128,-1,22
 637.556 1135.08 637.556 1135.08 656.778 1115.86 c 128,-1,23
 676 1096.64 676 1096.64 676 1070.08 c 2,24,-1
 676 664 l 1,25,-1
 1076.13 664 l 2,26,27
 1103.13 664 1103.13 664 1122.13 645 c 128,-1,0
 1141.13 626 1141.13 626 1141.13 599 c 128,-1,1
EndSplineSet
EndChar

StartChar: comma
Encoding: 12 44 13
Width: 445
GlyphClass: 2
Flags: MW
LayerCount: 2
Fore
SplineSet
233.813 -363.666 m 1,0,1
 222.201 -383.603 222.201 -383.603 200.104 -391.82 c 128,-1,2
 178.006 -400.037 178.006 -400.037 156.257 -392.488 c 0,3,4
 131.169 -383.781 131.169 -383.781 119.312 -359.321 c 128,-1,5
 107.454 -334.862 107.454 -334.862 116.163 -309.769 c 0,6,7
 129.68 -270.826 129.68 -270.826 133.471 -233.786 c 0,8,9
 137.187 -197.481 137.187 -197.481 133.51 -173.554 c 0,10,11
 128.848 -143.211 128.848 -143.211 122.248 -112.011 c 0,12,13
 115.886 -81.9326 115.886 -81.9326 109.688 -61.8633 c 0,14,15
 99.6084 -29.2314 99.6084 -29.2314 100.016 7.04102 c 0,16,17
 100.474 47.709 100.474 47.709 117.839 81.9736 c 0,18,19
 135.572 117.002 135.572 117.002 168.126 140.389 c 128,-1,20
 200.68 163.775 200.68 163.775 242.954 156.606 c 0,21,22
 286.187 149.274 286.187 149.274 309.586 116.562 c 128,-1,23
 332.985 83.8506 332.985 83.8506 341.155 41.9873 c 0,24,25
 355.373 -35.2832 355.373 -35.2832 325.212 -140.925 c 0,26,27
 290.719 -261.739 290.719 -261.739 247.716 -345.437 c 0,28,29
 242.643 -355.311 242.643 -355.311 233.813 -363.666 c 1,0,1
EndSplineSet
EndChar

StartChar: hyphen
Encoding: 13 45 14
Width: 783
GlyphClass: 2
Flags: MW
LayerCount: 2
Fore
SplineSet
107 490 m 128,-1,1
 107 517 107 517 126 536 c 128,-1,2
 145 555 145 555 172 555 c 2,3,-1
 613 555 l 2,4,5
 640 555 640 555 659 536 c 128,-1,6
 678 517 678 517 678 490 c 128,-1,7
 678 463 678 463 659 444 c 128,-1,8
 640 425 640 425 613 425 c 2,9,-1
 172 425 l 2,10,11
 145 425 145 425 126 444 c 128,-1,0
 107 463 107 463 107 490 c 128,-1,1
EndSplineSet
EndChar

StartChar: period
Encoding: 14 46 15
Width: 422
GlyphClass: 2
Flags: MW
LayerCount: 2
Fore
SplineSet
100.042 89.084 m 128,-1,1
 99.4307 115.326 99.4307 115.326 107.711 150.617 c 128,-1,2
 115.99 185.908 115.99 185.908 145.496 228.561 c 128,-1,3
 175.002 271.214 175.002 271.214 206.767 265.991 c 0,4,5
 257.646 257.625 257.646 257.625 299.77 172.324 c 0,6,7
 330.541 110.011 330.541 110.011 319.217 66.7314 c 128,-1,8
 307.893 23.4512 307.893 23.4512 280.789 1.50684 c 128,-1,9
 253.686 -20.4375 253.686 -20.4375 217.705 -21.8916 c 128,-1,10
 181.726 -23.3457 181.726 -23.3457 155.112 -6.30762 c 128,-1,11
 128.5 10.7305 128.5 10.7305 114.577 36.7861 c 128,-1,0
 100.653 62.8418 100.653 62.8418 100.042 89.084 c 128,-1,1
EndSplineSet
EndChar

StartChar: slash
Encoding: 15 47 16
Width: 572
GlyphClass: 2
Flags: MW
LayerCount: 2
Fore
SplineSet
607.317 1037.18 m 128,-1,1
 631.353 1025.88 631.353 1025.88 640.576 1000.32 c 128,-1,2
 649.8 974.749 649.8 974.749 638.506 950.705 c 2,3,-1
 126.238 -139.548 l 2,4,5
 114.944 -163.583 114.944 -163.583 89.3779 -172.807 c 128,-1,6
 63.8105 -182.03 63.8105 -182.03 39.7666 -170.736 c 128,-1,7
 15.7256 -159.44 15.7256 -159.44 6.50488 -133.868 c 128,-1,8
 -2.71582 -108.296 -2.71582 -108.296 8.57812 -84.2646 c 2,9,-1
 520.846 1005.99 l 2,10,11
 532.141 1030.03 532.141 1030.03 557.714 1039.25 c 128,-1,0
 583.287 1048.47 583.287 1048.47 607.317 1037.18 c 128,-1,1
EndSplineSet
EndChar

StartChar: zero
Encoding: 16 48 17
Width: 1144
GlyphClass: 2
Flags: MW
LayerCount: 2
Fore
SplineSet
656.363 1225.25 m 1,0,1
 838.146 1192.25 838.146 1192.25 951.8 954.571 c 128,-1,2
 1065.45 716.888 1065.45 716.888 1044.48 496.162 c 128,-1,3
 1023.5 275.437 1023.5 275.437 946.573 182.987 c 0,4,5
 810.283 19.1984 810.283 19.1984 608.707 17.5752 c 0,6,7
 318.88 15.2417 318.88 15.2417 178.484 325.057 c 0,8,9
 87.1367 526.635 87.1367 526.635 102.269 774.717 c 128,-1,10
 117.4 1022.8 117.4 1022.8 213.739 1150.55 c 0,11,12
 386.708 1379.93 386.708 1379.93 631.922 1345.31 c 0,13,14
 658.224 1341.6 658.224 1341.6 674.567 1319.88 c 0,15,16
 717.091 1263.38 717.091 1263.38 656.363 1225.25 c 1,0,1
585.113 1219.57 m 1,17,18
 435.868 1229.21 435.868 1229.21 340.321 1102.5 c 128,-1,19
 244.774 975.795 244.774 975.795 231.817 763.355 c 128,-1,20
 218.859 550.915 218.859 550.915 295.557 381.664 c 0,21,22
 402.389 145.915 402.389 145.915 604.563 147.545 c 128,-1,23
 806.738 149.174 806.738 149.174 878.977 333.081 c 128,-1,24
 951.215 516.989 951.215 516.989 887.073 755.444 c 128,-1,25
 822.93 993.9 822.93 993.9 692.484 1074.01 c 0,26,27
 654.533 1097.32 654.533 1097.32 621.941 1098.96 c 0,28,29
 550.952 1102.52 550.952 1102.52 554.219 1167.45 c 0,30,31
 555.932 1201.52 555.932 1201.52 585.113 1219.57 c 1,17,18
EndSplineSet
EndChar

StartChar: one
Encoding: 17 49 18
Width: 620
GlyphClass: 2
Flags: MW
LayerCount: 2
Fore
SplineSet
116.589 1199.74 m 128,-1,1
 72.9425 1247.9 72.9425 1247.9 111.465 1282.81 c 0,2,3
 224.059 1384.83 224.059 1384.83 320.232 1355.7 c 0,4,5
 513.431 1297.18 513.431 1297.18 520.246 815.852 c 0,6,7
 524.534 513.068 524.534 513.068 465.912 304.694 c 128,-1,8
 407.29 96.3203 407.29 96.3203 354.626 24.3912 c 128,-1,9
 301.961 -47.5379 301.961 -47.5379 249.513 -9.14258 c 128,-1,10
 197.064 29.2605 197.064 29.2605 242.789 91.7069 c 128,-1,11
 288.514 154.153 288.514 154.153 341.397 342.128 c 128,-1,12
 394.28 530.103 394.28 530.103 390.356 807.16 c 128,-1,13
 386.433 1084.22 386.433 1084.22 320.504 1195.5 c 0,14,15
 298.733 1232.25 298.733 1232.25 280.175 1237.84 c 128,-1,16
 261.617 1243.44 261.617 1243.44 210.924 1197.5 c 128,-1,0
 160.23 1151.57 160.23 1151.57 116.589 1199.74 c 128,-1,1
EndSplineSet
EndChar

StartChar: two
Encoding: 18 50 19
Width: 1331
GlyphClass: 2
Flags: MW
LayerCount: 2
Fore
SplineSet
122.74 1031.8 m 128,-1,1
 73.1673 1073.83 73.1673 1073.83 115.205 1123.41 c 0,2,3
 314.52 1358.45 314.52 1358.45 514.62 1374.48 c 128,-1,4
 714.72 1390.5 714.72 1390.5 834.588 1282.06 c 128,-1,5
 954.456 1173.61 954.456 1173.61 965.899 1034.38 c 128,-1,6
 977.342 895.152 977.342 895.152 905.853 779.453 c 0,7,8
 743.515 516.724 743.515 516.724 439.294 185.344 c 1,9,10
 596.788 216.454 596.788 216.454 811.961 182.778 c 128,-1,11
 1027.13 149.102 1027.13 149.102 1117.47 178.822 c 128,-1,12
 1207.81 208.541 1207.81 208.541 1228.13 146.798 c 128,-1,13
 1248.44 85.0513 1248.44 85.0513 1182.99 63.5217 c 0,14,15
 1057.82 22.343 1057.82 22.343 957.092 33.295 c 128,-1,16
 856.365 44.2471 856.365 44.2471 673.478 72.8671 c 128,-1,17
 490.59 101.487 490.59 101.487 269.792 -3.43018 c 0,18,19
 192.721 -40.0527 192.721 -40.0527 167.139 -13.8355 c 0,20,21
 114.707 39.8983 114.707 39.8983 161.229 85.2939 c 2,22,-1
 202.82 125.877 l 2,23,24
 559.14 473.562 559.14 473.562 797.986 848.772 c 1,25,26
 844.328 926.543 844.328 926.543 836.713 1019.13 c 128,-1,27
 829.099 1111.72 829.099 1111.72 749.118 1184.08 c 128,-1,28
 669.137 1256.43 669.137 1256.43 523.935 1244.81 c 128,-1,29
 378.732 1233.18 378.732 1233.18 214.354 1039.33 c 0,30,0
 172.312 989.753 172.312 989.753 122.74 1031.8 c 128,-1,1
EndSplineSet
EndChar

StartChar: three
Encoding: 19 51 20
Width: 1181
GlyphClass: 2
Flags: MW
LayerCount: 2
Fore
SplineSet
147.147 1021.63 m 132,-1,1
 128.755 1040.78 128.755 1040.78 129.307 1067.96 c 132,-1,2
 129.857 1095.14 129.857 1095.14 149.018 1113.54 c 4,3,4
 402.914 1357.32 402.914 1357.32 629.18 1376.76 c 4,5,6
 804.712 1391.83 804.712 1391.83 904.962 1272.29 c 5,7,8
 999.384 1158.03 999.384 1158.03 971.639 987.562 c 4,9,10
 943.061 811.979 943.061 811.979 794.578 655.706 c 5,11,12
 851.386 644.224 851.386 644.224 903.229 612.54 c 4,13,14
 1017.38 542.775 1017.38 542.775 1061.47 407.929 c 4,15,16
 1108.21 264.988 1108.21 264.988 1046.72 145.795 c 4,17,18
 1008.8 72.2949 1008.8 72.2949 938.4 31.6758 c 132,-1,19
 868.002 -8.94238 868.002 -8.94238 774.735 -15.4658 c 4,20,21
 522.573 -33.1016 522.573 -33.1016 132.379 193.02 c 4,22,23
 109.403 206.335 109.403 206.335 102.408 232.6 c 132,-1,24
 95.4141 258.865 95.4141 258.865 108.731 281.85 c 132,-1,25
 122.05 304.831 122.05 304.831 148.319 311.822 c 132,-1,26
 174.588 318.813 174.588 318.813 197.562 305.498 c 4,27,28
 553.263 99.3613 553.263 99.3613 765.666 114.218 c 4,29,30
 831.791 118.843 831.791 118.843 870.765 141.332 c 132,-1,31
 909.738 163.821 909.738 163.821 931.186 205.395 c 4,32,33
 967.75 276.268 967.75 276.268 937.91 367.526 c 4,34,35
 908.707 456.835 908.707 456.835 835.436 501.616 c 4,36,37
 784.734 532.603 784.734 532.603 730.48 532.796 c 132,-1,38
 676.228 532.988 676.228 532.988 603.111 499.342 c 4,39,40
 581.13 488.759 581.13 488.759 557.316 495.249 c 132,-1,41
 533.504 501.74 533.504 501.74 520.172 522.06 c 4,42,43
 505.605 544.262 505.605 544.262 511.133 570.879 c 132,-1,44
 516.66 597.497 516.66 597.497 538.861 612.063 c 4,45,46
 610.442 659.028 610.442 659.028 667.292 712.469 c 4,47,48
 818.25 854.373 818.25 854.373 843.326 1008.44 c 4,49,50
 861.596 1120.69 861.596 1120.69 805.053 1189.11 c 4,51,52
 776.346 1223.34 776.346 1223.34 737.344 1237.78 c 132,-1,53
 698.343 1252.22 698.343 1252.22 640.301 1247.23 c 4,54,55
 459.835 1231.73 459.835 1231.73 239.052 1019.76 c 4,56,57
 219.889 1001.36 219.889 1001.36 192.713 1001.92 c 132,-1,0
 165.538 1002.47 165.538 1002.47 147.147 1021.63 c 132,-1,1
EndSplineSet
EndChar

StartChar: four
Encoding: 20 52 21
Width: 1496
GlyphClass: 2
Flags: MW
LayerCount: 2
Fore
SplineSet
757.453 1104.4 m 128,-1,1
 784.009 1104.4 784.009 1104.4 803.23 1085.18 c 128,-1,2
 822.453 1065.96 822.453 1065.96 822.453 1039.4 c 2,3,-1
 822.453 722.934 l 1,4,5
 1213.47 770.685 1213.47 770.685 1282.18 744.052 c 0,6,7
 1393.18 701.021 1393.18 701.021 1396.14 623.813 c 0,8,9
 1397.16 597.277 1397.16 597.277 1378.69 577.333 c 128,-1,10
 1360.22 557.389 1360.22 557.389 1335.26 556.432 c 0,11,12
 1280.21 554.32 1280.21 554.32 1267.61 607.734 c 1,13,14
 1199.64 638.552 1199.64 638.552 822.453 591.97 c 1,15,-1
 822.453 89.127 l 2,16,17
 822.452 62.5713 822.452 62.5713 803.23 43.3486 c 128,-1,18
 784.013 24.127 784.013 24.127 757.453 24.127 c 128,-1,19
 730.891 24.127 730.891 24.127 711.672 43.3486 c 128,-1,20
 692.453 62.5713 692.453 62.5713 692.453 89.127 c 2,21,-1
 692.453 575.386 l 1,22,23
 685.84 574.519 685.84 574.519 519.348 552.606 c 128,-1,24
 352.856 530.692 352.856 530.692 287.039 538 c 128,-1,25
 221.221 545.308 221.221 545.308 203.985 549.25 c 128,-1,26
 186.75 553.192 186.75 553.192 166.459 561.494 c 0,27,28
 91.633 592.11 91.633 592.11 98.7931 655.777 c 128,-1,29
 105.953 719.443 105.953 719.443 151.554 773.134 c 0,30,31
 347.091 1003.36 347.091 1003.36 399.008 1070.57 c 128,-1,32
 450.926 1137.77 450.926 1137.77 571.974 1317.22 c 0,33,34
 608.326 1371.11 608.326 1371.11 646.275 1345.51 c 0,35,36
 716.09 1298.41 716.09 1298.41 679.748 1244.52 c 0,37,38
 556.312 1061.54 556.312 1061.54 502.158 991.447 c 128,-1,39
 448.004 921.355 448.004 921.355 346.225 801.521 c 128,-1,40
 244.446 681.688 244.446 681.688 239.529 674.814 c 1,41,42
 323.796 657.989 323.796 657.989 500.672 681.269 c 128,-1,43
 677.548 704.549 677.548 704.549 692.453 706.49 c 1,44,-1
 692.453 1039.4 l 2,45,46
 692.452 1065.96 692.452 1065.96 711.672 1085.18 c 128,-1,0
 730.895 1104.4 730.895 1104.4 757.453 1104.4 c 128,-1,1
EndSplineSet
EndChar

StartChar: five
Encoding: 21 53 22
Width: 1306
GlyphClass: 2
Flags: MW
LayerCount: 2
Fore
SplineSet
1203.1 1381.49 m 132,-1,1
 1211.88 1356.44 1211.88 1356.44 1200.11 1331.94 c 132,-1,2
 1188.33 1307.44 1188.33 1307.44 1163.27 1298.65 c 4,3,4
 975.691 1232.86 975.691 1232.86 702.877 1247.5 c 4,5,6
 596.06 1253.24 596.06 1253.24 450.621 1264.17 c 132,-1,7
 305.183 1275.1 305.183 1275.1 254.654 1252.97 c 5,8,9
 241.063 1225.57 241.063 1225.57 231.013 1096 c 132,-1,10
 220.962 966.433 220.962 966.433 246.075 763.334 c 5,11,12
 632.593 932.652 632.593 932.652 870.165 864.336 c 4,13,14
 1044.45 814.215 1044.45 814.215 1095.87 661.77 c 132,-1,15
 1147.28 509.324 1147.28 509.324 1074.12 344.872 c 132,-1,16
 1000.95 180.42 1000.95 180.42 845.307 85.9951 c 4,17,18
 624.811 -47.7734 624.811 -47.7734 346.979 25.5576 c 4,19,20
 254.241 50.0352 254.241 50.0352 159.817 98.0029 c 4,21,22
 136.142 110.03 136.142 110.03 127.709 135.869 c 132,-1,23
 119.276 161.709 119.276 161.709 131.306 185.394 c 132,-1,24
 143.336 209.074 143.336 209.074 169.18 217.504 c 132,-1,25
 195.023 225.934 195.023 225.934 218.695 213.905 c 4,26,27
 538.076 51.6601 538.076 51.6601 777.876 197.14 c 4,28,29
 898.732 270.46 898.732 270.46 953.31 393.151 c 132,-1,30
 1007.89 515.843 1007.89 515.843 975.466 611.976 c 132,-1,31
 943.044 708.109 943.044 708.109 834.234 739.399 c 4,32,33
 620.74 800.793 620.74 800.793 223.66 609.96 c 4,34,35
 190.909 594.217 190.909 594.217 164.123 611.719 c 132,-1,36
 137.337 629.221 137.337 629.221 131.889 655.209 c 4,37,38
 114.43 738.485 114.43 738.485 103.82 893.205 c 132,-1,39
 93.2112 1047.92 93.2112 1047.92 104.574 1158.14 c 132,-1,40
 115.937 1268.35 115.937 1268.35 132.275 1304.66 c 132,-1,41
 148.614 1340.96 148.614 1340.96 190.309 1366.43 c 4,42,43
 259.782 1408.88 259.782 1408.88 521.781 1389.19 c 132,-1,44
 783.78 1369.49 783.78 1369.49 909.538 1380.51 c 132,-1,45
 1035.3 1391.53 1035.3 1391.53 1120.25 1421.32 c 4,46,47
 1145.31 1430.11 1145.31 1430.11 1169.81 1418.33 c 132,-1,0
 1194.31 1406.55 1194.31 1406.55 1203.1 1381.49 c 132,-1,1
EndSplineSet
EndChar

StartChar: six
Encoding: 22 54 23
Width: 1177
GlyphClass: 2
Flags: MW
LayerCount: 2
Fore
SplineSet
663.362 1314.11 m 0,0,1
 697.401 1258.74 697.401 1258.74 635.375 1220.61 c 0,2,3
 435.19 1097.56 435.19 1097.56 304.624 816.775 c 0,4,5
 233.322 663.435 233.322 663.435 231.026 539.941 c 0,6,7
 223.782 150.232 223.782 150.232 618.428 155.562 c 0,8,9
 828.109 158.394 828.109 158.394 894.699 242.715 c 128,-1,10
 961.288 327.037 961.288 327.037 942.04 411.954 c 128,-1,11
 922.791 496.871 922.791 496.871 843.753 552.657 c 128,-1,12
 764.715 608.443 764.715 608.443 655.599 574.711 c 128,-1,13
 546.482 540.979 546.482 540.979 472.202 470.304 c 128,-1,14
 397.922 399.629 397.922 399.629 353.118 446.725 c 128,-1,15
 308.318 493.821 308.318 493.821 355.404 538.62 c 0,16,17
 478.969 656.178 478.969 656.178 633.197 703.856 c 128,-1,18
 787.425 751.534 787.425 751.534 912.982 662.915 c 128,-1,19
 1038.54 574.295 1038.54 574.295 1070.17 434.751 c 128,-1,20
 1101.8 295.208 1101.8 295.208 996.783 162.224 c 128,-1,21
 891.765 29.2393 891.765 29.2393 620.183 25.5732 c 0,22,23
 245.647 20.5181 245.647 20.5181 131.907 307.845 c 0,24,25
 74.8173 452.064 74.8173 452.064 108.268 613.412 c 0,26,27
 183.804 977.765 183.804 977.765 396.591 1189.85 c 128,-1,28
 609.379 1401.94 609.379 1401.94 663.362 1314.11 c 0,0,1
EndSplineSet
EndChar

StartChar: seven
Encoding: 23 55 24
Width: 1200
GlyphClass: 2
Flags: MW
LayerCount: 2
Fore
SplineSet
102.2 1205.3 m 128,-1,1
 92.8516 1230.15 92.8516 1230.15 104.072 1254.91 c 128,-1,2
 115.293 1279.67 115.293 1279.67 140.155 1289.02 c 0,3,4
 630.998 1473.64 630.998 1473.64 857.293 1416.32 c 0,5,6
 1148.49 1342.56 1148.49 1342.56 1087.85 910.671 c 0,7,8
 1070.17 784.74 1070.17 784.74 993.519 489.854 c 128,-1,9
 916.863 194.967 916.863 194.967 904.106 64.7969 c 0,10,11
 901.517 38.3682 901.517 38.3682 880.514 21.1133 c 128,-1,12
 859.51 3.85742 859.51 3.85742 833.075 6.44922 c 128,-1,13
 806.64 9.04004 806.64 9.04004 789.389 30.0449 c 128,-1,14
 772.137 51.0508 772.137 51.0508 774.727 77.4805 c 0,15,16
 788.479 217.8 788.479 217.8 865.477 514.007 c 128,-1,17
 942.476 810.215 942.476 810.215 957.274 912.771 c 0,18,19
 994.012 1167.35 994.012 1167.35 909.689 1246.52 c 0,20,21
 847.15 1305.23 847.15 1305.23 667.323 1293 c 128,-1,22
 487.497 1280.77 487.497 1280.77 185.923 1167.34 c 0,23,24
 161.062 1157.99 161.062 1157.99 136.305 1169.21 c 128,-1,0
 111.549 1180.44 111.549 1180.44 102.2 1205.3 c 128,-1,1
EndSplineSet
EndChar

StartChar: eight
Encoding: 24 56 25
Width: 1189
GlyphClass: 2
Flags: MW
LayerCount: 2
Fore
SplineSet
820.369 1001.79 m 128,-1,1
 759.031 1023.3 759.031 1023.3 774.841 1070.86 c 128,-1,2
 790.651 1118.43 790.651 1118.43 718.473 1157.14 c 128,-1,3
 646.294 1195.85 646.294 1195.85 466.156 1193.61 c 128,-1,4
 286.018 1191.37 286.018 1191.37 242.822 1106.76 c 128,-1,5
 199.625 1022.15 199.625 1022.15 307.373 882.954 c 1,6,7
 417.73 794.698 417.73 794.698 527.766 728.905 c 1,8,9
 590.137 775.892 590.137 775.892 729.476 873.116 c 128,-1,10
 868.814 970.34 868.814 970.34 918.085 1022.38 c 128,-1,11
 967.355 1074.43 967.355 1074.43 1014.56 1029.75 c 128,-1,12
 1061.77 985.055 1061.77 985.055 1007.93 928.194 c 128,-1,13
 954.097 871.332 954.097 871.332 822.7 779.648 c 128,-1,14
 691.303 687.963 691.303 687.963 655.957 662.148 c 1,15,16
 679.024 651.277 679.024 651.277 787.245 602.694 c 128,-1,17
 895.465 554.111 895.465 554.111 967.22 472.735 c 128,-1,18
 1038.97 391.359 1038.97 391.359 1071.41 325.28 c 128,-1,19
 1103.85 259.2 1103.85 259.2 1080.95 185.576 c 128,-1,20
 1058.05 111.952 1058.05 111.952 959.347 50.7593 c 128,-1,21
 860.641 -10.4336 860.641 -10.4336 656.824 -12.4121 c 128,-1,22
 453.007 -14.3906 453.007 -14.3906 344.254 44.0376 c 0,23,24
 -31.4522 245.889 -31.4522 245.889 419.838 642.713 c 1,25,26
 243.111 754.64 243.111 754.64 205.705 801.882 c 0,27,28
 113.558 918.259 113.558 918.259 100.137 1036.77 c 128,-1,29
 86.7148 1155.28 86.7148 1155.28 196.288 1238.45 c 128,-1,30
 305.86 1321.62 305.86 1321.62 492.029 1323.94 c 128,-1,31
 678.197 1326.26 678.197 1326.26 771.224 1276.36 c 0,32,33
 951.615 1179.61 951.615 1179.61 903.217 1041.61 c 0,34,0
 881.705 980.276 881.705 980.276 820.369 1001.79 c 128,-1,1
539.861 573.961 m 1,35,36
 343.01 413.931 343.01 413.931 309.821 291.629 c 0,37,38
 290.517 220.482 290.517 220.482 387.821 168.205 c 128,-1,39
 485.126 115.928 485.126 115.928 654.08 117.567 c 128,-1,40
 823.033 119.207 823.033 119.207 888.43 159.75 c 128,-1,41
 953.826 200.292 953.826 200.292 960.827 221.794 c 128,-1,42
 967.828 243.297 967.828 243.297 940.781 290.064 c 0,43,44
 866.644 418.254 866.644 418.254 740.841 479.504 c 0,45,46
 700.702 499.046 700.702 499.046 648.205 522.613 c 128,-1,47
 595.826 546.127 595.826 546.127 539.861 573.961 c 1,35,36
EndSplineSet
EndChar

StartChar: nine
Encoding: 25 57 26
Width: 1114
GlyphClass: 2
Flags: MW
LayerCount: 2
Fore
SplineSet
1007.96 1175.12 m 128,-1,1
 996.308 1151.26 996.308 1151.26 970.604 1142.42 c 128,-1,2
 944.899 1133.58 944.899 1133.58 921.029 1145.24 c 0,3,4
 606.204 1298.99 606.204 1298.99 413.329 1215.27 c 0,5,6
 302.819 1167.3 302.819 1167.3 258.21 1056.65 c 128,-1,7
 213.602 946.002 213.602 946.002 238.419 853.688 c 128,-1,8
 263.236 761.373 263.236 761.373 321.319 736.05 c 0,9,10
 411.247 696.843 411.247 696.843 557.188 810.321 c 0,11,12
 669.428 897.596 669.428 897.596 793.342 1064.91 c 0,13,14
 809.146 1086.24 809.146 1086.24 836.035 1090.25 c 128,-1,15
 862.925 1094.26 862.925 1094.26 883.33 1079.14 c 128,-1,17
 903.735 1064.03 903.735 1064.03 909.014 1040.38 c 0,18,19
 979.256 725.764 979.256 725.764 896.536 29.1602 c 0,20,21
 893.404 2.79004 893.404 2.79004 872.053 -14.0312 c 128,-1,22
 850.7 -30.8525 850.7 -30.8525 824.324 -27.7207 c 128,-1,23
 797.947 -24.5879 797.947 -24.5879 781.13 -3.2334 c 128,-1,24
 764.312 18.1211 764.312 18.1211 767.443 44.4922 c 0,25,26
 827.572 550.842 827.572 550.842 802.244 867.812 c 1,27,28
 717.722 770.472 717.722 770.472 636.985 707.694 c 0,29,30
 430.082 546.813 430.082 546.813 269.366 616.883 c 0,31,32
 153.938 667.207 153.938 667.207 115.35 810.734 c 128,-1,33
 76.7627 954.261 76.7627 954.261 139.469 1109.79 c 128,-1,34
 202.175 1265.33 202.175 1265.33 361.571 1334.52 c 0,35,36
 609.412 1442.1 609.412 1442.1 978.081 1262.05 c 0,37,38
 1001.95 1250.39 1001.95 1250.39 1010.78 1224.68 c 128,-1,0
 1019.62 1198.98 1019.62 1198.98 1007.96 1175.12 c 128,-1,1
EndSplineSet
EndChar

StartChar: less
Encoding: 28 60 29
Width: 876
GlyphClass: 2
Flags: MW
LayerCount: 2
Fore
SplineSet
748.641 859.642 m 128,-1,1
 761.114 836.2 761.114 836.2 753.173 810.202 c 128,-1,2
 745.232 784.204 745.232 784.204 721.782 771.729 c 2,3,-1
 296.142 545.308 l 1,4,-1
 729.876 365.552 l 2,5,6
 754.408 355.385 754.408 355.385 764.808 330.271 c 128,-1,7
 775.207 305.157 775.207 305.157 765.038 280.619 c 128,-1,8
 754.868 256.081 754.868 256.081 729.752 245.686 c 128,-1,9
 704.637 235.29 704.637 235.29 680.104 245.457 c 2,10,-1
 119.114 477.953 l 2,11,12
 97.5679 486.883 97.5679 486.883 86.6143 507.473 c 0,13,14
 74.1435 530.917 74.1435 530.917 82.0871 556.916 c 128,-1,15
 90.0306 582.915 90.0306 582.915 113.473 595.386 c 2,16,-1
 660.728 886.501 l 2,17,18
 684.182 898.975 684.182 898.975 710.175 891.031 c 128,-1,0
 736.169 883.087 736.169 883.087 748.641 859.642 c 128,-1,1
EndSplineSet
EndChar

StartChar: greater
Encoding: 30 62 31
Width: 857
GlyphClass: 2
Flags: MW
LayerCount: 2
Fore
SplineSet
101.214 859.642 m 128,-1,1
 113.685 883.087 113.685 883.087 139.679 891.031 c 128,-1,2
 165.673 898.975 165.673 898.975 189.126 886.501 c 2,3,-1
 736.381 595.386 l 2,4,5
 759.824 582.915 759.824 582.915 767.768 556.916 c 128,-1,6
 775.711 530.917 775.711 530.917 763.999 508.899 c 128,-1,7
 752.286 486.882 752.286 486.882 730.74 477.953 c 2,8,-1
 169.75 245.457 l 2,9,10
 145.218 235.29 145.218 235.29 120.102 245.686 c 128,-1,11
 94.9864 256.081 94.9864 256.081 84.8168 280.619 c 128,-1,12
 74.6473 305.157 74.6473 305.157 85.0466 330.271 c 128,-1,13
 95.446 355.385 95.446 355.385 119.978 365.552 c 2,14,-1
 553.713 545.308 l 1,15,-1
 128.073 771.729 l 2,16,17
 104.623 784.205 104.623 784.205 96.6819 810.202 c 128,-1,0
 88.7412 836.2 88.7412 836.2 101.214 859.642 c 128,-1,1
EndSplineSet
EndChar

StartChar: question
Encoding: 31 63 32
Width: 855
GlyphClass: 2
Flags: MW
LayerCount: 2
Fore
SplineSet
170.303 888.333 m 0,0,1
 184.18 1118.92 184.18 1118.92 339.668 1155.93 c 0,2,3
 415.705 1174.03 415.705 1174.03 506.782 1149.58 c 0,4,5
 791.91 1073.02 791.91 1073.02 835.094 953.008 c 0,6,7
 878.279 832.991 878.279 832.991 741.48 698.325 c 0,8,9
 665.524 623.556 665.524 623.556 606.594 569.176 c 0,10,11
 547.665 514.795 547.665 514.795 537.139 492.987 c 0,12,13
 526.613 471.18 526.613 471.18 514.907 450.286 c 0,14,15
 422.736 285.767 422.736 285.767 541.751 130.587 c 0,16,17
 579.408 81.4866 579.408 81.4866 527.825 41.9293 c 0,18,19
 452.983 -15.4535 452.983 -15.4535 378.169 160.613 c 0,20,21
 303.354 336.679 303.354 336.679 411.312 531.344 c 1,22,23
 442.723 594.85 442.723 594.85 586.52 727.542 c 0,24,25
 730.317 860.233 730.317 860.233 715.522 901.351 c 0,26,27
 691.935 966.903 691.935 966.903 467.608 1024.37 c 1,28,29
 380.712 1049.11 380.712 1049.11 343.545 1017.24 c 0,30,31
 306.379 985.367 306.379 985.367 303.075 930.484 c 0,32,33
 299.771 875.602 299.771 875.602 305.631 830.453 c 0,34,35
 311.492 785.305 311.492 785.305 283.445 748.896 c 0,36,37
 255.398 712.488 255.398 712.488 209.678 747.697 c 0,38,39
 163.958 782.906 163.958 782.906 170.303 888.333 c 0,0,1
EndSplineSet
Refer: 15 46 N 0.904335 0 0 1.22675 299.608 -348.004 2
EndChar

StartChar: at
Encoding: 32 64 33
Width: 1390
GlyphClass: 2
Flags: MW
LayerCount: 2
Fore
SplineSet
960.495 511.272 m 5,0,1
 969.293 491.218 969.293 491.218 966.351 472.44 c 4,2,3
 941.885 316.346 941.885 316.346 992.05 236.129 c 4,4,5
 1047.6 147.308 1047.6 147.308 1118.17 290.322 c 4,6,7
 1158.69 372.436 1158.69 372.436 1169.84 524.189 c 4,8,9
 1178.66 644.297 1178.66 644.297 1067.02 750.98 c 132,-1,10
 955.374 857.665 955.374 857.665 778.145 900.229 c 132,-1,11
 600.916 942.791 600.916 942.791 456.561 876.997 c 4,12,13
 249.42 782.587 249.42 782.587 226.2 486.867 c 5,14,15
 203.412 302.586 203.412 302.586 342.137 171.665 c 4,16,17
 431.859 86.9883 431.859 86.9883 570.051 83.7744 c 4,18,19
 596.6 83.1562 596.6 83.1562 615.37 63.4961 c 132,-1,20
 634.14 43.835 634.14 43.835 633.522 17.2803 c 132,-1,21
 632.904 -9.27441 632.904 -9.27441 613.241 -28.041 c 132,-1,22
 593.577 -46.8076 593.577 -46.8076 567.028 -46.1904 c 4,23,24
 378.936 -41.8164 378.936 -41.8164 255.875 74.3213 c 132,-1,25
 132.815 190.459 132.815 190.459 102.536 346.576 c 4,26,27
 87.6924 423.108 87.6924 423.108 94.7217 491.958 c 4,28,29
 133.585 872.657 133.585 872.657 402.646 995.29 c 4,30,31
 587.74 1079.65 587.74 1079.65 803.778 1027.77 c 132,-1,32
 1019.82 975.885 1019.82 975.885 1166.31 835.91 c 132,-1,33
 1312.8 695.936 1312.8 695.936 1299.64 516.787 c 132,-1,34
 1286.49 337.638 1286.49 337.638 1230.79 224.772 c 4,35,36
 1163.24 87.8691 1163.24 87.8691 1055.72 74.4702 c 132,-1,37
 948.205 61.0713 948.205 61.0713 881.83 167.197 c 4,38,39
 860.521 201.271 860.521 201.271 847.495 242.536 c 5,40,41
 773.243 145.583 773.243 145.583 693.291 121.562 c 4,42,43
 545.145 77.0498 545.145 77.0498 434.199 188.729 c 4,44,45
 344.768 278.75 344.768 278.75 320.116 428.469 c 132,-1,46
 295.465 578.188 295.465 578.188 387.94 684.483 c 4,47,48
 517.997 833.975 517.997 833.975 812.5 775.8 c 4,49,50
 860.82 766.254 860.82 766.254 902.9 730.762 c 4,51,52
 970.524 673.728 970.524 673.728 976.619 606.311 c 132,-1,53
 982.713 538.894 982.713 538.894 960.495 511.272 c 5,0,1
851.877 523.729 m 5,54,55
 842.524 543.896 842.524 543.896 846.504 567.288 c 4,56,57
 856.01 623.159 856.01 623.159 783.063 649.092 c 5,58,59
 565.788 690.846 565.788 690.846 486.016 599.153 c 4,60,61
 433.317 538.579 433.317 538.579 449.594 439.942 c 132,-1,62
 465.869 341.306 465.869 341.306 525.931 280.846 c 132,-1,63
 585.992 220.387 585.992 220.387 639.081 238.462 c 4,64,65
 752.172 276.966 752.172 276.966 841.58 506.133 c 4,66,67
 845.322 515.724 845.322 515.724 851.877 523.729 c 5,54,55
EndSplineSet
EndChar

StartChar: braceleft
Encoding: 33 123 34
Width: 526
GlyphClass: 2
Flags: MW
LayerCount: 2
Fore
SplineSet
451 -371 m 2,0,1
 262 -371 262 -371 262 -148 c 2,2,-1
 262 150 l 2,3,4
 262 375 262 375 117 403 c 1,5,-1
 117 509 l 1,6,7
 262 541 262 541 262 764 c 2,8,-1
 262 1062 l 2,9,10
 262 1283 262 1283 451 1283 c 2,11,-1
 525 1283 l 1,12,-1
 525 1189 l 1,13,14
 443 1189 443 1189 411.5 1164.5 c 128,-1,15
 380 1140 380 1140 380 1060 c 2,16,-1
 380 737 l 2,17,18
 380 525 380 525 211 457 c 1,19,20
 380 383 380 383 380 176 c 2,21,-1
 380 -145 l 2,22,23
 380 -229 380 -229 413 -252 c 128,-1,24
 446 -275 446 -275 525 -277 c 1,25,-1
 525 -371 l 1,26,-1
 451 -371 l 2,0,1
EndSplineSet
Validated: 1
EndChar

StartChar: bar
Encoding: 34 124 35
Width: 335
GlyphClass: 2
Flags: MW
LayerCount: 2
Fore
SplineSet
180 1238.9 m 128,-1,1
 207 1238.9 207 1238.9 226 1219.9 c 128,-1,2
 245 1200.9 245 1200.9 245 1173.9 c 2,3,-1
 245 -218.1 l 2,4,5
 245 -245.1 245 -245.1 226 -264.1 c 128,-1,6
 207 -283.1 207 -283.1 180 -283.1 c 128,-1,7
 153 -283.1 153 -283.1 134 -264.1 c 128,-1,8
 115 -245.1 115 -245.1 115 -218.1 c 2,9,-1
 115 1173.9 l 2,10,11
 115 1200.9 115 1200.9 134 1219.9 c 128,-1,0
 153 1238.9 153 1238.9 180 1238.9 c 128,-1,1
EndSplineSet
EndChar

StartChar: braceright
Encoding: 35 125 36
Width: 504
GlyphClass: 2
Flags: MW
LayerCount: 2
Fore
SplineSet
328 150 m 2,0,-1
 328 -148 l 2,1,2
 328 -371 328 -371 136 -371 c 2,3,-1
 59 -371 l 1,4,-1
 59 -277 l 1,5,6
 143 -275 143 -275 175 -252 c 128,-1,7
 207 -229 207 -229 207 -145 c 2,8,-1
 207 176 l 2,9,10
 207 383 207 383 377 455 c 1,11,12
 207 530 207 530 207 737 c 2,13,-1
 207 1060 l 2,14,15
 207 1140 207 1140 174 1164.5 c 128,-1,16
 141 1189 141 1189 59 1189 c 1,17,-1
 59 1283 l 1,18,-1
 136 1283 l 2,19,20
 328 1283 328 1283 328 1062 c 2,21,-1
 328 764 l 2,22,23
 328 542 328 542 467 509 c 1,24,-1
 467 403 l 1,25,26
 328 371 328 371 328 150 c 2,0,-1
EndSplineSet
Validated: 1
EndChar

StartChar: asciitilde
Encoding: 36 126 37
Width: 910
GlyphClass: 2
Flags: MW
LayerCount: 2
Fore
SplineSet
882 933 m 2,0,1
 882 704 882 704 707 704 c 0,2,3
 623 704 623 704 540 763 c 2,4,-1
 395 866 l 2,5,6
 348 899 348 899 304 899 c 0,7,8
 209 899 209 899 196 751 c 1,9,-1
 123 751 l 1,10,11
 139 1002 139 1002 306 1002 c 0,12,13
 355 1002 355 1002 397 975 c 2,14,-1
 609 839 l 2,15,16
 659 807 659 807 705 807 c 0,17,18
 805 807 805 807 808 950 c 1,19,-1
 882 950 l 1,20,-1
 882 933 l 2,0,1
EndSplineSet
Validated: 1
EndChar

StartChar: anuswara
Encoding: 38 3330 39
Width: 773
GlyphClass: 2
Flags: MW
LayerCount: 2
Fore
SplineSet
392.318 139.764 m 1,0,1
 494.985 149.689 494.985 149.689 529.98 201.587 c 1,2,3
 547.508 232.165 547.508 232.165 542.294 266.102 c 0,4,5
 536.252 305.425 536.252 305.425 510.138 335.463 c 0,6,7
 484.294 365.189 484.294 365.189 443.171 377.028 c 0,8,9
 396.202 390.55 396.202 390.55 354.61 385.601 c 0,10,11
 308.852 380.155 308.852 380.155 282.463 369.257 c 0,12,13
 250.886 356.216 250.886 356.216 240.466 342.23 c 128,-1,14
 230.047 328.245 230.047 328.245 230 304.904 c 0,15,16
 229.878 244.558 229.878 244.558 281.248 189.703 c 0,17,18
 329.303 138.389 329.303 138.389 392.318 139.764 c 1,0,1
398.584 9.89355 m 0,19,20
 275.522 5.62988 275.522 5.62988 186.36 100.842 c 0,21,22
 99.7754 193.302 99.7754 193.302 100.001 305.17 c 0,23,24
 100.128 367.935 100.128 367.935 136.035 416.099 c 128,-1,25
 171.943 464.263 171.943 464.263 232.839 489.413 c 0,26,27
 275.744 507.133 275.744 507.133 339.248 514.689 c 0,28,29
 406.924 522.743 406.924 522.743 479.136 501.954 c 0,30,31
 557.188 479.484 557.188 479.484 608.248 420.753 c 0,32,33
 659.033 362.338 659.033 362.338 670.785 285.848 c 0,34,35
 683.228 204.87 683.228 204.87 640.295 132.742 c 1,36,37
 570.325 25.5605 570.325 25.5605 402.279 10.127 c 0,38,39
 400.435 9.95801 400.435 9.95801 398.584 9.89355 c 0,19,20
EndSplineSet
EndChar

StartChar: ml_a
Encoding: 40 3333 41
Width: 2371
GlyphClass: 2
Flags: MW
LayerCount: 2
Fore
SplineSet
594.218 560.788 m 1,0,1
 546.41 573.632 546.41 573.632 540.546 616.509 c 0,2,3
 536.862 643.443 536.862 643.443 546.593 656.258 c 128,-1,4
 556.324 669.072 556.324 669.072 571.814 690.104 c 0,5,6
 655.286 803.438 655.286 803.438 621.286 863.886 c 0,7,8
 606.93 889.411 606.93 889.411 529.024 890.515 c 128,-1,9
 451.119 891.618 451.119 891.618 364.619 831.78 c 0,10,11
 255.568 756.343 255.568 756.343 234.711 629.472 c 0,12,13
 197.704 404.356 197.704 404.356 451.33 100.431 c 0,14,15
 468.349 80.0332 468.349 80.0332 465.903 52.9629 c 128,-1,16
 463.459 25.8926 463.459 25.8926 443.07 8.87793 c 128,-1,17
 422.685 -8.13672 422.685 -8.13672 395.61 -5.69629 c 128,-1,18
 368.537 -3.25586 368.537 -3.25586 351.519 17.1377 c 0,19,20
 59.7754 366.739 59.7754 366.739 106.433 650.559 c 0,21,22
 136.238 831.868 136.238 831.868 290.661 938.692 c 0,23,24
 411.369 1022.19 411.369 1022.19 547.467 1020.27 c 128,-1,25
 683.565 1018.34 683.565 1018.34 737.87 921.79 c 0,26,27
 765.314 872.998 765.314 872.998 760.899 812.418 c 1,28,29
 847.824 906.848 847.824 906.848 943.385 953.293 c 128,-1,30
 1038.95 999.739 1038.95 999.739 1129.11 978.44 c 0,31,32
 1296.36 938.935 1296.36 938.935 1363.8 674.285 c 1,33,34
 1475.87 905.119 1475.87 905.119 1672.85 976.965 c 0,35,36
 1847.03 1040.49 1847.03 1040.49 2015.87 946.128 c 128,-1,37
 2184.72 851.764 2184.72 851.764 2250.27 604.434 c 128,-1,38
 2315.83 357.103 2315.83 357.103 2179.43 181.087 c 0,39,40
 2086.44 61.0918 2086.44 61.0918 1941.31 21.5771 c 128,-1,41
 1796.19 -17.9375 1796.19 -17.9375 1695.48 42.3232 c 0,42,43
 1632.91 79.7607 1632.91 79.7607 1609.65 145.254 c 0,44,45
 1563.12 276.208 1563.12 276.208 1672.43 464.131 c 0,46,47
 1711.28 531.135 1711.28 531.135 1778.33 580.17 c 0,48,49
 1904.96 672.779 1904.96 672.779 2027.57 612.963 c 0,50,51
 2097.67 578.766 2097.67 578.766 2139.47 492.389 c 1,52,53
 2134.58 539.689 2134.58 539.689 2118.33 592.877 c 0,54,55
 2064.2 770.193 2064.2 770.193 1949.9 834.071 c 128,-1,56
 1835.61 897.949 1835.61 897.949 1712.19 852.935 c 128,-1,57
 1588.77 807.92 1588.77 807.92 1507.83 667.911 c 128,-1,58
 1426.89 527.902 1426.89 527.902 1406.1 349.288 c 1,59,60
 1411.95 217.01 1411.95 217.01 1405.93 56.3506 c 0,61,62
 1404.93 29.8154 1404.93 29.8154 1385 11.3262 c 128,-1,63
 1365.07 -7.16406 1365.07 -7.16406 1339.45 -6.20508 c 128,-1,64
 1313.84 -5.24512 1313.84 -5.24512 1296.08 12.8926 c 128,-1,65
 1278.32 31.0303 1278.32 31.0303 1276.26 52.627 c 0,66,67
 1260.9 214.12 1260.9 214.12 1275.77 353.499 c 1,68,69
 1260.31 672.896 1260.31 672.896 1173.85 795.786 c 0,70,71
 1137.93 846.833 1137.93 846.833 1099.84 855.842 c 128,-1,72
 1061.74 864.85 1061.74 864.85 998.698 835.251 c 0,73,74
 893.744 784.669 893.744 784.669 794.916 648.548 c 1,75,76
 922.131 602.765 922.131 602.765 994.294 519.019 c 0,77,78
 1028.63 479.165 1028.63 479.165 1040.13 439.685 c 0,79,80
 1097.86 241.344 1097.86 241.344 1009.32 107.783 c 0,81,82
 942.796 7.44043 942.796 7.44043 826.474 -5.4082 c 128,-1,83
 710.152 -18.2568 710.152 -18.2568 628.949 79.791 c 0,84,85
 521.938 209 521.938 209 563.234 456.778 c 0,86,87
 571.543 506.632 571.543 506.632 594.218 560.788 c 1,0,1
725.132 534.836 m 1,88,89
 699.089 481.139 699.089 481.139 691.466 435.407 c 0,90,91
 659.925 246.195 659.925 246.195 729.07 162.711 c 0,92,93
 765.559 118.655 765.559 118.655 816.799 124.313 c 128,-1,94
 868.057 129.976 868.057 129.976 900.964 179.614 c 0,95,96
 956.188 262.912 956.188 262.912 915.308 403.351 c 0,97,98
 905.754 436.172 905.754 436.172 851.85 474.265 c 128,-1,99
 797.945 512.359 797.945 512.359 725.132 534.836 c 1,88,89
2108.57 310.605 m 1,100,101
 2054.47 311.218 2054.47 311.218 2041.89 379.548 c 0,102,103
 2034.84 417.874 2034.84 417.874 2014.13 451.427 c 128,-1,104
 1993.41 484.98 1993.41 484.98 1970.21 496.299 c 0,105,106
 1918.42 521.569 1918.42 521.569 1869.12 485.513 c 128,-1,107
 1819.82 449.457 1819.82 449.457 1783.67 396.81 c 1,108,109
 1740.55 321.953 1740.55 321.953 1730.96 267.216 c 128,-1,110
 1721.38 212.479 1721.38 212.479 1729.1 190.779 c 128,-1,111
 1736.83 169.078 1736.83 169.078 1762.23 153.877 c 0,112,113
 1815.45 122.038 1815.45 122.038 1912.88 148.568 c 0,114,115
 2043.46 184.124 2043.46 184.124 2108.57 310.605 c 1,100,101
EndSplineSet
EndChar

StartChar: ml_aa
Encoding: 41 3334 42
Width: 2686
GlyphClass: 2
Flags: MW
LayerCount: 2
Fore
SplineSet
1771.2 522.284 m 4,0,1
 1910.71 713.833 1910.71 713.833 2064.4 767.999 c 5,2,3
 2031.69 823.979 2031.69 823.979 1986.11 858.357 c 4,4,5
 1943.73 890.334 1943.73 890.334 1902.16 897.387 c 132,-1,6
 1860.59 904.44 1860.59 904.44 1812.18 888.2 c 4,7,8
 1703.85 852.202 1703.85 852.202 1625.94 711.985 c 4,9,10
 1574.45 619.307 1574.45 619.307 1547.17 500.63 c 4,11,12
 1529.21 422.499 1529.21 422.499 1521.73 332.528 c 5,13,14
 1525.52 214.032 1525.52 214.032 1520.34 75.9717 c 4,15,16
 1519.35 49.4365 1519.35 49.4365 1499.42 30.9473 c 132,-1,17
 1479.49 12.457 1479.49 12.457 1452.96 13.4512 c 4,18,19
 1428 14.3857 1428 14.3857 1409.97 32.5166 c 132,-1,20
 1391.95 50.6475 1391.95 50.6475 1390.51 74.4824 c 4,21,22
 1382.1 213.705 1382.1 213.705 1391.55 335.551 c 5,23,24
 1388.15 432.918 1388.15 432.918 1378.33 514.603 c 4,25,26
 1368.89 593.089 1368.89 593.089 1353.36 657.873 c 4,27,28
 1299.24 881.633 1299.24 881.633 1190.12 892.422 c 4,29,30
 1098.81 901.449 1098.81 901.449 977.628 783.464 c 4,31,32
 890.037 698.188 890.037 698.188 830.587 590.28 c 5,33,34
 1032.18 565.788 1032.18 565.788 1108.19 455.102 c 5,35,36
 1147.27 393.96 1147.27 393.96 1146.67 328.134 c 132,-1,37
 1146.08 262.309 1146.08 262.309 1110.7 193.271 c 4,38,39
 1057.37 89.1709 1057.37 89.1709 958.458 27.126 c 4,40,41
 831.49 -52.5225 831.49 -52.5225 732.588 3.3457 c 4,42,43
 657.148 45.96 657.148 45.96 637.117 139.087 c 132,-1,44
 617.087 232.215 617.087 232.215 635.086 368.614 c 4,45,46
 641.176 414.76 641.176 414.76 651.757 466.396 c 5,47,48
 640.633 465.987 640.633 465.987 629.852 465.446 c 4,49,50
 604.444 464.171 604.444 464.171 584.922 480.479 c 4,51,52
 564.544 497.503 564.544 497.503 562.114 524.58 c 132,-1,53
 559.686 551.657 559.686 551.657 576.709 572.035 c 4,54,55
 594.217 592.994 594.217 592.994 609.106 613.341 c 4,56,57
 627.57 638.573 627.57 638.573 641.956 662.791 c 4,58,59
 720.316 794.702 720.316 794.702 671.982 870.209 c 4,60,61
 637.146 924.63 637.146 924.63 550.899 936.929 c 4,62,63
 450.284 951.276 450.284 951.276 361.698 898.744 c 4,64,65
 255.388 835.701 255.388 835.701 234.766 706.195 c 4,66,67
 196.582 466.408 196.582 466.408 458.651 98.4961 c 4,68,69
 474.062 76.8584 474.062 76.8584 469.557 50.0537 c 132,-1,70
 465.051 23.25 465.051 23.25 443.422 7.84277 c 132,-1,71
 421.796 -7.56543 421.796 -7.56543 394.987 -3.06348 c 132,-1,72
 368.179 1.43848 368.179 1.43848 352.769 23.0723 c 4,73,74
 59.832 434.308 59.832 434.308 106.383 726.64 c 4,75,76
 136.601 916.398 136.601 916.398 295.391 1010.56 c 4,77,78
 422.823 1086.13 422.823 1086.13 569.312 1065.62 c 4,79,80
 714.807 1044.44 714.807 1044.44 781.473 940.294 c 4,81,82
 820.432 879.433 820.432 879.433 820.717 805.236 c 5,83,84
 852.126 842.712 852.126 842.712 886.94 876.607 c 4,85,86
 1051.44 1036.77 1051.44 1036.77 1202.91 1021.79 c 4,87,88
 1399.57 1002.35 1399.57 1002.35 1476.34 702.062 c 5,89,90
 1492.83 740.066 1492.83 740.066 1512.31 775.125 c 4,91,92
 1614.81 959.601 1614.81 959.601 1771.18 1011.57 c 4,93,94
 1848.44 1037.09 1848.44 1037.09 1923.66 1024.33 c 132,-1,95
 1998.88 1011.57 1998.88 1011.57 2064.4 962.141 c 4,96,97
 2149.12 898.235 2149.12 898.235 2199.77 789.111 c 5,98,99
 2346.77 783.922 2346.77 783.922 2456.06 661.424 c 4,100,101
 2566.06 538.132 2566.06 538.132 2583.53 360.137 c 4,102,103
 2604.34 148.073 2604.34 148.073 2479.45 -19.2568 c 4,104,105
 2310.46 -245.663 2310.46 -245.663 1937.77 -290.549 c 4,106,107
 1881.1 -297.374 1881.1 -297.374 1820.31 -299.68 c 4,108,109
 1793.77 -300.688 1793.77 -300.688 1773.83 -282.21 c 132,-1,110
 1753.9 -263.734 1753.9 -263.734 1752.89 -237.19 c 132,-1,111
 1751.88 -210.648 1751.88 -210.648 1770.36 -190.714 c 132,-1,112
 1788.84 -170.78 1788.84 -170.78 1815.38 -169.773 c 4,113,114
 1870.84 -167.67 1870.84 -167.67 1922.23 -161.481 c 4,115,116
 2239.61 -123.258 2239.61 -123.258 2375.26 58.5 c 4,117,118
 2470.04 185.484 2470.04 185.484 2454.15 347.448 c 4,119,120
 2440.83 483.229 2440.83 483.229 2359.05 574.885 c 4,121,122
 2307.03 633.189 2307.03 633.189 2245.87 651.249 c 5,123,124
 2251.12 628.314 2251.12 628.314 2255.31 604.553 c 4,125,126
 2255.85 601.505 2255.85 601.505 2256.38 598.361 c 4,127,128
 2304.58 313.344 2304.58 313.344 2181.5 141.337 c 4,129,130
 2096.98 23.21 2096.98 23.21 1967.25 2.26367 c 4,131,132
 1841.03 -18.1162 1841.03 -18.1162 1756.44 63.6475 c 4,133,134
 1654.15 162.525 1654.15 162.525 1694.02 337.398 c 4,135,136
 1713.63 423.418 1713.63 423.418 1769.23 518.994 c 4,137,138
 1769.48 519.412 1769.48 519.412 1771.2 522.284 c 4,0,1
784.224 464.292 m 5,139,140
 770.834 403.643 770.834 403.643 763.969 351.608 c 4,141,142
 752.221 272.277 752.221 272.277 757.936 220.897 c 132,-1,143
 763.65 169.518 763.65 169.518 773.491 146.753 c 132,-1,144
 783.332 123.988 783.332 123.988 796.525 116.536 c 4,145,146
 828.006 98.7539 828.006 98.7539 889.377 137.252 c 4,147,148
 957.98 180.287 957.98 180.287 995.007 252.552 c 4,149,150
 1017.72 296.879 1017.72 296.879 1018 328.747 c 132,-1,151
 1018.28 360.614 1018.28 360.614 1001.02 381.507 c 5,152,153
 953.635 450.515 953.635 450.515 784.224 464.292 c 5,139,140
2112.94 647.188 m 5,154,155
 1995.51 608.724 1995.51 608.724 1879.95 450.78 c 5,156,157
 1835.62 373.649 1835.62 373.649 1820.77 308.5 c 4,158,159
 1797.19 205.068 1797.19 205.068 1846.79 157.117 c 4,160,161
 1884.57 120.599 1884.57 120.599 1946.53 130.603 c 4,162,163
 2022.78 142.913 2022.78 142.913 2075.78 216.987 c 4,164,165
 2167.41 345.034 2167.41 345.034 2128.2 576.668 c 4,166,167
 2127.75 579.354 2127.75 579.354 2127.28 582.026 c 4,168,169
 2121.3 615.967 2121.3 615.967 2112.94 647.188 c 5,154,155
EndSplineSet
EndChar

StartChar: ml_i
Encoding: 42 3335 43
Width: 1680
GlyphClass: 2
Flags: MW
LayerCount: 2
Fore
SplineSet
231.677 417.319 m 1,0,1
 360.019 521.414 360.019 521.414 517.537 433.436 c 0,2,3
 597.081 389.008 597.081 389.008 642.144 276.653 c 128,-1,4
 687.206 164.3 687.206 164.3 627.054 75.1074 c 0,5,6
 590.922 21.5312 590.922 21.5312 527.623 2.84863 c 0,7,8
 423.167 -27.9834 423.167 -27.9834 326.694 13.0811 c 0,9,10
 156.84 85.3848 156.84 85.3848 105.875 361.47 c 0,11,12
 92.125 435.946 92.125 435.946 110.557 534.732 c 0,13,14
 146.343 726.54 146.343 726.54 264.704 861.194 c 128,-1,15
 383.064 995.848 383.064 995.848 532.72 982.718 c 0,16,17
 614.435 975.548 614.435 975.548 687.333 917.08 c 1,18,19
 787.488 842.74 787.488 842.74 831.093 706.883 c 1,20,21
 904.07 881.63 904.07 881.63 1022.28 949.666 c 0,22,23
 1161.51 1029.02 1161.51 1029.02 1291.1 949.619 c 128,-1,24
 1420.69 870.215 1420.69 870.215 1478.07 711.155 c 0,25,26
 1552.96 503.559 1552.96 503.559 1478.87 275.674 c 0,27,28
 1428.2 117.897 1428.2 117.897 1318.17 6.41211 c 0,29,30
 1242.57 -70.2021 1242.57 -70.2021 1076.05 -123.048 c 0,31,32
 982.437 -152.76 982.437 -152.76 866.631 -158.004 c 128,-1,33
 750.826 -163.249 750.826 -163.249 595.463 -167.083 c 0,34,35
 280.148 -174.866 280.148 -174.866 242.836 -252.78 c 1,36,37
 247.666 -277.756 247.666 -277.756 314.051 -309.938 c 128,-1,38
 380.436 -342.119 380.436 -342.119 507.009 -343.899 c 1,39,40
 630.576 -334.304 630.576 -334.304 890.193 -295.894 c 0,41,42
 1313.03 -233.335 1313.03 -233.335 1524.54 -261.803 c 0,43,44
 1550.85 -265.345 1550.85 -265.345 1567.34 -286.956 c 128,-1,45
 1583.83 -308.567 1583.83 -308.567 1580.29 -334.892 c 128,-1,46
 1576.74 -361.216 1576.74 -361.216 1555.13 -377.699 c 128,-1,47
 1533.52 -394.184 1533.52 -394.184 1488.05 -388.064 c 0,48,49
 1313.88 -364.622 1313.88 -364.622 847.764 -433.586 c 0,50,51
 570.774 -474.567 570.774 -474.567 500.999 -473.85 c 0,52,53
 268.421 -471.458 268.421 -471.458 162.805 -363.332 c 0,54,55
 111.608 -310.92 111.608 -310.92 112.63 -261.367 c 0,56,57
 115.663 -114.046 115.663 -114.046 332.713 -62.7246 c 0,58,59
 423.355 -41.293 423.355 -41.293 683.896 -34.8613 c 128,-1,60
 944.438 -28.4297 944.438 -28.4297 1058.52 7.77832 c 128,-1,61
 1172.61 43.9863 1172.61 43.9863 1216.82 88.7832 c 0,62,63
 1315.67 188.946 1315.67 188.946 1355.74 317.45 c 0,64,65
 1414.8 503.461 1414.8 503.461 1355.79 667.034 c 0,66,67
 1313.88 783.197 1313.88 783.197 1236.03 830.899 c 128,-1,68
 1158.18 878.602 1158.18 878.602 1087.12 836.994 c 0,69,70
 967.572 768.184 967.572 768.184 904.151 510.188 c 0,71,72
 903.678 508.258 903.678 508.258 890.001 464.394 c 128,-1,73
 876.324 420.53 876.324 420.53 886.705 299.492 c 128,-1,74
 897.086 178.453 897.086 178.453 886.525 69.6074 c 0,75,76
 884.223 45.8623 884.223 45.8623 865.561 28.3916 c 128,-1,77
 846.896 10.9199 846.896 10.9199 821.136 10.8818 c 128,-1,78
 795.373 10.8438 795.373 10.8438 776.121 30.0381 c 128,-1,79
 756.869 49.2324 756.869 49.2324 756.83 75.7861 c 0,80,81
 756.338 411.64 756.338 411.64 735.591 544.755 c 128,-1,82
 714.844 677.87 714.844 677.87 679.697 732.582 c 128,-1,83
 644.554 787.294 644.554 787.294 609.192 813.176 c 0,84,85
 607.849 814.159 607.849 814.159 606.556 815.212 c 0,86,87
 484.604 914.457 484.604 914.457 354.508 766.451 c 0,88,89
 267.582 667.56 267.582 667.56 239.997 519.714 c 0,90,91
 230.204 467.222 230.204 467.222 231.677 417.319 c 1,0,1
253.971 305.139 m 1,92,93
 285.143 211.188 285.143 211.188 341.83 156.392 c 128,-1,94
 398.518 101.596 398.518 101.596 485.072 124.74 c 1,95,96
 554.023 147.128 554.023 147.128 517.916 237.163 c 0,97,98
 493.431 298.217 493.431 298.217 436.253 331.294 c 128,-1,99
 379.076 364.372 379.076 364.372 311.593 314.851 c 0,100,101
 285.685 295.839 285.685 295.839 253.971 305.139 c 1,92,93
EndSplineSet
EndChar

StartChar: ml_u
Encoding: 44 3337 45
Width: 1211
GlyphClass: 2
Flags: MW
LayerCount: 2
Fore
SplineSet
290.11 607.235 m 1,0,1
 265.38 506.51 265.38 506.51 295.144 454.361 c 128,-1,2
 324.908 402.213 324.908 402.213 361.347 390.067 c 128,-1,3
 397.786 377.921 397.786 377.921 439.808 402.939 c 128,-1,4
 481.83 427.957 481.83 427.957 501.464 484.606 c 128,-1,5
 521.098 541.255 521.098 541.255 499.839 570.621 c 128,-1,6
 478.579 599.987 478.579 599.987 374.647 562.994 c 0,7,8
 349.623 554.087 349.623 554.087 323.822 566.344 c 128,-1,9
 298.021 578.602 298.021 578.602 290.11 607.235 c 1,0,1
315.47 677.408 m 1,10,11
 322.865 682.553 322.865 682.553 331.052 685.467 c 0,12,13
 526.755 755.124 526.755 755.124 608.084 642.789 c 0,14,15
 666.099 562.655 666.099 562.655 627.61 451.597 c 128,-1,16
 589.122 340.539 589.122 340.539 501.133 288.154 c 128,-1,17
 413.144 235.769 413.144 235.769 324.893 265.186 c 128,-1,18
 236.642 294.603 236.642 294.603 190.294 375.81 c 0,19,20
 114.302 508.954 114.302 508.954 178.745 687.471 c 0,21,22
 219.228 799.615 219.228 799.615 312.079 881.128 c 0,23,24
 442.341 994.474 442.341 994.474 619.098 996.826 c 128,-1,25
 795.856 999.178 795.856 999.178 932.787 860.247 c 128,-1,26
 1069.72 721.316 1069.72 721.316 1081.71 454.549 c 0,27,28
 1088.33 307.513 1088.33 307.513 1021.82 195.974 c 0,29,30
 974.275 116.241 974.275 116.241 837.686 53.804 c 0,31,32
 761.563 19.0072 761.563 19.0072 662.086 4.51876 c 128,-1,33
 562.609 -9.96966 562.609 -9.96966 482.656 -19.8849 c 0,34,35
 186.365 -56.6284 186.365 -56.6284 133.398 -112.809 c 1,36,37
 157.283 -131.83 157.283 -131.83 220.972 -143.355 c 128,-1,38
 284.66 -154.88 284.66 -154.88 331.768 -153.067 c 128,-1,39
 378.877 -151.254 378.877 -151.254 481.958 -142.561 c 0,40,41
 1008.17 -98.1863 1008.17 -98.1863 1305.9 -130.659 c 0,42,43
 1332.3 -133.538 1332.3 -133.538 1349.32 -154.728 c 128,-1,44
 1366.35 -175.918 1366.35 -175.918 1363.47 -202.323 c 128,-1,45
 1360.59 -228.728 1360.59 -228.728 1339.4 -245.75 c 128,-1,46
 1318.2 -262.771 1318.2 -262.771 1291.8 -259.892 c 0,47,48
 1006.61 -228.787 1006.61 -228.787 486.42 -272.646 c 0,49,50
 376.087 -281.949 376.087 -281.949 326.064 -283.69 c 128,-1,51
 276.04 -285.432 276.04 -285.432 197.656 -271.247 c 0,52,53
 20.8151 -239.246 20.8151 -239.246 1.93938 -134.437 c 0,54,55
 -18.8349 -19.0864 -18.8349 -19.0864 161.282 48.3431 c 0,56,57
 236.754 76.5971 236.754 76.5971 310.873 87.7983 c 128,-1,58
 384.992 98.9994 384.992 98.9994 548.891 119.325 c 128,-1,59
 712.789 139.65 712.789 139.65 798.082 178.638 c 128,-1,60
 883.374 217.627 883.374 217.627 905.966 255.517 c 0,61,62
 956.706 340.612 956.706 340.612 951.845 448.711 c 0,63,64
 942.091 665.611 942.091 665.611 831.778 777.536 c 0,65,66
 742.171 868.453 742.171 868.453 616.736 866.783 c 128,-1,67
 491.301 865.114 491.301 865.114 397.616 783.232 c 0,68,69
 344.766 737.039 344.766 737.039 315.47 677.408 c 1,10,11
EndSplineSet
EndChar

StartChar: ml_r
Encoding: 46 3339 47
Width: 1863
GlyphClass: 2
Flags: MW
LayerCount: 2
Fore
SplineSet
759.646 539.073 m 5,0,1
 853.22 499.941 853.22 499.941 1027.96 432.979 c 5,2,3
 1162.09 489.63 1162.09 489.63 1278.9 541.521 c 5,4,5
 1053.13 721.621 1053.13 721.621 1070.85 843.555 c 132,-1,6
 1088.56 965.487 1088.56 965.487 1227.86 986.087 c 132,-1,7
 1367.15 1006.69 1367.15 1006.69 1509.6 956.822 c 132,-1,8
 1652.06 906.959 1652.06 906.959 1689.67 806.2 c 4,9,10
 1747.2 652.107 1747.2 652.107 1514.17 507.951 c 4,11,12
 1476.61 484.71 1476.61 484.71 1199.68 365.008 c 5,13,14
 1554.76 220.154 1554.76 220.154 1652.81 136.342 c 132,-1,15
 1750.87 52.5293 1750.87 52.5293 1761.31 -34.1475 c 4,16,17
 1783.16 -215.487 1783.16 -215.487 1581.81 -313.076 c 132,-1,18
 1380.46 -410.666 1380.46 -410.666 1095.64 -410.727 c 132,-1,19
 810.829 -410.788 810.829 -410.788 579.995 -313.548 c 132,-1,20
 349.161 -216.309 349.161 -216.309 343.697 -22.6201 c 4,21,22
 340.45 92.4971 340.45 92.4971 564.126 216.151 c 4,23,24
 674.094 276.944 674.094 276.944 857.216 359.169 c 5,25,26
 231.945 604.818 231.945 604.818 133.579 743.497 c 4,27,28
 73.2852 828.501 73.2852 828.501 121.254 888.642 c 132,-1,29
 169.223 948.781 169.223 948.781 234.494 966.299 c 132,-1,30
 299.767 983.817 299.767 983.817 446.538 987.562 c 132,-1,31
 593.31 991.309 593.31 991.309 714.216 952.057 c 4,32,33
 1009.9 856.062 1009.9 856.062 945.578 708.548 c 4,34,35
 905.189 615.924 905.189 615.924 759.646 539.073 c 5,0,1
1030.01 292.784 m 5,36,37
 497.884 67.124 497.884 67.124 473.67 -19.7773 c 5,38,39
 477.867 -129.466 477.867 -129.466 657.478 -205.124 c 132,-1,40
 837.087 -280.782 837.087 -280.782 1093.84 -280.728 c 132,-1,41
 1350.6 -280.673 1350.6 -280.673 1466.65 -224.426 c 4,42,43
 1727.12 -98.1895 1727.12 -98.1895 1599.4 10.9814 c 132,-1,44
 1471.67 120.152 1471.67 120.152 1030.01 292.784 c 5,36,37
238.724 825.6 m 5,45,46
 285.699 751.219 285.699 751.219 601.729 607.538 c 5,47,48
 607.095 610.831 607.095 610.831 633.873 622.326 c 132,-1,49
 660.651 633.821 660.651 633.821 711.973 662.188 c 132,-1,50
 763.294 690.557 763.294 690.557 794.55 720.789 c 132,-1,51
 825.806 751.021 825.806 751.021 815.072 761.98 c 4,52,53
 714.799 864.367 714.799 864.367 404.51 856.448 c 4,54,55
 277.539 853.207 277.539 853.207 238.724 825.6 c 5,45,46
1412.65 602.834 m 5,56,57
 1528.65 658.16 1528.65 658.16 1564.15 725.302 c 4,58,59
 1571.2 738.622 1571.2 738.622 1569.9 746.336 c 132,-1,60
 1568.6 754.051 1568.6 754.051 1567.88 760.73 c 5,61,62
 1551.58 804.395 1551.58 804.395 1453.02 838.895 c 132,-1,63
 1354.46 873.396 1354.46 873.396 1278.88 862.219 c 132,-1,64
 1203.3 851.041 1203.3 851.041 1201.57 839.146 c 4,65,66
 1190.98 766.232 1190.98 766.232 1412.65 602.834 c 5,56,57
EndSplineSet
EndChar

StartChar: ml_l
Encoding: 47 3340 48
Width: 1909
GlyphClass: 2
Flags: MW
LayerCount: 2
Fore
SplineSet
897.772 70.9414 m 1,0,1
 878.439 202.226 878.439 202.226 896.334 499.092 c 1,2,3
 895.243 517.129 895.243 517.129 878.46 576.744 c 0,4,5
 813.013 809.22 813.013 809.22 674.076 868.513 c 0,6,7
 588.566 905.005 588.566 905.005 491.47 856.533 c 0,8,9
 340.71 781.269 340.71 781.269 257.479 558.979 c 1,10,11
 371.111 630.789 371.111 630.789 471.904 599.305 c 0,12,13
 593.46 561.336 593.46 561.336 621.762 430.694 c 0,14,15
 635.25 368.419 635.25 368.419 622.502 295.055 c 0,16,17
 585.169 80.2158 585.169 80.2158 457.553 28.4199 c 1,18,19
 343.421 -12.8311 343.421 -12.8311 242.524 73.834 c 128,-1,20
 141.628 160.499 141.628 160.499 112.718 300.976 c 128,-1,21
 83.8066 441.452 83.8066 441.452 115.882 545.798 c 0,22,23
 179.687 753.365 179.687 753.365 304.122 878.168 c 128,-1,24
 428.558 1002.97 428.558 1002.97 579.725 1013.96 c 128,-1,25
 730.892 1024.95 730.892 1024.95 854.296 897.331 c 0,26,27
 918.37 831.067 918.37 831.067 965.974 719.612 c 1,28,29
 1034.23 858.727 1034.23 858.727 1147.18 937.035 c 0,30,31
 1298.13 1041.69 1298.13 1041.69 1462.91 1006.14 c 128,-1,32
 1627.69 970.579 1627.69 970.579 1724.34 831.52 c 128,-1,33
 1820.98 692.459 1820.98 692.459 1809.38 510.245 c 128,-1,34
 1797.78 328.03 1797.78 328.03 1760.01 217.136 c 128,-1,35
 1722.24 106.24 1722.24 106.24 1646.08 50.6328 c 0,36,37
 1595.73 13.8711 1595.73 13.8711 1536.2 12.9326 c 128,-1,38
 1476.66 11.9941 1476.66 11.9941 1423.93 45.6475 c 0,39,40
 1336.39 100.356 1336.39 100.356 1302.96 204.682 c 128,-1,41
 1269.53 309.007 1269.53 309.007 1301.96 388.03 c 0,42,43
 1363.07 536.954 1363.07 536.954 1459.86 583.368 c 128,-1,44
 1556.64 629.782 1556.64 629.782 1663.38 592.438 c 0,45,46
 1676.2 587.95 1676.2 587.95 1677.57 587.474 c 1,47,48
 1667.71 685.2 1667.71 685.2 1608.95 769.756 c 128,-1,49
 1550.18 854.312 1550.18 854.312 1438.01 878.518 c 128,-1,50
 1325.84 902.722 1325.84 902.722 1213.88 825.094 c 0,51,52
 1079.96 732.245 1079.96 732.245 1026.64 497.908 c 1,53,54
 1047.59 149.727 1047.59 149.727 1035.38 63.5391 c 1,55,56
 1050.26 37.1455 1050.26 37.1455 1019.5 14.2539 c 0,57,58
 1007.15 5.05664 1007.15 5.05664 986.823 -1.22754 c 0,59,60
 904.921 -26.5498 904.921 -26.5498 897.109 41.3662 c 1,61,-1
 897.772 70.9414 l 1,0,1
1673.82 444.983 m 1,62,63
 1669.62 446.999 1669.62 446.999 1658.78 453.562 c 0,64,65
 1584.08 498.762 1584.08 498.762 1511.18 463.808 c 0,66,67
 1464.36 441.354 1464.36 441.354 1427.98 352.698 c 0,68,69
 1407.8 303.522 1407.8 303.522 1426.73 244.443 c 128,-1,70
 1445.66 185.365 1445.66 185.365 1482.25 162.85 c 128,-1,71
 1518.85 140.333 1518.85 140.333 1533.99 140.573 c 128,-1,72
 1549.14 140.814 1549.14 140.814 1576.94 161.117 c 128,-1,73
 1604.75 181.421 1604.75 181.421 1633.14 254 c 128,-1,74
 1661.54 326.579 1661.54 326.579 1673.82 444.983 c 1,62,63
230.598 436.997 m 1,75,76
 227.945 385.985 227.945 385.985 238.044 336.919 c 0,77,78
 260.011 230.187 260.011 230.187 318.302 180.116 c 128,-1,79
 376.593 130.047 376.593 130.047 408.663 148.876 c 1,80,81
 469.438 173.544 469.438 173.544 493.365 311.238 c 128,-1,82
 517.293 448.932 517.293 448.932 433.143 475.219 c 0,83,84
 381.7 491.286 381.7 491.286 309.122 436.71 c 0,85,86
 270.308 407.672 270.308 407.672 230.598 436.997 c 1,75,76
EndSplineSet
EndChar

StartChar: ml_e
Encoding: 48 3342 49
Width: 2480
GlyphClass: 2
Flags: MW
LayerCount: 2
Fore
SplineSet
330.118 25.4629 m 128,-1,1
 311.341 6.68457 311.341 6.68457 284.16 6.68262 c 128,-1,2
 256.979 6.68066 256.979 6.68066 238.194 25.4629 c 0,3,4
 57.7881 205.869 57.7881 205.869 112.894 384.264 c 0,5,6
 149.189 501.766 149.189 501.766 272.074 568.501 c 0,7,8
 391.259 633.226 391.259 633.226 509.689 609.932 c 0,9,10
 575.613 596.965 575.613 596.965 622.413 555.584 c 128,-1,11
 669.213 514.203 669.213 514.203 687.964 451 c 0,12,13
 726.952 319.58 726.952 319.58 639.177 123.317 c 1,14,-1
 1101.22 101.909 l 2,15,16
 1107.13 101.724 1107.13 101.724 1112.98 101.554 c 1,17,18
 1095 231.52 1095 231.52 1116.33 368.112 c 0,19,20
 1125.94 429.68 1125.94 429.68 1144.02 489.092 c 0,21,22
 1259.69 850.539 1259.69 850.539 1499.6 1006.77 c 0,23,24
 1695.21 1134.15 1695.21 1134.15 1913.03 1092.23 c 0,25,26
 2106.24 1055.05 2106.24 1055.05 2235.82 900.325 c 0,27,28
 2385.5 721.607 2385.5 721.607 2380.12 468.172 c 0,29,30
 2372.95 130.98 2372.95 130.98 2086.29 -216.957 c 0,31,32
 2010.48 -308.74 2010.48 -308.74 1917.48 -397.7 c 0,33,34
 1898.29 -416.057 1898.29 -416.057 1871.11 -415.456 c 128,-1,35
 1843.94 -414.855 1843.94 -414.855 1825.58 -395.662 c 128,-1,36
 1807.22 -376.466 1807.22 -376.466 1807.82 -349.291 c 128,-1,37
 1808.42 -322.117 1808.42 -322.117 1827.61 -303.761 c 0,38,39
 1915.51 -219.68 1915.51 -219.68 1985.96 -134.285 c 0,40,41
 2243.93 178.423 2243.93 178.423 2250.15 470.943 c 0,42,43
 2254.49 675.564 2254.49 675.564 2136.16 816.856 c 0,44,45
 2036.27 936.12 2036.27 936.12 1888.46 964.575 c 0,46,47
 1722.19 996.583 1722.19 996.583 1570.54 897.831 c 0,48,49
 1369.75 767.07 1369.75 767.07 1268.12 450.369 c 0,50,51
 1252.91 400.162 1252.91 400.162 1244.77 348.055 c 0,52,53
 1224.83 220.35 1224.83 220.35 1244.8 99.8008 c 1,54,55
 1437.02 100.784 1437.02 100.784 1523.81 125.601 c 0,56,57
 1620.02 153.11 1620.02 153.11 1649.07 225.014 c 0,58,59
 1686.67 318.109 1686.67 318.109 1654.62 558.387 c 0,60,61
 1644.1 637.271 1644.1 637.271 1624.6 747.704 c 0,62,63
 1619.99 773.855 1619.99 773.855 1635.58 796.125 c 128,-1,64
 1651.16 818.396 1651.16 818.396 1677.32 823.011 c 128,-1,65
 1703.48 827.627 1703.48 827.627 1725.75 812.037 c 128,-1,66
 1748.01 796.448 1748.01 796.448 1752.63 770.296 c 0,67,68
 1772.61 657.105 1772.61 657.105 1783.48 575.577 c 0,69,70
 1809.4 381.209 1809.4 381.209 1791.62 261.838 c 1,71,72
 1792.68 254.606 1792.68 254.606 1792.06 246.883 c 0,73,74
 1774.62 30.1035 1774.62 30.1035 1730.7 -111.082 c 128,-1,75
 1686.79 -252.268 1686.79 -252.268 1605.62 -325.239 c 0,76,77
 1548.03 -377.014 1548.03 -377.014 1477.13 -380.886 c 128,-1,78
 1406.22 -384.757 1406.22 -384.757 1341.63 -341.097 c 0,79,80
 1229.63 -266.558 1229.63 -266.558 1162.69 -91.3076 c 0,81,82
 1150.91 -60.457 1150.91 -60.457 1141.52 -29.2031 c 1,83,84
 1119.33 -28.7227 1119.33 -28.7227 1096.18 -27.9971 c 0,85,86
 1094.78 -27.9316 1094.78 -27.9316 533.607 -1.93066 c 0,87,88
 518.643 -1.2373 518.643 -1.2373 505.491 5.93652 c 0,89,90
 482.18 18.6523 482.18 18.6523 474.509 44.7334 c 128,-1,91
 466.838 70.8145 466.838 70.8145 479.553 94.125 c 0,92,93
 595.03 305.835 595.03 305.835 563.305 414.123 c 0,94,95
 554.064 444.735 554.064 444.735 536.704 460.139 c 128,-1,96
 519.345 475.543 519.345 475.543 484.604 482.375 c 0,97,98
 412.13 496.627 412.13 496.627 334.114 454.26 c 0,99,100
 257.769 412.8 257.769 412.8 237.103 345.896 c 0,101,102
 205.127 242.381 205.127 242.381 330.118 117.387 c 0,103,104
 348.9 98.6006 348.9 98.6006 348.898 71.4209 c 128,-1,0
 348.896 44.2412 348.896 44.2412 330.118 25.4629 c 128,-1,1
1278.5 -29.6816 m 1,105,106
 1281.23 -37.3174 1281.23 -37.3174 1284.14 -44.9229 c 0,107,108
 1336.25 -181.356 1336.25 -181.356 1413.66 -232.878 c 0,109,110
 1448.65 -255.495 1448.65 -255.495 1470 -254.326 c 128,-1,111
 1491.35 -253.156 1491.35 -253.156 1518.71 -228.564 c 0,112,113
 1569.66 -182.76 1569.66 -182.76 1608.28 -59.4961 c 0,114,115
 1620.84 -19.4092 1620.84 -19.4092 1630.97 28.1094 c 1,116,117
 1598.46 11.7334 1598.46 11.7334 1559.55 0.609375 c 0,118,119
 1465.16 -26.3779 1465.16 -26.3779 1278.5 -29.6816 c 1,105,106
EndSplineSet
EndChar

StartChar: ml_ee
Encoding: 49 3343 50
Width: 2554
GlyphClass: 2
Flags: MW
LayerCount: 2
Fore
SplineSet
1062.72 107.158 m 1,0,1
 1049.48 248.403 1049.48 248.403 1073.59 408.147 c 1,2,3
 1165.27 825.303 1165.27 825.303 1431.86 969.361 c 0,4,5
 1634.85 1079.05 1634.85 1079.05 1881.56 1007.25 c 0,6,7
 2076.72 950.442 2076.72 950.442 2226.84 796.764 c 128,-1,8
 2376.97 643.085 2376.97 643.085 2376.63 464.131 c 0,9,10
 2376.47 404.254 2376.47 404.254 2341.72 337.135 c 128,-1,11
 2306.97 270.017 2306.97 270.017 2273.23 238.188 c 128,-1,12
 2239.5 206.358 2239.5 206.358 2207.6 183.706 c 1,13,14
 2270.97 156.063 2270.97 156.063 2336.11 107.438 c 0,15,16
 2449.32 22.9316 2449.32 22.9316 2454.1 -109.452 c 128,-1,17
 2458.89 -241.835 2458.89 -241.835 2371.78 -331.012 c 0,18,19
 2264.9 -440.445 2264.9 -440.445 2095.7 -413.161 c 0,20,21
 1980.68 -394.613 1980.68 -394.613 1857.4 -309.408 c 0,22,23
 1835.55 -294.31 1835.55 -294.31 1830.66 -267.573 c 128,-1,24
 1825.78 -240.836 1825.78 -240.836 1840.88 -218.98 c 128,-1,25
 1855.98 -197.129 1855.98 -197.129 1882.72 -192.247 c 128,-1,26
 1909.46 -187.364 1909.46 -187.364 1931.31 -202.463 c 0,27,28
 2030.4 -270.952 2030.4 -270.952 2124.71 -286.16 c 128,-1,29
 2219.02 -301.367 2219.02 -301.367 2272.99 -246.111 c 128,-1,30
 2326.96 -190.854 2326.96 -190.854 2324.31 -117.599 c 128,-1,31
 2321.66 -44.3428 2321.66 -44.3428 2255.78 4.9248 c 128,-1,32
 2189.91 54.1924 2189.91 54.1924 2120.72 77.6611 c 128,-1,33
 2051.54 101.129 2051.54 101.129 2007.56 79.3711 c 0,34,35
 2003.26 77.2715 2003.26 77.2715 1977.57 97.418 c 0,36,37
 1901.15 157.333 1901.15 157.333 1928.91 180.812 c 128,-1,38
 1956.68 204.293 1956.68 204.293 2038.32 238.297 c 0,39,40
 2225.37 316.204 2225.37 316.204 2246.6 468.344 c 1,41,42
 2244.66 592.483 2244.66 592.483 2126.13 713.825 c 128,-1,43
 2007.59 835.167 2007.59 835.167 1828.66 887.248 c 128,-1,44
 1649.73 939.328 1649.73 939.328 1493.66 854.992 c 0,45,46
 1280.12 739.599 1280.12 739.599 1201.48 384.447 c 1,47,48
 1179.19 235.167 1179.19 235.167 1193.6 105.141 c 1,49,50
 1447.12 102.804 1447.12 102.804 1508.27 122.917 c 128,-1,51
 1569.42 143.029 1569.42 143.029 1585.5 159.441 c 0,52,53
 1619.77 194.415 1619.77 194.415 1624.77 278.133 c 128,-1,54
 1629.78 361.852 1629.78 361.852 1626.7 514.795 c 128,-1,55
 1623.62 667.739 1623.62 667.739 1623.62 751 c 0,56,57
 1623.62 777.556 1623.62 777.556 1642.83 796.777 c 128,-1,58
 1662.05 816 1662.05 816 1688.62 816 c 128,-1,59
 1715.18 816 1715.18 816 1734.4 796.777 c 128,-1,60
 1753.62 777.556 1753.62 777.556 1753.62 751 c 0,61,62
 1753.62 669.054 1753.62 669.054 1757.06 498.201 c 128,-1,63
 1760.5 327.348 1760.5 327.348 1753.06 259.791 c 1,64,65
 1754.8 252.621 1754.8 252.621 1754.89 244.797 c 0,66,67
 1758.71 -110.75 1758.71 -110.75 1627.69 -276.279 c 0,68,69
 1525.04 -405.976 1525.04 -405.976 1388.6 -380.169 c 128,-1,70
 1252.16 -354.363 1252.16 -354.363 1163.33 -212.018 c 0,71,72
 1110.95 -128.086 1110.95 -128.086 1084.64 -23.2803 c 1,73,74
 1005.35 -21.8018 1005.35 -21.8018 841.294 -17.2109 c 128,-1,75
 677.238 -12.6211 677.238 -12.6211 520.998 -9.72168 c 1,76,77
 506.756 -2.75293 506.756 -2.75293 496.853 2.64844 c 128,-1,78
 486.95 8.0498 486.95 8.0498 474.596 34.0801 c 1,79,80
 469.796 56.8789 469.796 56.8789 475.869 79.3711 c 1,81,82
 595.03 297.835 595.03 297.835 563.305 406.123 c 0,83,84
 554.064 436.735 554.064 436.735 536.704 452.139 c 128,-1,85
 519.345 467.543 519.345 467.543 484.604 474.375 c 0,86,87
 412.13 488.627 412.13 488.627 334.949 446.713 c 128,-1,88
 257.769 404.8 257.769 404.8 237.103 337.896 c 0,89,90
 205.127 234.381 205.127 234.381 330.118 109.387 c 0,91,92
 348.9 90.6006 348.9 90.6006 348.898 63.4209 c 128,-1,93
 348.896 36.2412 348.896 36.2412 330.118 17.4629 c 128,-1,94
 311.341 -1.31543 311.341 -1.31543 284.16 -1.31738 c 128,-1,95
 256.979 -1.31934 256.979 -1.31934 238.194 17.4629 c 0,96,97
 57.7881 197.869 57.7881 197.869 112.894 376.264 c 0,98,99
 149.189 493.766 149.189 493.766 270.224 559.495 c 128,-1,100
 391.259 625.226 391.259 625.226 509.689 601.932 c 0,101,102
 575.613 588.965 575.613 588.965 622.413 547.584 c 128,-1,103
 669.213 506.203 669.213 506.203 687.964 443 c 0,104,105
 726.507 313.082 726.507 313.082 640.303 117.854 c 1,106,107
 756.418 115.215 756.418 115.215 875.255 111.89 c 128,-1,108
 994.092 108.564 994.092 108.564 1062.72 107.158 c 1,0,1
1220.12 -25.0117 m 1,109,110
 1240.43 -90.0156 1240.43 -90.0156 1273.62 -143.192 c 0,111,112
 1332.48 -237.521 1332.48 -237.521 1401.92 -250.688 c 128,-1,113
 1471.37 -263.856 1471.37 -263.856 1528.94 -191.174 c 128,-1,114
 1586.51 -118.49 1586.51 -118.49 1610.09 21.6982 c 1,115,116
 1538.36 -11.79 1538.36 -11.79 1449.31 -18.7871 c 128,-1,117
 1360.27 -25.7832 1360.27 -25.7832 1220.12 -25.0117 c 1,109,110
EndSplineSet
EndChar

StartChar: ml_o
Encoding: 51 3346 52
Width: 1362
GlyphClass: 2
Flags: MW
LayerCount: 2
Fore
SplineSet
234.441 503.052 m 1,0,1
 235.104 503.592 235.104 503.592 235.726 504.071 c 0,2,3
 287.956 544.507 287.956 544.507 343.997 559.97 c 0,4,5
 403.428 576.368 403.428 576.368 454.883 564.685 c 0,6,7
 503.285 553.693 503.285 553.693 542.514 525.448 c 0,8,9
 584.135 495.479 584.135 495.479 607.255 448.786 c 0,10,11
 629.817 403.22 629.817 403.22 630.305 351.714 c 0,12,13
 631.967 177.135 631.967 177.135 535.059 74.1143 c 0,14,15
 493.673 30.1182 493.673 30.1182 441.525 10.6289 c 128,-1,16
 389.377 -8.86035 389.377 -8.86035 333.744 1.91016 c 0,17,18
 213.217 25.2422 213.217 25.2422 150.267 171.034 c 0,19,20
 100.343 286.656 100.343 286.656 100 462.312 c 0,21,22
 99.9961 464.375 99.9961 464.375 100.123 466.435 c 0,23,24
 116.417 731.048 116.417 731.048 320.751 885.167 c 0,25,26
 479.914 1005.22 479.914 1005.22 692.524 1016.72 c 0,27,28
 890.546 1027.43 890.546 1027.43 1026.02 938.7 c 0,29,30
 1102.7 888.478 1102.7 888.478 1140.18 813.983 c 128,-1,31
 1177.66 739.488 1177.66 739.488 1170.45 650.03 c 0,32,33
 1169.68 640.444 1169.68 640.444 1168.38 630.721 c 0,34,35
 1167.88 627.022 1167.88 627.022 1166.97 623.401 c 0,36,37
 1141.35 522.008 1141.35 522.008 1069.28 453.354 c 1,38,39
 1126.81 429.941 1126.81 429.941 1171.33 391.753 c 0,40,41
 1269.43 307.6 1269.43 307.6 1262.51 195.354 c 0,42,43
 1259.18 141.277 1259.18 141.277 1229.69 97.6777 c 128,-1,44
 1200.2 54.0791 1200.2 54.0791 1151.01 27.9775 c 0,45,46
 1013.93 -44.7666 1013.93 -44.7666 795.828 38.6924 c 0,47,48
 774.979 46.6699 774.979 46.6699 753.644 56.0791 c 0,49,50
 729.346 66.7939 729.346 66.7939 719.514 92.1338 c 128,-1,51
 709.681 117.473 709.681 117.473 720.397 141.78 c 128,-1,52
 731.115 166.084 731.115 166.084 756.459 175.913 c 128,-1,53
 781.804 185.743 781.804 185.743 806.099 175.026 c 0,54,55
 824.469 166.926 824.469 166.926 842.289 160.106 c 0,56,57
 1005.2 97.7676 1005.2 97.7676 1090.08 142.812 c 0,58,59
 1113.33 155.151 1113.33 155.151 1122.38 168.531 c 128,-1,60
 1131.44 181.911 1131.44 181.911 1132.76 203.353 c 0,61,62
 1135.7 251.039 1135.7 251.039 1086.69 293.082 c 0,63,64
 1035.85 336.692 1035.85 336.692 955.109 351.479 c 0,65,66
 927.45 356.544 927.45 356.544 895.479 358.289 c 1,67,68
 851.415 346.882 851.415 346.882 814.983 350.388 c 0,69,70
 811.719 350.222 811.719 350.222 806.366 350.427 c 128,-1,71
 801.015 350.632 801.015 350.632 787.775 354.377 c 128,-1,72
 774.537 358.122 774.537 358.122 765.019 365.346 c 128,-1,73
 755.5 372.569 755.5 372.569 749.16 389.174 c 128,-1,74
 742.819 405.777 742.819 405.777 746.008 428.969 c 0,75,76
 748.902 450.04 748.902 450.04 763.595 466.118 c 0,77,78
 781.184 485.367 781.184 485.367 807.198 487.125 c 0,79,80
 844.055 489.615 844.055 489.615 878.615 488.961 c 1,81,82
 893.493 494.102 893.493 494.102 910.032 501.69 c 0,83,84
 920.165 506.34 920.165 506.34 929.53 511.48 c 0,85,86
 1014.99 558.391 1014.99 558.391 1039.99 651.621 c 0,87,88
 1040.53 656.218 1040.53 656.218 1040.87 660.465 c 0,89,90
 1045.42 716.887 1045.42 716.887 1025.26 756.938 c 128,-1,91
 1005.11 796.989 1005.11 796.989 954.784 829.953 c 0,92,93
 854.989 895.315 854.989 895.315 699.546 886.907 c 0,94,95
 526.535 877.548 526.535 877.548 399.035 781.38 c 0,96,97
 259.781 676.349 259.781 676.349 234.441 503.052 c 1,0,1
231.731 404.614 m 1,98,99
 238.34 294.999 238.34 294.999 269.616 222.568 c 0,100,101
 305.346 139.821 305.346 139.821 358.452 129.54 c 0,102,103
 380.506 125.271 380.506 125.271 399.164 132.244 c 128,-1,104
 417.822 139.217 417.822 139.217 440.366 163.185 c 0,105,106
 501.476 228.149 501.476 228.149 500.311 350.479 c 0,107,108
 500.104 372.217 500.104 372.217 490.755 391.101 c 0,109,110
 481.965 408.853 481.965 408.853 466.552 419.95 c 0,111,112
 448.749 432.769 448.749 432.769 426.1 437.911 c 0,113,114
 406.506 442.359 406.506 442.359 378.575 434.652 c 0,115,116
 347.257 426.011 347.257 426.011 315.306 401.276 c 0,117,118
 297.042 387.221 297.042 387.221 273.186 388.221 c 128,-1,119
 249.329 389.222 249.329 389.222 231.731 404.614 c 1,98,99
EndSplineSet
EndChar

StartChar: k1
Encoding: 54 3349 55
Width: 1605
GlyphClass: 2
Flags: MW
LayerCount: 2
Fore
SplineSet
471.918 266.222 m 1,0,1
 454.279 329.721 454.279 329.721 489.492 371.043 c 0,2,3
 506.714 391.254 506.714 391.254 533.813 393.418 c 128,-1,4
 560.913 395.581 560.913 395.581 581.124 378.358 c 0,5,6
 602.915 359.791 602.915 359.791 603.926 331.18 c 0,7,8
 604.739 308.144 604.739 308.144 603.766 285.413 c 1,9,10
 605.425 282.1 605.425 282.1 607.235 278.783 c 0,11,12
 613.519 267.276 613.519 267.276 621.004 256.213 c 0,13,14
 654.455 206.771 654.455 206.771 712.354 165.586 c 0,15,16
 802.135 101.722 802.135 101.722 861.52 126.565 c 0,17,18
 910.155 146.911 910.155 146.911 944.394 245.072 c 128,-1,19
 978.633 343.233 978.633 343.233 980.73 526.019 c 0,20,21
 981.272 573.27 981.272 573.27 975.77 617.209 c 1,22,23
 904.358 623.916 904.358 623.916 827.868 617.479 c 0,24,25
 691.109 605.969 691.109 605.969 570.131 553.511 c 1,26,27
 563.787 532.246 563.787 532.246 545.302 519.127 c 128,-1,28
 526.816 506.007 526.816 506.007 504.682 507.075 c 0,29,30
 495.201 507.533 495.201 507.533 485.972 510.779 c 1,31,32
 415.052 469.256 415.052 469.256 350.46 412.528 c 1,33,34
 309.325 369.344 309.325 369.344 281.929 328.665 c 0,35,36
 208.563 219.729 208.563 219.729 239.719 154.902 c 0,37,38
 249.111 135.358 249.111 135.358 263.408 124.723 c 128,-1,39
 277.705 114.087 277.705 114.087 303.572 108.901 c 0,40,41
 359.741 97.6396 359.741 97.6396 406.79 134.721 c 0,42,43
 450.329 169.035 450.329 169.035 465.638 230.884 c 0,44,45
 469.726 247.399 469.726 247.399 471.918 266.222 c 1,0,1
586.649 699.246 m 1,46,47
 696.966 736.921 696.966 736.921 816.968 747.021 c 0,48,49
 880.473 752.365 880.473 752.365 941.957 749.792 c 1,50,51
 933.883 769.685 933.883 769.685 924.511 788.021 c 0,52,53
 872.698 889.386 872.698 889.386 797.745 921.833 c 0,54,55
 761.573 937.289 761.573 937.289 735.567 933.523 c 128,-1,56
 709.562 929.757 709.562 929.757 681.16 905.396 c 0,57,58
 613.019 846.946 613.019 846.946 586.649 699.246 c 1,46,47
447.377 638.201 m 1,59,60
 447.694 641.501 447.694 641.501 447.952 644.064 c 0,61,62
 473.559 898.596 473.559 898.596 596.523 1004.07 c 0,63,64
 650.807 1050.63 650.807 1050.63 717.165 1060.24 c 128,-1,65
 783.522 1069.85 783.522 1069.85 849.39 1041.13 c 0,66,67
 967.199 990.136 967.199 990.136 1040.27 847.188 c 0,68,69
 1068.18 792.574 1068.18 792.574 1085.17 731.689 c 1,70,71
 1175.18 712.272 1175.18 712.272 1256.95 673.26 c 0,72,73
 1424.49 593.331 1424.49 593.331 1481.81 464.819 c 1,74,75
 1517.72 379.721 1517.72 379.721 1499.38 298.283 c 128,-1,76
 1481.02 216.845 1481.02 216.845 1413.85 144.66 c 0,77,78
 1328.9 53.376 1328.9 53.376 1170.05 -18.8516 c 0,79,80
 1145.88 -29.8447 1145.88 -29.8447 1120.42 -20.3037 c 128,-1,81
 1094.97 -10.7637 1094.97 -10.7637 1083.97 13.416 c 128,-1,82
 1072.98 37.5996 1072.98 37.5996 1082.52 63.0488 c 128,-1,83
 1092.07 88.499 1092.07 88.499 1116.24 99.4902 c 0,84,85
 1251.43 160.954 1251.43 160.954 1318.68 233.22 c 0,86,87
 1364.68 282.646 1364.68 282.646 1374.42 325.918 c 128,-1,88
 1384.16 369.189 1384.16 369.189 1363.08 411.868 c 1,89,90
 1325.28 496.627 1325.28 496.627 1200.98 555.928 c 0,91,92
 1156.66 577.068 1156.66 577.068 1108.83 591.481 c 1,93,94
 1111.11 558.347 1111.11 558.347 1110.72 524.53 c 0,95,96
 1108.3 313.204 1108.3 313.204 1062.99 182.093 c 128,-1,97
 1017.69 50.9814 1017.69 50.9814 911.692 6.63672 c 0,98,99
 785.654 -46.0898 785.654 -46.0898 636.999 59.6533 c 0,100,101
 595.824 88.9424 595.824 88.9424 562.738 122.879 c 1,102,103
 534.024 69.4756 534.024 69.4756 487.26 32.6191 c 0,104,105
 393.055 -41.627 393.055 -41.627 278.017 -18.5625 c 0,106,107
 225.915 -8.11621 225.915 -8.11621 185.382 22.0371 c 128,-1,108
 144.848 52.1895 144.848 52.1895 122.548 98.5908 c 0,109,110
 59.124 230.562 59.124 230.562 174.103 401.284 c 0,111,112
 208.465 452.306 208.465 452.306 258.5 504.461 c 0,113,114
 260.356 506.397 260.356 506.397 262.367 508.173 c 0,115,116
 349.548 585.204 349.548 585.204 447.377 638.201 c 1,59,60
EndSplineSet
EndChar

StartChar: k2
Encoding: 55 3350 56
Width: 1733
GlyphClass: 2
Flags: MW
LayerCount: 2
Fore
SplineSet
302.024 561.464 m 0,0,1
 446.832 624.175 446.832 624.175 559.113 484.884 c 0,2,3
 588.732 448.14 588.732 448.14 600.586 418.582 c 0,4,5
 672.561 239.03 672.561 239.03 612.079 112.217 c 1,6,7
 560.445 6.41895 560.445 6.41895 445.756 -11.4561 c 128,-1,8
 331.066 -29.3311 331.066 -29.3311 233.773 60.0537 c 0,9,10
 107.252 176.291 107.252 176.291 100.201 406.438 c 0,11,12
 95.5303 558.874 95.5303 558.874 199.465 700.658 c 128,-1,13
 303.399 842.442 303.399 842.442 491.617 924.446 c 128,-1,14
 679.836 1006.45 679.836 1006.45 842.8 972.654 c 0,15,16
 932.796 953.991 932.796 953.991 995.557 898.96 c 0,17,18
 1240.64 684.06 1240.64 684.06 952.242 110.973 c 1,19,20
 1326.69 102.758 1326.69 102.758 1426.03 146.885 c 0,21,22
 1479.63 170.689 1479.63 170.689 1494.56 230.25 c 128,-1,23
 1509.49 289.811 1509.49 289.811 1498.49 530.503 c 128,-1,24
 1487.5 771.195 1487.5 771.195 1490.49 923.274 c 0,25,26
 1491.01 949.832 1491.01 949.832 1510.6 968.67 c 128,-1,27
 1530.2 987.508 1530.2 987.508 1556.75 986.987 c 128,-1,28
 1583.3 986.467 1583.3 986.467 1602.14 966.874 c 128,-1,29
 1620.98 947.281 1620.98 947.281 1620.46 920.726 c 0,30,31
 1617.55 772.896 1617.55 772.896 1628.89 524.787 c 128,-1,32
 1640.22 276.68 1640.22 276.68 1623.09 208.328 c 0,33,34
 1590.32 77.6074 1590.32 77.6074 1478.94 28.1387 c 128,-1,35
 1367.57 -21.3291 1367.57 -21.3291 1077.37 -20.71 c 0,36,37
 984.425 -20.5117 984.425 -20.5117 843.896 -16.1699 c 0,38,39
 817.355 -15.3506 817.355 -15.3506 791.809 11.8252 c 128,-1,40
 766.262 39 766.262 39 788.989 80.1973 c 0,41,42
 1027.31 512.204 1027.31 512.204 961.495 719.362 c 0,43,44
 944.43 773.077 944.43 773.077 910.27 803.028 c 128,-1,45
 876.109 832.98 876.109 832.98 816.399 845.363 c 0,46,47
 693.888 870.77 693.888 870.77 540.692 804.025 c 128,-1,48
 387.498 737.28 387.498 737.28 300.598 618.734 c 0,49,50
 269.574 576.412 269.574 576.412 252.053 532.717 c 1,51,52
 277.118 550.678 277.118 550.678 302.024 561.464 c 0,0,1
231.613 381.644 m 1,53,54
 243.01 228.103 243.01 228.103 321.725 155.785 c 0,55,56
 372.91 108.76 372.91 108.76 423.291 116.611 c 128,-1,57
 473.671 124.464 473.671 124.464 495.02 168.765 c 0,58,59
 530.271 241.92 530.271 241.92 481.198 366.998 c 1,60,61
 403.886 509.748 403.886 509.748 295.659 398.842 c 0,62,63
 268.959 371.481 268.959 371.481 231.613 381.644 c 1,53,54
EndSplineSet
EndChar

StartChar: k3
Encoding: 56 3351 57
Width: 1595
GlyphClass: 2
Flags: MW
LayerCount: 2
Fore
SplineSet
373.16 914.465 m 128,-1,1
 391.337 895.108 391.337 895.108 390.482 867.938 c 128,-1,2
 389.629 840.767 389.629 840.767 370.264 822.586 c 0,3,4
 322.004 777.277 322.004 777.277 289.296 713.727 c 0,5,6
 255.834 648.71 255.834 648.71 243.346 581.263 c 0,7,8
 230.187 510.188 230.187 510.188 230.002 436.538 c 0,9,10
 229.824 365.59 229.824 365.59 245.986 304.896 c 0,11,12
 262.515 242.831 262.515 242.831 287.079 195.637 c 0,13,14
 307.642 156.132 307.642 156.132 336.099 136.117 c 0,15,16
 358.018 120.701 358.018 120.701 380.633 122.738 c 0,17,18
 438.228 127.925 438.228 127.925 480.297 152.85 c 128,-1,19
 522.5 177.853 522.5 177.853 547.925 215.375 c 0,20,21
 577.48 258.994 577.48 258.994 599.491 314.871 c 0,22,23
 622.543 373.388 622.543 373.388 638.316 437.435 c 0,24,25
 655.013 505.227 655.013 505.227 671.141 573.401 c 0,26,27
 688.05 644.875 688.05 644.875 710.73 710.484 c 0,28,29
 734.487 779.208 734.487 779.208 767.031 834.353 c 0,30,31
 803.718 896.518 803.718 896.518 863.894 937.096 c 0,32,33
 925.473 978.62 925.473 978.62 1005.95 986.677 c 0,34,35
 1087.08 994.799 1087.08 994.799 1163.83 970.099 c 0,36,37
 1240.03 945.576 1240.03 945.576 1298.45 895.803 c 0,38,39
 1353.14 849.211 1353.14 849.211 1397.79 786.309 c 0,40,41
 1444.11 721.047 1444.11 721.047 1466.35 644.328 c 0,42,43
 1487.33 571.985 1487.33 571.985 1493.75 496.966 c 0,44,45
 1500.69 415.955 1500.69 415.955 1476.76 336.465 c 0,46,47
 1453.63 259.61 1453.63 259.61 1409.87 193.969 c 0,48,49
 1364.08 125.277 1364.08 125.277 1282.81 72.3643 c 0,50,51
 1203.62 20.8047 1203.62 20.8047 1100.17 -5.05957 c 0,52,53
 1074.4 -11.5 1074.4 -11.5 1051.09 2.4834 c 128,-1,54
 1027.78 16.4668 1027.78 16.4668 1021.34 42.2354 c 128,-1,55
 1014.9 68.0039 1014.9 68.0039 1028.89 91.3115 c 128,-1,56
 1042.87 114.618 1042.87 114.618 1068.64 121.06 c 0,57,58
 1150.95 141.639 1150.95 141.639 1211.88 181.307 c 0,59,60
 1270.74 219.634 1270.74 219.634 1301.71 266.086 c 0,61,62
 1334.73 315.616 1334.73 315.616 1352.28 373.929 c 0,63,64
 1369.04 429.623 1369.04 429.623 1364.23 485.878 c 0,65,66
 1358.9 548.11 1358.9 548.11 1341.5 608.123 c 0,67,68
 1325.38 663.729 1325.38 663.729 1291.78 711.062 c 0,69,70
 1256.5 760.758 1256.5 760.758 1214.14 796.849 c 0,71,72
 1175.49 829.78 1175.49 829.78 1124 846.35 c 0,73,74
 1073.06 862.745 1073.06 862.745 1018.9 857.323 c 0,75,76
 971.005 852.528 971.005 852.528 936.576 829.312 c 0,77,78
 900.749 805.153 900.749 805.153 878.987 768.278 c 0,79,80
 853.085 724.388 853.085 724.388 833.598 668.014 c 0,81,82
 813.053 608.581 813.053 608.581 797.649 543.474 c 0,83,84
 781.383 474.711 781.383 474.711 764.545 406.348 c 0,85,86
 746.688 333.844 746.688 333.844 720.444 267.223 c 0,87,88
 693.168 197.979 693.168 197.979 655.546 142.453 c 0,89,90
 613.802 80.8428 613.802 80.8428 546.562 41.0059 c 128,-1,91
 479.186 1.08789 479.186 1.08789 392.294 -6.73828 c 0,92,93
 322.212 -13.0498 322.212 -13.0498 261.312 29.7832 c 0,94,95
 206.95 68.0176 206.95 68.0176 171.765 135.615 c 0,96,97
 140.582 195.523 140.582 195.523 120.364 271.444 c 0,98,99
 99.7812 348.736 99.7812 348.736 100.002 436.864 c 0,100,101
 100.216 522.287 100.216 522.287 115.519 604.931 c 0,102,103
 131.49 691.193 131.49 691.193 173.707 773.219 c 0,104,105
 216.678 856.707 216.678 856.707 281.282 917.361 c 0,106,107
 300.649 935.542 300.649 935.542 327.816 934.684 c 128,-1,0
 354.983 933.825 354.983 933.825 373.16 914.465 c 128,-1,1
EndSplineSet
EndChar

StartChar: k4
Encoding: 57 3352 58
Width: 2692
GlyphClass: 2
Flags: MW
LayerCount: 2
Fore
SplineSet
1212.99 5.34473 m 1,0,1
 1251.87 -84.8359 1251.87 -84.8359 1355.95 -131.542 c 0,2,3
 1411.73 -156.569 1411.73 -156.569 1536.6 -167.673 c 128,-1,4
 1661.47 -178.777 1661.47 -178.777 1801.69 -168.233 c 1,5,6
 1889.84 -165.222 1889.84 -165.222 1959.86 -164.319 c 128,-1,7
 2029.89 -163.417 2029.89 -163.417 2136.4 -149.319 c 128,-1,8
 2242.92 -135.222 2242.92 -135.222 2336.34 -77.0039 c 0,9,10
 2401.32 -36.5156 2401.32 -36.5156 2439.33 60.2363 c 0,11,12
 2498.91 211.854 2498.91 211.854 2412.17 622.245 c 0,13,14
 2393.41 711.012 2393.41 711.012 2365 827.325 c 0,15,16
 2358.7 853.123 2358.7 853.123 2372.8 876.357 c 128,-1,17
 2386.91 899.592 2386.91 899.592 2412.71 905.896 c 128,-1,18
 2438.51 912.201 2438.51 912.201 2461.75 898.092 c 128,-1,19
 2484.98 883.981 2484.98 883.981 2491.28 858.185 c 0,20,21
 2584.2 477.813 2584.2 477.813 2591.84 295.062 c 0,22,23
 2606.74 -61.6777 2606.74 -61.6777 2405.09 -187.34 c 0,24,25
 2239.17 -290.733 2239.17 -290.733 1934.61 -294.655 c 0,26,27
 1893.21 -295.188 1893.21 -295.188 1806.14 -299.945 c 0,28,29
 1456.3 -319.057 1456.3 -319.057 1302.73 -250.148 c 0,30,31
 1226.5 -215.94 1226.5 -215.94 1166.88 -157.936 c 128,-1,32
 1107.27 -99.9307 1107.27 -99.9307 1075.04 4.46094 c 1,33,-1
 542.399 1.0459 l 2,34,35
 517.138 0.884766 517.138 0.884766 497.918 18.2578 c 128,-1,36
 478.697 35.6299 478.697 35.6299 477.327 62.7812 c 128,-1,37
 475.957 89.9326 475.957 89.9326 493.763 109.632 c 0,38,39
 746.901 389.681 746.901 389.681 742.811 540.87 c 0,40,41
 740.278 634.433 740.278 634.433 619.341 639.538 c 128,-1,42
 498.403 644.643 498.403 644.643 386.238 582.818 c 128,-1,43
 274.072 520.994 274.072 520.994 241.755 429.754 c 0,44,45
 194.31 295.802 194.31 295.802 348.837 135.098 c 0,46,47
 367.247 115.947 367.247 115.947 366.712 88.7725 c 128,-1,48
 366.177 61.5967 366.177 61.5967 347.035 43.1904 c 128,-1,49
 327.896 24.7842 327.896 24.7842 300.718 25.3154 c 128,-1,50
 273.539 25.8467 273.539 25.8467 255.129 44.9922 c 0,51,52
 121.777 183.675 121.777 183.675 102.67 327.4 c 0,53,54
 92.8369 401.364 92.8369 401.364 119.216 473.159 c 0,55,56
 168.034 610.987 168.034 610.987 317.779 693.525 c 128,-1,57
 467.524 776.062 467.524 776.062 626.312 769.359 c 128,-1,58
 785.101 762.656 785.101 762.656 847.144 646.42 c 0,59,60
 945.021 463.042 945.021 463.042 683.186 131.951 c 1,61,-1
 1050.52 134.306 l 1,62,63
 1031.58 346.267 1031.58 346.267 1105.5 524.13 c 128,-1,64
 1179.43 701.993 1179.43 701.993 1324.56 784.548 c 128,-1,65
 1469.7 867.103 1469.7 867.103 1620.56 798.758 c 128,-1,66
 1771.42 730.412 1771.42 730.412 1839.43 507.868 c 128,-1,67
 1907.43 285.324 1907.43 285.324 1841.38 140.213 c 0,68,69
 1813.44 78.834 1813.44 78.834 1752.18 42.4277 c 128,-1,70
 1690.93 6.02148 1690.93 6.02148 1606.46 7.86719 c 1,71,-1
 1212.99 5.34473 l 1,0,1
1181.05 135.143 m 1,72,-1
 1607.66 137.877 l 1,73,74
 1696.45 135.62 1696.45 135.62 1723.06 194.066 c 0,75,76
 1768.72 294.387 1768.72 294.387 1716.5 465.313 c 128,-1,77
 1664.27 636.239 1664.27 636.239 1559.94 683.503 c 0,78,79
 1476.39 721.352 1476.39 721.352 1379.39 666.176 c 128,-1,80
 1282.39 611 1282.39 611 1221.96 465.611 c 128,-1,81
 1161.54 320.223 1161.54 320.223 1181.05 135.143 c 1,72,-1
EndSplineSet
EndChar

StartChar: ng
Encoding: 58 3353 59
Width: 1734
GlyphClass: 2
Flags: MW
LayerCount: 2
Fore
SplineSet
248.301 639.532 m 1,0,1
 322.808 664.119 322.808 664.119 382.91 638.45 c 0,2,3
 570.557 558.309 570.557 558.309 564.435 290.15 c 0,4,5
 564.365 287.113 564.365 287.113 564.013 284.099 c 0,6,7
 542.615 100.729 542.615 100.729 452.089 21.8857 c 0,8,9
 407.466 -16.9775 407.466 -16.9775 352.384 -19.4199 c 128,-1,10
 297.303 -21.8623 297.303 -21.8623 244.865 17.877 c 0,11,12
 102.99 125.394 102.99 125.394 100.002 512.16 c 0,13,14
 99.9429 519.936 99.9429 519.936 104.67 559.896 c 0,15,16
 143.457 887.7 143.457 887.7 288.451 1001.38 c 0,17,18
 351.783 1051.04 351.783 1051.04 427.971 1052.9 c 128,-1,19
 504.158 1054.77 504.158 1054.77 574.867 1011.29 c 1,20,21
 737.059 914.557 737.059 914.557 832.893 654.861 c 1,22,23
 931.535 894.287 931.535 894.287 1108.06 991.129 c 0,24,25
 1252.4 1070.31 1252.4 1070.31 1378.9 1010.69 c 0,26,27
 1520.85 943.784 1520.85 943.784 1527.62 723.037 c 0,28,29
 1529.31 667.801 1529.31 667.801 1500.36 610.284 c 128,-1,30
 1471.41 552.766 1471.41 552.766 1430.2 516.941 c 1,31,32
 1506.49 488.733 1506.49 488.733 1555.41 440.384 c 0,33,34
 1654.25 342.679 1654.25 342.679 1630.28 222.571 c 128,-1,35
 1606.31 102.464 1606.31 102.464 1495.26 40.1504 c 0,36,37
 1339.72 -47.1306 1339.72 -47.1306 1117.1 28.6738 c 0,38,39
 1091.96 37.2295 1091.96 37.2295 1079.95 61.6172 c 128,-1,40
 1067.95 86.0039 1067.95 86.0039 1076.51 111.15 c 128,-1,41
 1085.06 136.295 1085.06 136.295 1109.46 148.296 c 128,-1,42
 1133.84 160.297 1133.84 160.297 1149.32 155.03 c 0,43,44
 1326.73 94.6476 1326.73 94.6476 1431.65 153.522 c 0,45,46
 1490.87 186.755 1490.87 186.755 1502.1 242.969 c 128,-1,47
 1513.33 299.184 1513.33 299.184 1467.12 344.859 c 0,48,49
 1383.54 427.482 1383.54 427.482 1182.3 419.382 c 0,50,51
 1158.59 418.428 1158.59 418.428 1137.87 435.528 c 128,-1,52
 1117.14 452.629 1117.14 452.629 1114.91 478.966 c 128,-1,53
 1112.68 505.304 1112.68 505.304 1130.21 526.081 c 128,-1,54
 1147.74 546.857 1147.74 546.857 1176.34 549.279 c 0,55,56
 1281.36 558.17 1281.36 558.17 1336.74 607.703 c 128,-1,57
 1392.12 657.237 1392.12 657.237 1397.57 722.365 c 1,58,59
 1392.23 860.689 1392.23 860.689 1317.88 895.732 c 0,60,61
 1256.87 924.487 1256.87 924.487 1170.58 877.151 c 0,62,63
 1058.91 815.887 1058.91 815.887 987.866 678.97 c 128,-1,64
 916.823 542.054 916.823 542.054 895.823 388.149 c 1,65,66
 914.298 229.824 914.298 229.824 895.546 63.4238 c 0,67,68
 892.575 37.0381 892.575 37.0381 871.32 20.0869 c 128,-1,69
 850.065 3.13672 850.065 3.13672 825.417 5.91406 c 128,-1,70
 800.769 8.69141 800.769 8.69141 784.765 26.3799 c 128,-1,71
 768.762 44.0684 768.762 44.0684 766.406 63.0547 c 0,72,73
 746.625 236.937 746.625 236.937 764.8 388.404 c 1,74,75
 744.225 545.464 744.225 545.464 675.857 692.965 c 128,-1,76
 607.489 840.467 607.489 840.467 508.276 899.638 c 1,77,78
 461.79 926.051 461.79 926.051 431.473 925.302 c 128,-1,79
 401.156 924.553 401.156 924.553 368.663 899.078 c 0,80,81
 285.828 834.132 285.828 834.132 248.301 639.532 c 1,0,1
230.502 483.111 m 1,82,83
 235.468 297.449 235.468 297.449 268.53 217.654 c 128,-1,84
 301.591 137.859 301.591 137.859 321.736 122.25 c 128,-1,85
 341.881 106.642 341.881 106.642 346.921 106.857 c 128,-1,86
 351.96 107.073 351.96 107.073 366.709 119.918 c 0,87,88
 418.598 165.109 418.598 165.109 434.529 296.136 c 1,89,90
 437.291 473.864 437.291 473.864 340.863 515.048 c 0,91,92
 298.836 532.996 298.836 532.996 255.367 496.201 c 0,93,94
 244.403 486.921 244.403 486.921 230.502 483.111 c 1,82,83
EndSplineSet
EndChar

StartChar: ch1
Encoding: 59 3354 60
Width: 1754
GlyphClass: 2
Flags: MW
LayerCount: 2
Fore
SplineSet
415.431 317.683 m 132,-1,1
 391.94 305.301 391.94 305.301 365.974 313.341 c 132,-1,2
 340.006 321.382 340.006 321.382 327.622 344.88 c 4,3,4
 296.012 404.859 296.012 404.859 285.372 461.448 c 132,-1,5
 274.732 518.037 274.732 518.037 288.622 572.53 c 132,-1,6
 302.512 627.023 302.512 627.023 343.218 669.838 c 4,7,8
 427.305 758.283 427.305 758.283 580.718 763.745 c 4,9,10
 728.428 769.005 728.428 769.005 834.808 695.219 c 4,11,12
 889.59 657.222 889.59 657.222 919.415 602.656 c 132,-1,13
 949.24 548.091 949.24 548.091 949.381 484.227 c 4,14,15
 950.562 411.782 950.562 411.782 922.726 348.731 c 4,16,17
 895.701 287.52 895.701 287.52 851.98 242.778 c 4,18,19
 810.323 200.149 810.323 200.149 747.787 163.72 c 4,20,21
 701.598 136.814 701.598 136.814 656.142 117 c 5,22,-1
 1302.63 117 l 6,23,24
 1363.49 117 1363.49 117 1406.96 131.756 c 4,25,26
 1445.79 145.23 1445.79 145.23 1466.08 165.886 c 4,27,28
 1488.54 188.756 1488.54 188.756 1502.58 222.499 c 4,29,30
 1517.61 258.621 1517.61 258.621 1521.36 300.561 c 4,31,32
 1525.68 348.883 1525.68 348.883 1524.46 406.074 c 132,-1,33
 1523.24 463.365 1523.24 463.365 1515.87 520.185 c 4,34,35
 1507.97 581.061 1507.97 581.061 1500.62 646.16 c 4,36,37
 1493.3 710.934 1493.3 710.934 1487.16 768.165 c 4,38,39
 1480.62 829.154 1480.62 829.154 1481.55 889.924 c 4,40,41
 1482.53 953.532 1482.53 953.532 1493.72 1002.49 c 4,42,43
 1499.64 1028.37 1499.64 1028.37 1522.66 1042.83 c 132,-1,44
 1545.68 1057.28 1545.68 1057.28 1571.58 1051.37 c 132,-1,45
 1597.47 1045.45 1597.47 1045.45 1611.92 1022.42 c 132,-1,46
 1626.37 999.401 1626.37 999.401 1620.46 973.515 c 4,47,48
 1612.31 937.873 1612.31 937.873 1611.54 887.918 c 4,49,50
 1610.72 835.11 1610.72 835.11 1616.42 782.04 c 4,51,52
 1622.52 725.206 1622.52 725.206 1629.8 660.74 c 4,53,54
 1637.04 596.625 1637.04 596.625 1644.78 536.915 c 4,55,56
 1653.05 473.168 1653.05 473.168 1654.43 408.847 c 132,-1,57
 1655.8 344.469 1655.8 344.469 1650.84 288.976 c 4,58,59
 1645.31 227.131 1645.31 227.131 1622.6 172.566 c 4,60,61
 1598.91 115.608 1598.91 115.608 1558.83 74.793 c 4,62,63
 1517.19 32.4043 1517.19 32.4043 1449.16 8.79492 c 4,64,65
 1384.95 -13 1384.95 -13 1302.63 -13 c 6,66,-1
 165.09 -13 l 6,67,68
 143.316 -13 143.316 -13 125.363 0.856445 c 132,-1,69
 107.411 14.7129 107.411 14.7129 102.03 36.2354 c 4,70,71
 95.5908 61.9961 95.5908 61.9961 109.577 85.3076 c 132,-1,72
 123.564 108.619 123.564 108.619 149.325 115.06 c 4,73,74
 179.007 122.479 179.007 122.479 242.331 136.023 c 4,75,76
 306.193 149.672 306.193 149.672 355.43 160.346 c 4,77,78
 403.059 170.671 403.059 170.671 469.404 189.724 c 4,79,80
 534.86 208.52 534.86 208.52 584.189 227.895 c 4,81,82
 631.746 246.572 631.746 246.572 682.353 276.052 c 4,83,84
 729.66 303.609 729.66 303.609 759.001 333.635 c 4,85,86
 786.278 361.547 786.278 361.547 803.801 401.237 c 4,87,88
 820.265 438.529 820.265 438.529 819.379 483.072 c 4,89,90
 819.456 517.374 819.456 517.374 806.133 541.757 c 132,-1,91
 792.809 566.14 792.809 566.14 760.716 588.399 c 4,92,93
 689.855 637.549 689.855 637.549 585.342 633.828 c 4,94,95
 484.959 630.254 484.959 630.254 437.432 580.263 c 4,96,97
 419.322 561.216 419.322 561.216 412.556 539.698 c 132,-1,98
 405.788 518.181 405.788 518.181 412.408 484.227 c 132,-1,99
 419.027 450.271 419.027 450.271 442.628 405.491 c 4,100,101
 455.011 381.989 455.011 381.989 446.967 356.026 c 132,-1,0
 438.923 330.063 438.923 330.063 415.431 317.683 c 132,-1,1
EndSplineSet
EndChar

StartChar: ch2
Encoding: 60 3355 61
Width: 2361
GlyphClass: 2
Flags: MW
LayerCount: 2
Fore
SplineSet
834.127 320.736 m 1,0,1
 780.099 219.547 780.099 219.547 669.91 158.168 c 0,2,3
 640.506 141.789 640.506 141.789 610.916 127.341 c 1,4,-1
 1307.06 127.341 l 1,5,6
 1162.35 244.54 1162.35 244.54 1139 408.527 c 128,-1,7
 1115.65 572.514 1115.65 572.514 1213.18 723.362 c 128,-1,8
 1310.71 874.209 1310.71 874.209 1476.74 949.568 c 0,9,10
 1572.53 993.049 1572.53 993.049 1653.47 998.721 c 0,11,12
 1966.96 1020.7 1966.96 1020.7 2134.58 818.621 c 0,13,14
 2256.39 671.748 2256.39 671.748 2261.21 472.77 c 128,-1,15
 2266.02 273.792 2266.02 273.792 2182.31 140.711 c 0,16,17
 2084.21 -15.235 2084.21 -15.235 1925.69 -2.44824 c 0,18,19
 1696.41 16.0587 1696.41 16.0587 1619.23 219.877 c 0,20,21
 1561.59 372.091 1561.59 372.091 1621.13 567.725 c 1,22,23
 1644.9 654.708 1644.9 654.708 1707.44 720.232 c 0,24,25
 1797.94 815.053 1797.94 815.053 1912.06 831.118 c 1,26,27
 1809.79 878.977 1809.79 878.977 1664.23 869.154 c 1,28,29
 1523.54 851.552 1523.54 851.552 1416.14 760.188 c 128,-1,30
 1308.73 668.825 1308.73 668.825 1275.27 549.322 c 128,-1,31
 1241.81 429.819 1241.81 429.819 1307.07 318.626 c 0,32,33
 1338.49 265.11 1338.49 265.11 1408.78 213.035 c 128,-1,34
 1479.06 160.96 1479.06 160.96 1583.61 123.538 c 0,35,36
 1626.7 108.113 1626.7 108.113 1626.7 71.9499 c 128,-1,37
 1626.7 35.7871 1626.7 35.7871 1607.48 16.5645 c 128,-1,38
 1588.26 -2.65918 1588.26 -2.65918 1561.7 -2.65918 c 2,39,-1
 165.091 -2.65918 l 2,40,41
 143.512 -2.65918 143.512 -2.65918 125.594 11.0391 c 128,-1,42
 107.676 24.7363 107.676 24.7363 101.595 48.2578 c 128,-1,43
 95.5137 71.7793 95.5137 71.7793 109.313 95.2031 c 128,-1,44
 123.113 118.626 123.113 118.626 148.821 125.271 c 128,-1,45
 174.407 131.886 174.407 131.886 306.292 162.075 c 128,-1,46
 438.177 192.264 438.177 192.264 532.886 234.127 c 128,-1,47
 627.595 275.99 627.595 275.99 663.792 311.404 c 128,-1,48
 699.988 346.818 699.988 346.818 716.492 376.471 c 1,49,50
 776.898 524.118 776.898 524.118 721.124 584.914 c 0,51,52
 681.994 627.565 681.994 627.565 595.084 620.75 c 128,-1,53
 508.174 613.934 508.174 613.934 456.629 567.562 c 128,-1,54
 405.085 521.19 405.085 521.19 391.831 483.361 c 128,-1,55
 378.576 445.532 378.576 445.532 385.259 407.631 c 128,-1,56
 391.942 369.729 391.942 369.729 376.35 347.465 c 128,-1,57
 360.757 325.2 360.757 325.2 334.604 320.589 c 128,-1,58
 308.451 315.978 308.451 315.978 286.185 331.567 c 128,-1,59
 263.917 347.156 263.917 347.156 259.305 373.314 c 0,60,61
 230.147 538.677 230.147 538.677 356.822 652.638 c 0,62,63
 454.027 740.086 454.027 740.086 594.5 751.103 c 128,-1,64
 734.972 762.119 734.972 762.119 816.914 672.801 c 0,65,66
 929.082 550.536 929.082 550.536 834.127 320.736 c 1,0,1
2092.8 641.562 m 1,67,68
 2084.72 646.364 2084.72 646.364 2078.68 652.612 c 0,69,70
 2040.99 691.581 2040.99 691.581 1989.98 700.886 c 0,71,72
 1886.67 719.73 1886.67 719.73 1801.84 630.853 c 0,73,74
 1761.37 588.451 1761.37 588.451 1746.85 537.674 c 0,75,76
 1684.02 317.953 1684.02 317.953 1779.57 196.908 c 0,77,78
 1832.34 130.07 1832.34 130.07 1942.84 126.759 c 0,79,80
 2018.55 124.509 2018.55 124.509 2076.83 217.183 c 128,-1,81
 2135.11 309.856 2135.11 309.856 2132.09 434.506 c 128,-1,82
 2129.08 559.155 2129.08 559.155 2092.8 641.562 c 1,67,68
EndSplineSet
EndChar

StartChar: ch3
Encoding: 61 3356 62
Width: 1841
GlyphClass: 2
Flags: MW
LayerCount: 2
Fore
SplineSet
277.28 710.43 m 1,0,1
 297.238 722.718 297.238 722.718 345.204 717.875 c 128,-1,2
 393.17 713.031 393.17 713.031 457.707 681.194 c 0,3,4
 573.123 624.26 573.123 624.26 635.385 508.961 c 128,-1,5
 697.648 393.661 697.648 393.661 675.618 274.441 c 128,-1,6
 653.589 155.22 653.589 155.22 547.741 67.0361 c 128,-1,7
 441.894 -21.1475 441.894 -21.1475 326.272 -2.22363 c 0,8,9
 188.613 20.3068 188.613 20.3068 132.024 183.375 c 0,10,11
 85.5039 317.437 85.5039 317.437 106.562 533.715 c 0,12,13
 134.52 820.842 134.52 820.842 282.349 934.561 c 0,14,15
 412.097 1034.36 412.097 1034.36 562.587 971.161 c 0,16,17
 772.442 883.028 772.442 883.028 876.537 596.488 c 1,18,19
 921.408 744.346 921.408 744.346 992.784 844.639 c 0,20,21
 1111.13 1010.93 1111.13 1010.93 1270.68 1008.13 c 0,22,23
 1405.29 1005.76 1405.29 1005.76 1503.97 881.873 c 128,-1,24
 1602.66 757.983 1602.66 757.983 1597.61 569.876 c 0,25,26
 1589.4 264.575 1589.4 264.575 1302.55 -0.0664062 c 1,27,28
 1507.29 62.167 1507.29 62.167 1622.53 -12.0205 c 128,-1,29
 1737.77 -86.2081 1737.77 -86.2081 1741.11 -214.154 c 128,-1,30
 1744.46 -342.101 1744.46 -342.101 1664.77 -433.396 c 0,31,32
 1565.52 -547.097 1565.52 -547.097 1403.26 -525.15 c 128,-1,33
 1241.01 -503.204 1241.01 -503.204 1064.09 -303.359 c 0,34,35
 1041.48 -277.817 1041.48 -277.817 1049.75 -244.333 c 1,36,37
 993.735 -269.597 993.735 -269.597 972.949 -281.157 c 0,38,39
 845.114 -352.255 845.114 -352.255 774.648 -348.4 c 0,40,41
 725.939 -345.735 725.939 -345.735 725.537 -289.318 c 128,-1,42
 725.134 -232.9 725.134 -232.9 765.14 -203.593 c 128,-1,43
 805.146 -174.285 805.146 -174.285 867.524 -140.78 c 128,-1,44
 929.902 -107.274 929.902 -107.274 958.341 -89.3086 c 1,45,46
 1164.33 29.7256 1164.33 29.7256 1290.71 173.374 c 0,47,48
 1462.14 368.238 1462.14 368.238 1467.65 573.363 c 0,49,50
 1471.43 714.075 1471.43 714.075 1406.6 795.467 c 128,-1,51
 1341.77 876.858 1341.77 876.858 1259.55 878.304 c 128,-1,52
 1177.33 879.749 1177.33 879.749 1091.23 758.762 c 0,53,54
 971.21 590.119 971.21 590.119 939.691 208.344 c 1,55,56
 939.784 123.938 939.784 123.938 930.634 39.4727 c 0,57,58
 927.774 13.0732 927.774 13.0732 906.593 -3.96777 c 128,-1,59
 885.41 -21.0088 885.41 -21.0088 859.739 -18.228 c 128,-1,60
 834.067 -15.4473 834.067 -15.4473 817.216 3.91699 c 128,-1,61
 800.363 23.2803 800.363 23.2803 801.035 48.2227 c 0,62,63
 803.354 134.352 803.354 134.352 809.672 213.419 c 1,64,65
 808.153 481.112 808.153 481.112 700.14 669.324 c 0,66,67
 622.332 804.903 622.332 804.903 526.032 844.41 c 128,-1,68
 429.731 883.917 429.731 883.917 369.435 837.536 c 128,-1,69
 309.139 791.155 309.139 791.155 277.28 710.43 c 1,0,1
1143.15 -202.797 m 1,70,71
 1154.07 -208.877 1154.07 -208.877 1161.43 -217.189 c 0,72,73
 1306.31 -380.85 1306.31 -380.85 1429.73 -397.546 c 0,74,75
 1513.6 -408.891 1513.6 -408.891 1563.39 -351.851 c 128,-1,76
 1613.18 -294.811 1613.18 -294.811 1611.39 -226.56 c 128,-1,77
 1609.61 -158.309 1609.61 -158.309 1560.88 -126.942 c 0,78,79
 1470.59 -68.8125 1470.59 -68.8125 1272.04 -148.794 c 0,80,81
 1221.84 -168.389 1221.84 -168.389 1143.15 -202.797 c 1,70,71
252.957 629.934 m 1,82,83
 241.68 579.959 241.68 579.959 235.95 521.117 c 0,84,85
 217.648 333.177 217.648 333.177 251.842 234.634 c 128,-1,86
 286.036 136.091 286.036 136.091 345.167 126.413 c 128,-1,87
 404.298 116.735 404.298 116.735 469.293 170.884 c 128,-1,88
 534.289 225.032 534.289 225.032 547.887 298.625 c 0,89,90
 568.756 411.565 568.756 411.565 473.236 512.114 c 0,91,92
 407.908 580.882 407.908 580.882 306.059 591.166 c 0,93,94
 269.066 594.901 269.066 594.901 252.957 629.934 c 1,82,83
EndSplineSet
EndChar

StartChar: ch4
Encoding: 62 3357 63
Width: 3078
GlyphClass: 2
Flags: MW
LayerCount: 2
Fore
SplineSet
2102.92 931.739 m 5,0,1
 2102.26 755.956 2102.26 755.956 2115.6 456.854 c 5,2,3
 2132.15 410.916 2132.15 410.916 2155.88 369.083 c 5,4,5
 2280.69 165.401 2280.69 165.401 2441.96 142.718 c 4,6,7
 2565.35 125.983 2565.35 125.983 2675.29 214.368 c 132,-1,8
 2785.22 302.752 2785.22 302.752 2831.41 450.377 c 132,-1,9
 2877.6 598.003 2877.6 598.003 2806.71 737.277 c 4,10,11
 2752.87 843.039 2752.87 843.039 2633.33 917.765 c 4,12,13
 2610.81 931.842 2610.81 931.842 2604.7 958.323 c 132,-1,14
 2598.59 984.8 2598.59 984.8 2612.66 1007.33 c 132,-1,15
 2626.74 1029.86 2626.74 1029.86 2653.23 1035.97 c 132,-1,16
 2679.72 1042.08 2679.72 1042.08 2702.23 1028 c 4,17,18
 2852.37 934.154 2852.37 934.154 2922.56 796.259 c 4,19,20
 3017.49 609.754 3017.49 609.754 2951.57 399.046 c 4,21,22
 2897.53 226.339 2897.53 226.339 2750.07 107.805 c 132,-1,23
 2602.61 -10.7295 2602.61 -10.7295 2424.12 13.9482 c 4,24,25
 2201.78 44.6885 2201.78 44.6885 2043.96 302.921 c 4,26,27
 2042.11 306.159 2042.11 306.159 2040.65 308.771 c 5,28,29
 1962.35 144.911 1962.35 144.911 1817 64.583 c 132,-1,30
 1671.66 -15.7451 1671.66 -15.7451 1533.71 16.8613 c 132,-1,31
 1395.76 49.4678 1395.76 49.4678 1345.83 176.35 c 4,32,33
 1278.19 348.214 1278.19 348.214 1421.01 602.22 c 5,34,35
 1456.98 700.048 1456.98 700.048 1445.45 754.616 c 132,-1,36
 1433.93 809.183 1433.93 809.183 1395.67 842.282 c 4,37,38
 1324.71 902.78 1324.71 902.78 1188.17 891.441 c 132,-1,39
 1051.63 880.102 1051.63 880.102 928.377 800.939 c 5,40,41
 1027.35 653.81 1027.35 653.81 1035.46 445.542 c 4,42,43
 1046.26 150.87 1046.26 150.87 926.534 47.8848 c 4,44,45
 880.384 8.18555 880.384 8.18555 821.659 3.64746 c 132,-1,46
 762.936 -0.890625 762.936 -0.890625 709.452 28.5566 c 5,47,48
 612.84 79.7041 612.84 79.7041 559.855 204.788 c 132,-1,49
 506.871 329.871 506.871 329.871 542.234 473.069 c 4,50,51
 592.487 676.562 592.487 676.562 739.968 817.653 c 5,52,53
 677.013 868.625 677.013 868.625 595.782 887.815 c 4,54,55
 473.7 916.657 473.7 916.657 370.655 859.077 c 132,-1,56
 267.609 801.497 267.609 801.497 239.478 670.964 c 4,57,58
 191.687 449.218 191.687 449.218 383.143 120.349 c 4,59,60
 396.505 97.3896 396.505 97.3896 389.562 71.1113 c 132,-1,61
 382.621 44.833 382.621 44.833 359.672 31.4717 c 132,-1,62
 336.726 18.1094 336.726 18.1094 310.441 25.0488 c 132,-1,63
 284.158 31.9873 284.158 31.9873 270.795 54.9424 c 4,64,65
 53.9893 427.344 53.9893 427.344 112.395 698.352 c 4,66,67
 152.904 886.318 152.904 886.318 303.647 970.553 c 132,-1,68
 454.39 1054.79 454.39 1054.79 625.67 1014.33 c 4,69,70
 750.192 984.92 750.192 984.92 843.046 900.385 c 5,71,72
 1000.12 1006.27 1000.12 1006.27 1184.36 1021.57 c 132,-1,73
 1368.61 1036.87 1368.61 1036.87 1480.35 940.918 c 4,74,75
 1549.78 881.296 1549.78 881.296 1570.64 783.197 c 132,-1,76
 1591.5 685.098 1591.5 685.098 1540.88 551.608 c 4,77,78
 1539.09 546.914 1539.09 546.914 1536.61 542.547 c 4,79,80
 1421.29 339.584 1421.29 339.584 1466.79 223.957 c 4,81,82
 1491.83 160.342 1491.83 160.342 1572.27 141.329 c 132,-1,83
 1652.71 122.315 1652.71 122.315 1752.04 177.21 c 4,84,85
 1895.98 256.764 1895.98 256.764 1952.41 439.425 c 5,86,87
 1972.3 768.118 1972.3 768.118 1972.93 934.788 c 5,88,89
 1975.05 960.468 1975.05 960.468 1994.12 978.774 c 132,-1,90
 2013.18 997.08 2013.18 997.08 2043.88 996.96 c 132,-1,91
 2074.57 996.85 2074.57 996.85 2093.48 965.737 c 5,92,-1
 2102.92 931.739 l 5,0,1
826.004 720.025 m 5,93,94
 708.989 606.091 708.989 606.091 668.442 441.901 c 4,95,96
 643.458 340.728 643.458 340.728 678.985 256.85 c 132,-1,97
 714.512 172.973 714.512 172.973 770.277 143.448 c 5,98,99
 798.08 129.864 798.08 129.864 811.494 130.904 c 132,-1,100
 824.908 131.945 824.908 131.945 849.018 152.685 c 132,-1,101
 873.128 173.424 873.128 173.424 891.553 246.613 c 132,-1,102
 909.979 319.803 909.979 319.803 904.555 462.693 c 132,-1,103
 899.132 605.583 899.132 605.583 826.004 720.025 c 5,93,94
EndSplineSet
EndChar

StartChar: nj
Encoding: 63 3358 64
Width: 2133
GlyphClass: 2
Flags: MW
LayerCount: 2
Fore
SplineSet
236.159 551.628 m 1,0,1
 373.702 634.439 373.702 634.439 492.788 518.6 c 0,2,3
 564.863 448.488 564.863 448.488 575.714 309.807 c 0,4,5
 575.854 308.021 575.854 308.021 575.895 306.231 c 0,6,7
 579.436 152.385 579.436 152.385 492.492 64.2236 c 128,-1,8
 405.549 -23.9375 405.549 -23.9375 296.073 6.09082 c 128,-1,9
 186.598 36.1182 186.598 36.1182 138.005 174.613 c 128,-1,10
 89.4121 313.107 89.4121 313.107 102.95 510.566 c 1,11,12
 110.091 718.195 110.091 718.195 223.344 856.545 c 128,-1,13
 336.598 994.895 336.598 994.895 476.109 1014.45 c 0,14,15
 641.112 1037.57 641.112 1037.57 754.767 896.132 c 0,16,17
 810.9 826.281 810.9 826.281 844.466 724.557 c 1,18,19
 886.67 819.792 886.67 819.792 948.874 889.951 c 0,20,21
 1071.38 1028.13 1071.38 1028.13 1225 1021.6 c 0,22,23
 1327.41 1017.24 1327.41 1017.24 1408.13 948.981 c 1,24,25
 1500.01 1004.36 1500.01 1004.36 1602.82 1017.6 c 0,26,27
 1785.34 1041.1 1785.34 1041.1 1905.71 920.912 c 0,28,29
 2046.62 780.222 2046.62 780.222 2032.23 497.843 c 0,30,31
 2024.67 349.512 2024.67 349.512 1952.06 208.003 c 128,-1,32
 1879.45 66.4932 1879.45 66.4932 1772.64 9.33203 c 0,33,34
 1749.23 -3.19824 1749.23 -3.19824 1723.21 4.67676 c 128,-1,35
 1697.19 12.5518 1697.19 12.5518 1684.66 35.9717 c 128,-1,36
 1672.13 59.3936 1672.13 59.3936 1680.01 85.4072 c 128,-1,37
 1687.89 111.421 1687.89 111.421 1711.3 123.951 c 0,38,39
 1782.42 162.01 1782.42 162.01 1839.34 272.958 c 128,-1,40
 1896.25 383.906 1896.25 383.906 1902.4 504.466 c 0,41,42
 1913.85 729.085 1913.85 729.085 1813.87 828.912 c 0,43,44
 1738.65 904.013 1738.65 904.013 1619.42 888.663 c 0,45,46
 1554.01 880.242 1554.01 880.242 1493.63 848.092 c 1,47,48
 1592.71 689.626 1592.71 689.626 1593.52 444.219 c 128,-1,49
 1594.32 198.812 1594.32 198.812 1484.93 85.5381 c 0,50,51
 1394.49 -8.11035 1394.49 -8.11035 1284.49 20.6436 c 128,-1,52
 1174.48 49.3965 1174.48 49.3965 1122.53 167.886 c 128,-1,53
 1070.58 286.376 1070.58 286.376 1093.75 451.539 c 0,54,55
 1128.91 702.209 1128.91 702.209 1301.22 866.543 c 1,56,57
 1263.72 889.835 1263.72 889.835 1219.48 891.716 c 0,58,59
 1127.64 895.621 1127.64 895.621 1046.15 803.708 c 0,60,61
 921.757 663.41 921.757 663.41 894.12 383.709 c 1,62,63
 880.715 94.249 880.715 94.249 877.905 64.2373 c 128,-1,64
 875.096 34.2246 875.096 34.2246 856.301 15.2969 c 128,-1,65
 837.506 -3.63184 837.506 -3.63184 811.184 -3.23633 c 128,-1,66
 784.861 -2.84082 784.861 -2.84082 765.93 16.6689 c 128,-1,67
 746.997 36.1787 746.997 36.1787 747.396 62.7295 c 2,68,-1
 747.756 86.7275 l 1,69,70
 751.954 191.338 751.954 191.338 764.22 396.031 c 1,71,72
 755.586 687.582 755.586 687.582 653.431 814.701 c 0,73,74
 586.028 898.581 586.028 898.581 495.508 885.895 c 128,-1,75
 404.987 873.209 404.987 873.209 328.188 779.39 c 128,-1,76
 251.387 685.57 251.387 685.57 236.159 551.628 c 1,0,1
233.911 338.192 m 1,77,78
 240.473 275.228 240.473 275.228 257.255 227.395 c 0,79,80
 286.705 143.462 286.705 143.462 333.803 130.543 c 1,81,82
 364.452 119.53 364.452 119.53 406.082 161.743 c 128,-1,83
 447.713 203.956 447.713 203.956 445.966 301.451 c 1,84,85
 436.184 419.198 436.184 419.198 367.254 449.401 c 0,86,87
 341.926 460.5 341.926 460.5 308.355 443.098 c 128,-1,88
 274.785 425.696 274.785 425.696 265.626 388.913 c 128,-1,89
 256.468 352.129 256.468 352.129 233.911 338.192 c 1,77,78
1388.75 770.368 m 1,90,91
 1251.18 638.026 1251.18 638.026 1222.49 433.482 c 0,92,93
 1204.44 304.81 1204.44 304.81 1236.35 232.03 c 128,-1,94
 1268.27 159.25 1268.27 159.25 1313.3 147.479 c 1,95,96
 1351.77 134.794 1351.77 134.794 1391.42 175.846 c 0,97,98
 1464.15 251.158 1464.15 251.158 1463.5 447.66 c 128,-1,99
 1462.86 644.163 1462.86 644.163 1388.75 770.368 c 1,90,91
EndSplineSet
EndChar

StartChar: t1
Encoding: 64 3359 65
Width: 1059
GlyphClass: 2
Flags: MW
LayerCount: 2
Fore
SplineSet
827.244 728.996 m 128,-1,1
 803.735 716.65 803.735 716.65 777.78 724.731 c 128,-1,2
 751.826 732.812 751.826 732.812 739.479 756.33 c 0,3,4
 704.727 822.521 704.727 822.521 659.203 848.568 c 128,-1,5
 613.681 874.615 613.681 874.615 546.475 868.532 c 0,6,7
 438.91 858.796 438.91 858.796 332.139 773.312 c 0,8,9
 250.643 708.064 250.643 708.064 232.927 651.97 c 0,10,11
 230.85 645.391 230.85 645.391 230.285 640.541 c 1,12,13
 234.421 638.658 234.421 638.658 240.082 637.163 c 0,14,15
 256.44 632.843 256.44 632.843 282.414 633.215 c 0,16,17
 371.694 634.496 371.694 634.496 446.298 630.643 c 0,18,19
 521.723 626.747 521.723 626.747 596.14 616.091 c 0,20,21
 674.414 604.887 674.414 604.887 734.712 582.716 c 0,22,23
 796.218 560.101 796.218 560.101 845.049 526.561 c 0,24,25
 900.797 488.27 900.797 488.27 930.273 430.338 c 0,26,27
 959.316 373.258 959.316 373.258 959.316 302.595 c 0,28,29
 959.316 299.442 959.316 299.442 959.012 296.305 c 0,30,31
 948.906 192.337 948.906 192.337 893.165 117.731 c 128,-1,32
 837.423 43.126 837.423 43.126 742.344 8.15723 c 0,33,34
 594.359 -46.2705 594.359 -46.2705 407.959 2.75781 c 0,35,36
 248.238 44.7695 248.238 44.7695 165.009 134.931 c 0,37,38
 113.391 190.848 113.391 190.848 108.601 256.848 c 128,-1,39
 103.812 322.848 103.812 322.848 151.264 382.108 c 0,40,41
 158.877 391.2 158.877 391.2 167.771 399.929 c 0,42,43
 186.721 418.529 186.721 418.529 213.903 418.276 c 128,-1,44
 241.086 418.022 241.086 418.022 259.69 399.065 c 128,-1,45
 278.296 380.104 278.296 380.104 278.038 352.925 c 128,-1,46
 277.78 325.746 277.78 325.746 258.827 307.146 c 0,47,48
 254.47 302.869 254.47 302.869 250.936 298.648 c 0,49,50
 233.088 279.929 233.088 279.929 234.136 265.248 c 128,-1,51
 235.183 250.567 235.183 250.567 260.53 223.11 c 0,52,53
 318.017 160.838 318.017 160.838 441.028 128.482 c 0,54,55
 587.871 89.8574 587.871 89.8574 697.47 130.166 c 0,56,57
 759.099 152.833 759.099 152.833 790.415 194.112 c 128,-1,58
 821.731 235.393 821.731 235.393 829.294 305.67 c 1,59,60
 828.706 343.286 828.706 343.286 814.408 371.387 c 0,61,62
 799.932 399.838 799.932 399.838 771.449 419.401 c 0,63,64
 736.059 443.71 736.059 443.71 689.847 460.703 c 0,65,66
 642.426 478.141 642.426 478.141 577.714 487.405 c 0,67,68
 509.124 497.225 509.124 497.225 439.593 500.815 c 0,69,70
 369.27 504.447 369.27 504.447 284.28 503.229 c 0,71,72
 240.476 502.6 240.476 502.6 206.881 511.475 c 0,73,74
 142.262 528.544 142.262 528.544 115.517 576.468 c 0,75,76
 88.207 625.403 88.207 625.403 108.962 691.12 c 0,77,78
 138.569 784.865 138.569 784.865 250.889 874.793 c 0,79,80
 388.21 984.738 388.21 984.738 534.76 998.004 c 0,81,82
 638.791 1007.42 638.791 1007.42 721.478 960.104 c 128,-1,83
 804.163 912.786 804.163 912.786 854.578 816.762 c 0,84,85
 866.925 793.241 866.925 793.241 858.841 767.291 c 128,-1,0
 850.757 741.34 850.757 741.34 827.244 728.996 c 128,-1,1
EndSplineSet
EndChar

StartChar: t2
Encoding: 65 3360 66
Width: 1201
GlyphClass: 2
Flags: MW
LayerCount: 2
Fore
SplineSet
819.322 789.249 m 1,0,1
 782.119 772.845 782.119 772.845 751.145 798.743 c 0,2,3
 677.162 860.6 677.162 860.6 594.971 866.323 c 0,4,5
 478.724 874.417 478.724 874.417 373.948 781.112 c 128,-1,6
 269.173 687.806 269.173 687.806 229.205 550.148 c 128,-1,7
 189.237 412.49 189.237 412.49 255.11 304.443 c 0,8,9
 347.208 153.383 347.208 153.383 626.349 126.146 c 0,10,11
 734.697 115.574 734.697 115.574 827.095 196.716 c 128,-1,12
 919.664 278.008 919.664 278.008 956.907 406.352 c 0,13,14
 992.932 530.499 992.932 530.499 945.208 647.477 c 0,15,16
 911.199 730.837 911.199 730.837 819.322 789.249 c 1,0,1
753.755 953.021 m 1,17,18
 771.937 955.931 771.937 955.931 788.418 949.482 c 0,19,20
 890.391 909.584 890.391 909.584 961.783 842.786 c 0,21,22
 1091.95 720.994 1091.95 720.994 1100.89 534.938 c 0,23,24
 1108.7 372.284 1108.7 372.284 1015.67 221.766 c 0,25,26
 922.766 71.4507 922.766 71.4507 775.325 17.6332 c 0,27,28
 696.116 -11.2785 696.116 -11.2785 613.725 -3.23966 c 0,29,30
 269.994 30.298 269.994 30.298 144.113 236.77 c 0,31,32
 48.4203 393.727 48.4203 393.727 101.592 576.863 c 128,-1,33
 154.765 759.999 154.765 759.999 293.956 883.952 c 128,-1,34
 433.147 1007.9 433.147 1007.9 604.001 996.009 c 0,35,36
 682.158 990.567 682.158 990.567 753.755 953.021 c 1,17,18
EndSplineSet
EndChar

StartChar: t4
Encoding: 67 3362 68
Width: 2047
GlyphClass: 2
Flags: MW
LayerCount: 2
Fore
SplineSet
1234.27 460.886 m 1,0,1
 1253.88 347.406 1253.88 347.406 1297.02 281.563 c 0,2,3
 1383.53 149.52 1383.53 149.52 1481.73 118.361 c 128,-1,4
 1579.93 87.2026 1579.93 87.2026 1646.86 128.414 c 0,5,6
 1803.57 224.897 1803.57 224.897 1819.44 525.188 c 0,7,8
 1821.49 563.801 1821.49 563.801 1817.15 598.922 c 1,9,10
 1790.02 536.108 1790.02 536.108 1718.39 500.882 c 0,11,12
 1615.45 450.253 1615.45 450.253 1517.17 498.83 c 0,13,14
 1380.52 566.374 1380.52 566.374 1364.26 787.064 c 0,15,16
 1358.76 869.352 1358.76 869.352 1396.07 919.224 c 0,17,18
 1466.09 1012.82 1466.09 1012.82 1595.37 994.079 c 128,-1,19
 1724.66 975.339 1724.66 975.339 1823.29 873.04 c 0,20,21
 1960.51 730.714 1960.51 730.714 1949.26 518.321 c 0,22,23
 1929.76 149.941 1929.76 149.941 1715.02 17.7158 c 0,24,25
 1597.38 -54.7231 1597.38 -54.7231 1432.67 -2.46289 c 0,26,27
 1300.14 39.5908 1300.14 39.5908 1195.57 199.191 c 0,28,29
 1188.37 210.181 1188.37 210.181 1181.43 222.168 c 1,30,31
 1072.38 -56.1555 1072.38 -56.1555 832.949 -18.9619 c 0,32,33
 742.355 -4.91357 742.355 -4.91357 678.435 45.9617 c 128,-1,34
 614.514 96.8369 614.514 96.8369 597.266 160.828 c 0,35,36
 568.26 268.439 568.26 268.439 603.918 435.818 c 128,-1,37
 639.577 603.196 639.577 603.196 640.02 656.684 c 128,-1,38
 640.464 710.173 640.464 710.173 628.6 744.428 c 0,39,40
 602.744 819.082 602.744 819.082 474.457 846.529 c 1,41,42
 333.573 842.745 333.573 842.745 267.308 675.878 c 0,43,44
 224.792 568.82 224.792 568.82 230.571 428.483 c 128,-1,45
 236.349 288.147 236.349 288.147 288.74 178.426 c 0,46,47
 313.976 125.576 313.976 125.576 339.677 97.6689 c 128,-1,48
 365.379 69.7617 365.379 69.7617 364.261 42.6045 c 128,-1,49
 363.143 15.4473 363.143 15.4473 343.608 -2.54297 c 128,-1,50
 324.079 -20.5342 324.079 -20.5342 296.918 -19.4199 c 128,-1,51
 269.758 -18.3057 269.758 -18.3057 251.763 1.23242 c 0,52,53
 111.794 153.199 111.794 153.199 100.802 420.205 c 128,-1,54
 89.8093 687.212 89.8093 687.212 217.589 849.779 c 0,55,56
 317.28 976.608 317.28 976.608 480.691 976.608 c 0,57,58
 487.104 976.608 487.104 976.608 493.396 975.354 c 0,59,60
 700.49 934.085 700.49 934.085 749.914 791.382 c 0,61,62
 787.377 683.213 787.377 683.213 755.421 525.961 c 0,63,64
 742.585 462.806 742.585 462.806 722.261 367.41 c 128,-1,65
 701.937 272.014 701.937 272.014 720.647 202.599 c 128,-1,66
 739.356 133.183 739.356 133.183 854.347 109.277 c 1,67,68
 946.864 95.5786 946.864 95.5786 999.702 161.393 c 0,69,70
 1076.64 257.207 1076.64 257.207 1103 458.791 c 1,71,72
 1095.57 510.651 1095.57 510.651 1095.22 558.539 c 128,-1,73
 1094.88 606.428 1094.88 606.428 1084.82 697.875 c 128,-1,74
 1074.76 789.323 1074.76 789.323 1074.76 835.109 c 128,-1,75
 1074.76 880.895 1074.76 880.895 1082.75 915.743 c 128,-1,76
 1090.74 950.592 1090.74 950.592 1128.32 968.563 c 128,-1,77
 1165.89 986.535 1165.89 986.535 1192.62 967.73 c 128,-1,78
 1219.36 948.924 1219.36 948.924 1226.34 908.838 c 0,79,80
 1262.74 699.946 1262.74 699.946 1234.27 460.886 c 1,0,1
1754.66 753.894 m 1,81,82
 1680.3 850.408 1680.3 850.408 1580.6 864.859 c 0,83,84
 1523.9 873.077 1523.9 873.077 1507.79 851.542 c 128,-1,85
 1491.68 830.008 1491.68 830.008 1493.94 796.179 c 0,86,87
 1504.71 650.003 1504.71 650.003 1574.77 615.37 c 0,88,89
 1615.59 595.195 1615.59 595.195 1662.11 618.073 c 128,-1,90
 1708.63 640.952 1708.63 640.952 1699.62 666.958 c 128,-1,91
 1690.61 692.964 1690.61 692.964 1704.35 721.294 c 128,-1,92
 1718.1 749.624 1718.1 749.624 1754.66 753.894 c 1,81,82
EndSplineSet
EndChar

StartChar: nh
Encoding: 68 3363 69
Width: 2252
GlyphClass: 2
Flags: MW
LayerCount: 2
Fore
SplineSet
249.445 564.625 m 5,0,1
 343.234 645.934 343.234 645.934 435.812 613.836 c 132,-1,2
 528.39 581.738 528.39 581.738 577.779 476.187 c 4,3,4
 607.769 412.094 607.769 412.094 608.636 373.332 c 4,5,6
 613.753 144.95 613.753 144.95 513.616 52.5068 c 132,-1,7
 413.479 -39.9366 413.479 -39.9366 302.995 5.79245 c 132,-1,8
 192.511 51.5215 192.511 51.5215 136.475 190.006 c 132,-1,9
 80.4399 328.49 80.4399 328.49 105.001 490.236 c 4,10,11
 152.991 806.279 152.991 806.279 264.365 938.434 c 4,12,13
 322.043 1006.87 322.043 1006.87 395.028 1036.51 c 4,14,15
 532.768 1092.44 532.768 1092.44 677.978 978.041 c 4,16,17
 798.767 882.883 798.767 882.883 871.674 696.202 c 5,18,19
 942.012 933.249 942.012 933.249 1055.67 1008.02 c 4,20,21
 1118.46 1049.33 1118.46 1049.33 1180.27 1037.72 c 4,22,23
 1336.41 1008.4 1336.41 1008.4 1420.35 750.354 c 5,24,25
 1478.41 889.008 1478.41 889.008 1570.62 972.338 c 4,26,27
 1704.02 1092.89 1704.02 1092.89 1850.19 1061.28 c 132,-1,28
 1996.35 1029.66 1996.35 1029.66 2078.46 887.898 c 4,29,30
 2183.38 706.762 2183.38 706.762 2139.66 436.479 c 4,31,32
 2106.49 231.416 2106.49 231.416 1987.6 8.2041 c 4,33,34
 1975.12 -15.2344 1975.12 -15.2344 1949.12 -23.1631 c 132,-1,35
 1923.12 -31.0918 1923.12 -31.0918 1899.67 -18.6045 c 132,-1,36
 1876.23 -6.11621 1876.23 -6.11621 1868.3 19.8867 c 132,-1,37
 1860.38 45.8887 1860.38 45.8887 1872.87 69.3232 c 4,38,39
 1981.6 273.479 1981.6 273.479 2014.62 477.607 c 132,-1,40
 2047.64 681.736 2047.64 681.736 1965.97 822.741 c 4,41,42
 1912.67 914.753 1912.67 914.753 1827.19 933.244 c 132,-1,43
 1741.71 951.734 1741.71 951.734 1657.78 875.887 c 4,44,45
 1525.76 756.585 1525.76 756.585 1478.09 473.233 c 5,46,47
 1477.87 465.096 1477.87 465.096 1484.14 390.911 c 132,-1,48
 1490.41 316.727 1490.41 316.727 1493.37 181.153 c 132,-1,49
 1496.33 45.5797 1496.33 45.5797 1478.42 21.8486 c 4,50,51
 1445.7 -21.5118 1445.7 -21.5118 1400.01 -5.4044 c 132,-1,52
 1354.32 10.703 1354.32 10.703 1342.34 58.0501 c 132,-1,53
 1330.36 105.397 1330.36 105.397 1337.5 188.244 c 132,-1,54
 1344.63 271.09 1344.63 271.09 1345.08 323.772 c 132,-1,55
 1345.53 376.453 1345.53 376.453 1346.37 452.334 c 132,-1,56
 1347.21 528.215 1347.21 528.215 1317.8 636.787 c 4,57,58
 1267.95 820.806 1267.95 820.806 1203.85 882.484 c 4,59,60
 1162.25 922.525 1162.25 922.525 1130.09 901.371 c 4,61,62
 1015.5 825.985 1015.5 825.985 952.844 469.359 c 5,63,64
 951.076 381.544 951.076 381.544 948.029 221.11 c 132,-1,65
 944.982 60.6758 944.982 60.6758 943.023 42.1885 c 132,-1,66
 941.063 23.7012 941.063 23.7012 923.303 6.9707 c 132,-1,67
 905.541 -9.76074 905.541 -9.76074 880.354 -10.834 c 132,-1,68
 855.166 -11.9072 855.166 -11.9072 835.142 6.48145 c 132,-1,69
 815.117 24.8691 815.117 24.8691 813.987 51.3975 c 6,70,-1
 809.682 152.472 l 5,71,72
 804.515 332.111 804.515 332.111 799.368 465.017 c 5,73,74
 770.593 651.536 770.593 651.536 687.702 774.357 c 132,-1,75
 604.811 897.179 604.811 897.179 520.329 918.681 c 132,-1,76
 435.847 940.182 435.847 940.182 363.021 853.768 c 132,-1,77
 290.194 767.353 290.194 767.353 249.445 564.625 c 5,0,1
230.51 425.931 m 5,78,79
 226.021 315.286 226.021 315.286 259.311 233.016 c 132,-1,80
 292.601 150.745 292.601 150.745 347.278 128.066 c 4,81,82
 386.167 111.777 386.167 111.777 417.869 141.043 c 4,83,84
 481.292 199.592 481.292 199.592 478.772 364.971 c 5,85,86
 465.19 430.096 465.19 430.096 438.215 457.43 c 132,-1,87
 411.241 484.764 411.241 484.764 397.694 489.46 c 4,88,89
 361.951 501.853 361.951 501.853 309.921 441.225 c 4,90,91
 295.515 424.438 295.515 424.438 272.977 420.129 c 132,-1,92
 250.438 415.82 250.438 415.82 230.51 425.931 c 5,78,79
EndSplineSet
EndChar

StartChar: th1
Encoding: 69 3364 70
Width: 1635
GlyphClass: 2
Flags: MW
LayerCount: 2
Fore
SplineSet
346.363 16.8584 m 128,-1,1
 323.417 3.49707 323.417 3.49707 297.133 10.4355 c 128,-1,2
 270.85 17.374 270.85 17.374 257.485 40.3291 c 0,3,4
 40.6807 412.73 40.6807 412.73 99.0859 683.738 c 0,5,6
 139.595 871.705 139.595 871.705 296.728 959.51 c 0,7,8
 441.081 1040.17 441.081 1040.17 612.36 999.72 c 0,9,10
 719.106 974.508 719.106 974.508 802.753 908.642 c 1,11,12
 950.587 1024.77 950.587 1024.77 1116.83 1022.62 c 0,13,14
 1300.75 1020.24 1300.75 1020.24 1416.74 874.858 c 0,15,16
 1511.5 756.084 1511.5 756.084 1531.43 566.851 c 0,17,18
 1541.98 466.748 1541.98 466.748 1517.95 360.882 c 128,-1,19
 1493.9 254.904 1493.9 254.904 1435.43 160.854 c 0,20,21
 1375.03 63.7021 1375.03 63.7021 1288.7 8.06055 c 0,22,23
 1266.38 -6.32617 1266.38 -6.32617 1239.81 -0.583984 c 128,-1,24
 1213.24 5.1582 1213.24 5.1582 1198.85 27.4844 c 128,-1,25
 1184.46 49.8145 1184.46 49.8145 1190.2 76.3809 c 128,-1,26
 1195.95 102.947 1195.95 102.947 1218.27 117.333 c 0,27,28
 1280.05 157.147 1280.05 157.147 1325.03 229.494 c 0,29,30
 1371.96 304.983 1371.96 304.983 1391.17 389.658 c 128,-1,31
 1410.44 474.533 1410.44 474.533 1402.15 553.242 c 0,32,33
 1386.2 704.696 1386.2 704.696 1315.12 793.783 c 0,34,35
 1237.52 891.048 1237.52 891.048 1115.15 892.632 c 0,36,37
 1001.18 894.106 1001.18 894.106 894.395 815.075 c 1,38,39
 899.542 808.329 899.542 808.329 903.963 802.226 c 0,40,41
 1013.59 650.798 1013.59 650.798 1022.15 430.929 c 0,42,43
 1027.46 286.141 1027.46 286.141 1002.92 187.731 c 128,-1,44
 978.386 89.3232 978.386 89.3232 913.226 33.2715 c 0,45,46
 867.075 -6.42676 867.075 -6.42676 808.351 -10.9658 c 128,-1,47
 749.627 -15.5039 749.627 -15.5039 696.144 13.9434 c 1,48,49
 599.531 65.0908 599.531 65.0908 549.198 183.916 c 0,50,51
 493.562 315.259 493.562 315.259 528.926 458.456 c 0,52,53
 582.217 674.254 582.217 674.254 707.222 817.764 c 1,54,55
 651.532 856.887 651.532 856.887 582.474 873.202 c 0,56,57
 460.392 902.044 460.392 902.044 360.144 846.027 c 0,58,59
 254.301 786.884 254.301 786.884 226.169 656.351 c 0,60,61
 178.378 434.604 178.378 434.604 369.833 105.735 c 0,62,63
 383.196 82.7773 383.196 82.7773 376.255 56.498 c 128,-1,0
 369.313 30.2197 369.313 30.2197 346.363 16.8584 c 128,-1,1
799.171 725.288 m 1,64,65
 699.458 606.772 699.458 606.772 655.134 427.288 c 0,66,67
 630.149 326.114 630.149 326.114 668.902 234.62 c 0,68,69
 701.203 158.359 701.203 158.359 756.969 128.836 c 1,70,71
 784.771 115.251 784.771 115.251 798.186 116.291 c 128,-1,72
 811.6 117.332 811.6 117.332 828.447 131.825 c 0,73,74
 859.819 158.811 859.819 158.811 878.244 232 c 128,-1,75
 896.67 305.19 896.67 305.19 892.241 426.026 c 0,76,77
 885.26 605.466 885.26 605.466 799.171 725.288 c 1,64,65
EndSplineSet
EndChar

StartChar: th2
Encoding: 70 3365 71
Width: 1557
GlyphClass: 2
Flags: MW
LayerCount: 2
Fore
SplineSet
782.532 129.159 m 5,0,1
 491.765 433.564 491.765 433.564 533.245 699.394 c 4,2,3
 559.976 870.699 559.976 870.699 705.861 965.332 c 132,-1,4
 851.748 1059.96 851.748 1059.96 1032.26 1045.12 c 132,-1,5
 1212.77 1030.27 1212.77 1030.27 1332.09 893.524 c 4,6,7
 1497.6 703.85 1497.6 703.85 1445.1 364.104 c 5,8,9
 1386.99 67.1357 1386.99 67.1357 1163.05 13.5566 c 4,10,11
 1067.25 -9.36523 1067.25 -9.36523 972.123 -6.68555 c 132,-1,12
 876.999 -4.00488 876.999 -4.00488 734.604 0.665039 c 132,-1,13
 592.207 5.33594 592.207 5.33594 507.384 2.68652 c 4,14,15
 255.163 -5.18945 255.163 -5.18945 156.248 186.681 c 4,16,17
 26.5156 438.318 26.5156 438.318 192.974 985.598 c 4,18,19
 200.702 1011.01 200.702 1011.01 224.686 1023.8 c 132,-1,20
 248.669 1036.6 248.669 1036.6 274.075 1028.87 c 4,21,22
 336.262 1009.95 336.262 1009.95 311.744 929.348 c 4,23,24
 166.25 450.99 166.25 450.99 271.796 246.251 c 4,25,26
 333.017 127.5 333.017 127.5 503.75 132.443 c 4,27,28
 591.466 135.384 591.466 135.384 782.532 129.159 c 5,0,1
909.938 125.138 m 5,29,30
 1119 118.995 1119 118.995 1186.19 159.674 c 132,-1,31
 1253.39 200.352 1253.39 200.352 1278.95 261.913 c 132,-1,32
 1304.52 323.474 1304.52 323.474 1317.02 386.528 c 5,33,34
 1359.38 664.523 1359.38 664.523 1234.14 808.051 c 4,35,36
 1149.51 905.035 1149.51 905.035 1017.4 915.9 c 132,-1,37
 885.29 926.767 885.29 926.767 782.377 860.01 c 132,-1,38
 679.464 793.253 679.464 793.253 661.691 679.354 c 4,39,40
 628.686 467.835 628.686 467.835 896.936 198.033 c 4,41,42
 928.59 166.195 928.59 166.195 909.938 125.138 c 5,29,30
EndSplineSet
EndChar

StartChar: th3
Encoding: 71 3366 72
Width: 1195
GlyphClass: 2
Flags: MW
LayerCount: 2
Fore
SplineSet
296.572 -0.0976562 m 132,-1,1
 272.98 -12.2842 272.98 -12.2842 247.081 -4.02832 c 132,-1,2
 221.182 4.22852 221.182 4.22852 208.992 27.8281 c 4,3,4
 -16.9082 465.229 -16.9082 465.229 100.121 742.304 c 4,5,6
 174.831 919.186 174.831 919.186 366.631 989.438 c 4,7,8
 529.412 1049.06 529.412 1049.06 697.1 1010.13 c 132,-1,9
 864.787 971.206 864.787 971.206 936.078 862.139 c 4,10,11
 1033.46 713.153 1033.46 713.153 901.463 533.818 c 4,12,13
 865.864 485.453 865.864 485.453 813.338 436.879 c 5,14,15
 968.653 410.533 968.653 410.533 1040.03 332.962 c 4,16,17
 1080.21 289.297 1080.21 289.297 1086.71 233.975 c 132,-1,18
 1093.21 178.651 1093.21 178.651 1064.04 126.859 c 4,19,20
 1012.73 36.0576 1012.73 36.0576 888.603 -2.4502 c 4,21,22
 707.294 -58.6959 707.294 -58.6959 512.729 39.5566 c 4,23,24
 489.027 51.5303 489.027 51.5303 480.535 77.3496 c 132,-1,25
 472.044 103.169 472.044 103.169 484.019 126.882 c 132,-1,26
 495.994 150.59 495.994 150.59 521.818 159.079 c 132,-1,27
 547.644 167.568 547.644 167.568 564.187 159.21 c 4,28,29
 718.933 81.0261 718.933 81.0261 850.086 121.713 c 4,30,31
 924.563 144.817 924.563 144.817 950.886 190.857 c 4,32,33
 961.39 209.377 961.39 209.377 960.291 219.1 c 132,-1,34
 959.192 228.822 959.192 228.822 937.251 252.668 c 132,-1,35
 915.31 276.514 915.31 276.514 839.105 297.785 c 132,-1,36
 762.901 319.058 762.901 319.058 642.598 320.798 c 4,37,38
 608.961 321.284 608.961 321.284 591.938 346.104 c 132,-1,39
 574.915 370.923 574.915 370.923 579.895 397.648 c 132,-1,40
 584.874 424.374 584.874 424.374 606.771 439.394 c 4,41,42
 798.093 570.627 798.093 570.627 838.348 684.665 c 4,43,44
 858.836 742.704 858.836 742.704 821.686 799.542 c 132,-1,45
 784.535 856.379 784.535 856.379 661.142 885.024 c 132,-1,46
 537.749 913.669 537.749 913.669 405.176 865.11 c 132,-1,47
 272.603 816.552 272.603 816.552 219.877 691.722 c 4,48,49
 126.551 470.77 126.551 470.77 324.498 87.4824 c 4,50,51
 336.685 63.8789 336.685 63.8789 328.426 37.9834 c 132,-1,0
 320.167 12.0889 320.167 12.0889 296.572 -0.0976562 c 132,-1,1
EndSplineSet
EndChar

StartChar: n1
Encoding: 73 3368 74
Width: 1587
GlyphClass: 2
Flags: MW
LayerCount: 2
Fore
SplineSet
282.867 5.35449 m 128,-1,1
 258.307 -4.74609 258.307 -4.74609 233.22 5.7168 c 128,-1,2
 208.132 16.1797 208.132 16.1797 198.028 40.7441 c 0,3,4
 62.2939 370.77 62.2939 370.77 114.503 642.302 c 0,5,6
 151.938 837 151.938 837 271.502 933.157 c 0,7,8
 392.075 1030.12 392.075 1030.12 533.776 975.371 c 0,9,10
 705.725 908.929 705.725 908.929 786.771 621.907 c 1,11,12
 821.106 721.937 821.106 721.937 869.909 800.353 c 0,13,14
 977.419 973.098 977.419 973.098 1126.9 998.825 c 0,15,16
 1268.25 1023.16 1268.25 1023.16 1376.79 905.588 c 128,-1,17
 1485.32 788.02 1485.32 788.02 1487.8 552.451 c 128,-1,18
 1490.27 316.883 1490.27 316.883 1337.59 22.0488 c 0,19,20
 1325.38 -1.5332 1325.38 -1.5332 1299.48 -9.76367 c 128,-1,21
 1273.57 -17.9951 1273.57 -17.9951 1249.98 -5.78125 c 128,-1,22
 1226.4 6.43359 1226.4 6.43359 1218.17 32.3418 c 128,-1,23
 1209.94 58.25 1209.94 58.25 1222.15 81.8281 c 0,24,25
 1359.94 347.903 1359.94 347.903 1357.62 568.118 c 0,26,27
 1355.85 736.611 1355.85 736.611 1276.9 822.14 c 0,28,29
 1220.66 883.054 1220.66 883.054 1138.81 868.965 c 128,-1,30
 1056.96 854.877 1056.96 854.877 977.333 726.928 c 0,31,32
 855.991 531.956 855.991 531.956 839.81 156.272 c 1,33,34
 839.537 106.686 839.537 106.686 837.951 67.4819 c 128,-1,35
 836.365 28.2783 836.365 28.2783 816.382 9.84766 c 128,-1,36
 796.398 -8.58398 796.398 -8.58398 769.866 -7.51172 c 128,-1,37
 743.526 -6.44727 743.526 -6.44727 725.447 13.5127 c 128,-1,38
 707.369 33.4727 707.369 33.4727 707.562 71.582 c 128,-1,39
 707.755 109.691 707.755 109.691 709.052 197.916 c 128,-1,40
 710.35 286.14 710.35 286.14 695.509 417.451 c 128,-1,41
 680.669 548.762 680.669 548.762 636.364 662.629 c 0,42,43
 574.986 820.377 574.986 820.377 482.617 856.582 c 1,44,45
 417.381 883.652 417.381 883.652 343.986 824.626 c 128,-1,46
 270.591 765.6 270.591 765.6 242.164 617.756 c 0,47,48
 197.282 384.33 197.282 384.33 318.257 90.1934 c 0,49,50
 328.36 65.6279 328.36 65.6279 317.894 40.542 c 128,-1,0
 307.427 15.4561 307.427 15.4561 282.867 5.35449 c 128,-1,1
EndSplineSet
EndChar

StartChar: p1
Encoding: 75 3370 75
Width: 1913
GlyphClass: 2
Flags: MW
LayerCount: 2
Fore
SplineSet
354.985 15.9121 m 128,-1,1
 336.973 -3.60156 336.973 -3.60156 309.814 -4.69043 c 128,-1,2
 282.656 -5.77832 282.656 -5.77832 263.135 12.2373 c 0,3,4
 45.251 213.361 45.251 213.361 118.374 400.883 c 0,5,6
 166.247 523.649 166.247 523.649 316.408 589.32 c 128,-1,7
 466.568 654.991 466.568 654.991 621.942 637.015 c 128,-1,8
 777.315 619.038 777.315 619.038 828.949 503.649 c 0,9,10
 899.651 345.646 899.651 345.646 694.141 101.983 c 1,11,12
 738.869 102.455 738.869 102.455 803.978 106.051 c 128,-1,13
 869.086 109.646 869.086 109.646 896.801 108.98 c 0,14,15
 1644.85 90.8154 1644.85 90.8154 1677.1 195.615 c 0,16,17
 1697.1 260.643 1697.1 260.643 1656.29 388.412 c 0,18,19
 1655.53 390.771 1655.53 390.771 1654.96 393.177 c 0,20,21
 1577.18 720.844 1577.18 720.844 1610.83 964.882 c 0,22,23
 1614.46 991.188 1614.46 991.188 1636.13 1007.6 c 128,-1,24
 1657.79 1024.02 1657.79 1024.02 1684.1 1020.39 c 128,-1,25
 1710.42 1016.76 1710.42 1016.76 1726.83 995.093 c 128,-1,26
 1743.24 973.426 1743.24 973.426 1739.61 947.118 c 0,27,28
 1709.45 728.368 1709.45 728.368 1780.89 425.561 c 1,29,30
 1873.16 134.015 1873.16 134.015 1705.79 48.1084 c 0,31,32
 1639.95 14.3115 1639.95 14.3115 1541.1 -1.66699 c 0,33,34
 1481.04 -11.3752 1481.04 -11.3752 632.849 -25.2451 c 1,35,36
 583.854 -19.5977 583.854 -19.5977 555.363 10.8008 c 0,37,38
 496.05 74.0859 496.05 74.0859 572.952 160.614 c 0,39,40
 750.625 360.406 750.625 360.406 707.701 456.331 c 0,41,42
 688.876 498.4 688.876 498.4 587.69 510.111 c 128,-1,43
 486.505 521.821 486.505 521.821 377.136 473.99 c 128,-1,44
 267.766 426.159 267.766 426.159 239.491 353.652 c 0,45,46
 198.581 248.744 198.581 248.744 351.312 107.762 c 0,47,48
 370.829 89.7461 370.829 89.7461 371.913 62.584 c 128,-1,0
 372.998 35.4219 372.998 35.4219 354.985 15.9121 c 128,-1,1
EndSplineSet
EndChar

StartChar: p2
Encoding: 76 3371 76
Width: 2113
GlyphClass: 2
Flags: MW
LayerCount: 2
Fore
SplineSet
1213.8 112.017 m 1,0,1
 1066.84 261.405 1066.84 261.405 1059.81 518.627 c 0,2,3
 1054.9 698.074 1054.9 698.074 1156.29 831.996 c 128,-1,4
 1257.68 965.918 1257.68 965.918 1411.34 1011.19 c 128,-1,5
 1564.99 1056.47 1564.99 1056.47 1717.27 977.291 c 128,-1,6
 1869.55 898.111 1869.55 898.111 1951.75 683.84 c 0,7,8
 2073.67 366.02 2073.67 366.02 1955.64 172.895 c 128,-1,9
 1837.61 -20.2305 1837.61 -20.2305 1538.66 -20.2305 c 1,10,-1
 636.646 -13.998 l 2,11,12
 617.221 -13.8643 617.221 -13.8643 598.088 -1.11621 c 128,-1,13
 578.957 11.6309 578.957 11.6309 573.619 38.2881 c 128,-1,14
 568.279 64.9453 568.279 64.9453 576.568 77.3838 c 128,-1,15
 584.857 89.8232 584.857 89.8232 607.553 124.205 c 0,16,17
 674.135 225.066 674.135 225.066 696.959 317.545 c 0,18,19
 729.475 449.288 729.475 449.288 652.662 493.771 c 0,20,21
 624.473 510.097 624.473 510.097 572.389 514.396 c 0,22,23
 466.871 523.104 466.871 523.104 365.426 469.762 c 128,-1,24
 263.98 416.421 263.98 416.421 238.368 340.4 c 0,25,26
 201.373 230.592 201.373 230.592 345.018 98.915 c 0,27,28
 364.598 80.9668 364.598 80.9668 365.777 53.8086 c 128,-1,29
 366.955 26.6504 366.955 26.6504 349.012 7.07812 c 128,-1,30
 331.066 -12.498 331.066 -12.498 303.912 -13.6807 c 128,-1,31
 276.758 -14.8633 276.758 -14.8633 257.174 3.08496 c 0,32,33
 51.167 191.926 51.167 191.926 115.173 381.906 c 0,34,35
 157.404 507.258 157.404 507.258 298.635 581.518 c 128,-1,36
 439.865 655.778 439.865 655.778 595.18 642.956 c 128,-1,37
 750.494 630.134 750.494 630.134 811.574 506.303 c 0,38,39
 885.23 356.978 885.23 356.978 752.424 115.205 c 1,40,-1
 1213.8 112.017 l 1,0,1
1357.17 111.026 m 1,41,-1
 1539.11 109.77 l 1,42,43
 1694.48 109.77 1694.48 109.77 1792.64 182.918 c 0,44,45
 1957.54 305.791 1957.54 305.791 1830.38 637.275 c 0,46,47
 1739.07 875.307 1739.07 875.307 1550.12 895.006 c 0,48,49
 1444.86 905.98 1444.86 905.98 1345.74 837.057 c 128,-1,50
 1246.62 768.133 1246.62 768.133 1211.04 659.381 c 128,-1,51
 1175.47 550.63 1175.47 550.63 1200.86 416.986 c 128,-1,52
 1226.25 283.342 1226.25 283.342 1308.28 201.367 c 0,53,54
 1318.32 191.336 1318.32 191.336 1333.13 181.318 c 128,-1,55
 1347.95 171.301 1347.95 171.301 1355.2 151.248 c 128,-1,56
 1362.45 131.195 1362.45 131.195 1357.17 111.026 c 1,41,-1
EndSplineSet
EndChar

StartChar: p3
Encoding: 77 3372 77
Width: 1939
GlyphClass: 2
Flags: MW
LayerCount: 2
Fore
SplineSet
230.163 499.146 m 5,0,1
 352.512 634.451 352.512 634.451 517.676 563.185 c 4,2,3
 602.418 526.62 602.418 526.62 638.057 430.021 c 4,4,5
 655.981 381.438 655.981 381.438 651.043 330.004 c 4,6,7
 632.201 133.778 632.201 133.778 525.551 51.5479 c 132,-1,8
 418.9 -30.6836 418.9 -30.6836 302.061 25.8535 c 132,-1,9
 185.221 82.3916 185.221 82.3916 132.859 247.583 c 4,10,11
 99.7109 352.163 99.7109 352.163 100.003 485.704 c 4,12,13
 100.535 729.941 100.535 729.941 238.808 883.938 c 4,14,15
 348.056 1005.61 348.056 1005.61 497.852 1018.95 c 132,-1,16
 647.648 1032.28 647.648 1032.28 757.014 909.605 c 4,17,18
 794.872 867.136 794.872 867.136 818.339 809.799 c 5,19,20
 894.171 909.509 894.171 909.509 1033.71 977.739 c 4,21,22
 1207.28 1062.61 1207.28 1062.61 1375.44 965.449 c 4,23,24
 1451.84 921.308 1451.84 921.308 1496.42 811.819 c 132,-1,25
 1540.99 702.33 1540.99 702.33 1541.88 550.714 c 4,26,27
 1543.32 305.682 1543.32 305.682 1306.08 129.294 c 5,28,29
 1527.02 130.069 1527.02 130.069 1563.77 126.766 c 4,30,31
 1634.68 120.391 1634.68 120.391 1664.6 180.596 c 4,32,33
 1731.46 315.109 1731.46 315.109 1698.11 704.991 c 4,34,35
 1688.01 823.145 1688.01 823.145 1697.37 952.797 c 4,36,37
 1699.28 979.282 1699.28 979.282 1719.84 997.07 c 132,-1,38
 1740.39 1014.86 1740.39 1014.86 1766.89 1012.94 c 132,-1,39
 1793.38 1011.03 1793.38 1011.03 1811.16 990.472 c 132,-1,40
 1828.95 969.915 1828.95 969.915 1827.03 943.428 c 4,41,42
 1818.41 824.005 1818.41 824.005 1828.32 708.105 c 4,43,44
 1864.09 289.879 1864.09 289.879 1781.01 122.732 c 4,45,46
 1747.82 55.9404 1747.82 55.9404 1685.77 23.6865 c 132,-1,47
 1623.72 -8.56738 1623.72 -8.56738 1546.16 -2.16602 c 5,48,49
 1111.02 3.54395 1111.02 3.54395 1049.98 -11.043 c 4,50,51
 1027.42 -16.4346 1027.42 -16.4346 1005.9 -5.72559 c 132,-1,52
 984.377 4.98438 984.377 4.98438 974.521 27.9854 c 132,-1,53
 964.668 50.9863 964.668 50.9863 974.768 76.2266 c 132,-1,54
 984.866 101.467 984.866 101.467 1009.27 111.924 c 4,55,56
 1413.43 285.084 1413.43 285.084 1411.88 549.958 c 4,57,58
 1411.14 676.516 1411.14 676.516 1379.69 753.771 c 132,-1,59
 1348.24 831.029 1348.24 831.029 1304.34 856.39 c 4,60,61
 1158.28 940.774 1158.28 940.774 971.945 783.875 c 4,62,63
 860.571 690.096 860.571 690.096 860.133 578.444 c 132,-1,64
 859.693 466.792 859.693 466.792 860.438 352.341 c 132,-1,65
 861.18 237.89 861.18 237.89 860.209 113.556 c 5,66,-1
 858.87 69.377 l 6,67,68
 858.066 42.8359 858.066 42.8359 838.27 24.2041 c 132,-1,69
 818.473 5.57129 818.473 5.57129 792.119 6.37012 c 132,-1,70
 765.765 7.16797 765.765 7.16797 747.746 26.9316 c 132,-1,71
 729.729 46.6963 729.729 46.6963 728.431 83.5361 c 132,-1,72
 727.132 120.375 727.132 120.375 727.496 295.331 c 132,-1,73
 727.86 470.286 727.86 470.286 726.723 517.204 c 132,-1,74
 725.586 564.122 725.586 564.122 725.716 568.966 c 4,75,76
 730.442 744.047 730.442 744.047 662.268 820.523 c 132,-1,77
 594.092 897 594.092 897 502.335 888.83 c 132,-1,78
 410.578 880.66 410.578 880.66 335.537 797.084 c 4,79,80
 234.229 684.253 234.229 684.253 230.163 499.146 c 5,0,1
235.236 389.734 m 5,81,82
 241.962 333.623 241.962 333.623 256.783 286.863 c 4,83,84
 292.331 174.718 292.331 174.718 353.055 145.015 c 4,85,86
 401.626 120.153 401.626 120.153 454.905 161.232 c 132,-1,87
 508.184 202.312 508.184 202.312 521.638 342.43 c 4,88,89
 523.738 364.303 523.738 364.303 516.094 385.021 c 4,90,91
 499.566 429.817 499.566 429.817 459.851 448.232 c 4,92,93
 384.95 482.961 384.95 482.961 334.302 421.627 c 132,-1,94
 283.652 360.292 283.652 360.292 235.236 389.734 c 5,81,82
EndSplineSet
EndChar

StartChar: p4
Encoding: 78 3373 78
Width: 1168
GlyphClass: 2
Flags: MW
LayerCount: 2
Fore
SplineSet
399.965 21.2588 m 132,-1,1
 383.32 0.566406 383.32 0.566406 356.299 -2.36426 c 132,-1,2
 329.277 -5.2959 329.277 -5.2959 308.576 11.3525 c 4,3,4
 91.8906 185.652 91.8906 185.652 100.315 459.238 c 4,5,6
 104.598 598.315 104.598 598.315 196.455 748.422 c 4,7,8
 270.507 869.432 270.507 869.432 413.866 940.877 c 132,-1,9
 557.226 1012.32 557.226 1012.32 728.123 965.177 c 5,10,11
 886.335 917.086 886.335 917.086 952.883 809.573 c 4,12,13
 1034.15 678.274 1034.15 678.274 947.605 580.06 c 4,14,15
 905.63 532.427 905.63 532.427 814.599 504.642 c 132,-1,16
 723.566 476.856 723.566 476.856 687.38 437.81 c 5,17,18
 732.393 413.932 732.393 413.932 839.072 412.307 c 4,19,20
 842.868 412.249 842.868 412.249 846.632 411.75 c 4,21,22
 1013.53 389.605 1013.53 389.605 1057.33 278.771 c 5,23,24
 1092.81 179.071 1092.81 179.071 1019.73 89.5088 c 132,-1,25
 946.651 -0.0527344 946.651 -0.0527344 821.771 -13.4023 c 132,-1,26
 696.895 -26.751 696.895 -26.751 574.363 38.2871 c 4,27,28
 550.907 50.7373 550.907 50.7373 542.939 76.7236 c 132,-1,29
 534.973 102.71 534.973 102.71 547.425 126.175 c 132,-1,30
 559.879 149.637 559.879 149.637 585.869 157.601 c 132,-1,31
 611.859 165.564 611.859 165.564 635.312 153.113 c 4,32,33
 722.672 106.745 722.672 106.745 801.188 115.138 c 132,-1,34
 879.706 123.531 879.706 123.531 914.429 166.087 c 132,-1,35
 949.15 208.642 949.15 208.642 936.442 230.969 c 5,36,37
 920.791 269.801 920.791 269.801 833.104 282.391 c 5,38,39
 669.111 285.709 669.111 285.709 601.42 339.146 c 4,40,41
 554.948 375.832 554.948 375.832 552.644 427.364 c 4,42,43
 546.758 558.975 546.758 558.975 793.108 633.977 c 4,44,45
 863.575 655.431 863.575 655.431 860.657 690.942 c 4,46,47
 855.971 747.96 855.971 747.96 786.373 795.701 c 4,48,49
 745.092 824.019 745.092 824.019 690.025 839.951 c 4,50,51
 571.576 874.225 571.576 874.225 466.741 821.979 c 132,-1,52
 361.906 769.732 361.906 769.732 307.339 680.562 c 4,53,54
 233.474 559.858 233.474 559.858 230.254 455.238 c 4,55,56
 223.825 246.364 223.825 246.364 390.059 112.647 c 4,57,58
 410.756 95.999 410.756 95.999 413.683 68.9736 c 132,-1,0
 416.61 41.9473 416.61 41.9473 399.965 21.2588 c 132,-1,1
EndSplineSet
EndChar

StartChar: m1
Encoding: 79 3374 79
Width: 1503
GlyphClass: 2
Flags: MW
LayerCount: 2
Fore
SplineSet
1352.2 644.679 m 1,0,1
 1362.42 621.399 1362.42 621.399 1354.87 597.936 c 0,2,3
 1317.31 481.195 1317.31 481.195 1327.24 394.8 c 128,-1,4
 1337.16 308.404 1337.16 308.404 1383.23 195.161 c 0,5,6
 1394.78 166.75 1394.78 166.75 1401.19 139.428 c 4,7,8
 1403.35 130.192 1403.35 130.192 1403.11 124.439 c 128,-1,9
 1402.86 118.687 1402.86 118.687 1402.61 98.211 c 128,-1,10
 1402.35 77.7355 1402.35 77.7355 1385.59 55.8087 c 128,-1,11
 1368.84 33.8818 1368.84 33.8818 1344.11 20.4298 c 128,-1,12
 1319.39 6.97768 1319.39 6.97768 1290.35 2.64394 c 128,-1,13
 1261.31 -1.6898 1261.31 -1.6898 1188.98 -6.945 c 128,-1,14
 1116.66 -12.2002 1116.66 -12.2002 626.131 4.41211 c 1,15,16
 437.889 6.09668 437.889 6.09668 336.738 4.87891 c 128,-1,17
 235.587 3.66113 235.587 3.66113 221.212 4.50146 c 128,-1,18
 206.838 5.3418 206.838 5.3418 189.527 20.8936 c 128,-1,19
 172.218 36.4453 172.218 36.4453 168.418 60.7935 c 128,-1,20
 164.619 85.1416 164.619 85.1416 180.648 107.099 c 128,-1,21
 196.678 129.056 196.678 129.056 222.914 133.149 c 2,22,-1
 245.665 136.699 l 1,23,24
 362.386 149.995 362.386 149.995 456.372 168.111 c 0,25,26
 713.113 218.632 713.113 218.632 916.026 351.526 c 128,-1,27
 1118.94 484.42 1118.94 484.42 1193.4 611.585 c 128,-1,28
 1267.85 738.751 1267.85 738.751 1215.95 809.853 c 0,29,30
 1130.93 926.331 1130.93 926.331 769.386 922.327 c 0,31,32
 580.664 920.236 580.664 920.236 419.114 838.904 c 128,-1,33
 257.563 757.572 257.563 757.572 232.463 657.716 c 0,34,35
 218.647 602.758 218.647 602.758 286.64 524.294 c 128,-1,36
 354.632 445.83 354.632 445.83 554.221 363.663 c 0,37,38
 578.782 353.551 578.782 353.551 589.237 328.46 c 128,-1,39
 599.691 303.369 599.691 303.369 589.583 278.812 c 128,-1,40
 579.474 254.257 579.474 254.257 554.384 243.798 c 128,-1,41
 529.295 233.339 529.295 233.339 504.732 243.45 c 0,42,43
 173.997 379.606 173.997 379.606 112.749 562.946 c 0,44,45
 74.0925 678.673 74.0925 678.673 155.687 794.496 c 0,46,47
 218.272 883.333 218.272 883.333 356.146 952.742 c 0,48,49
 548.882 1049.78 548.882 1049.78 765.484 1052.24 c 128,-1,50
 982.085 1054.69 982.085 1054.69 1117.93 1016.62 c 128,-1,51
 1253.77 978.545 1253.77 978.545 1325.57 880.169 c 128,-1,52
 1397.38 781.793 1397.38 781.793 1352.2 644.679 c 1,0,1
1196.74 408.361 m 1,53,54
 1029.2 239.042 1029.2 239.042 772.673 129.798 c 1,55,56
 1130.53 119.15 1130.53 119.15 1188.8 123.384 c 128,-1,57
 1247.07 127.618 1247.07 127.618 1267.15 132.339 c 1,58,59
 1263.16 145.087 1263.16 145.087 1231.75 223.543 c 128,-1,60
 1200.34 301.998 1200.34 301.998 1196.74 408.361 c 1,53,54
EndSplineSet
EndChar

StartChar: y1
Encoding: 80 3375 80
Width: 1598
GlyphClass: 2
Flags: MW
LayerCount: 2
Fore
SplineSet
778.91 738.646 m 5,0,1
 800.778 673.995 800.778 673.995 811.216 590.86 c 132,-1,2
 821.654 507.726 821.654 507.726 822.544 501.062 c 4,3,4
 841.847 356.736 841.847 356.736 884.996 271.401 c 5,5,6
 919.308 311.072 919.308 311.072 948.883 361.398 c 4,7,8
 1063.3 556.081 1063.3 556.081 1005.99 729.164 c 4,9,10
 986.757 787.229 986.757 787.229 938.371 842.263 c 132,-1,11
 889.985 897.297 889.985 897.297 837.61 889.613 c 132,-1,12
 785.236 881.93 785.236 881.93 776.454 842.395 c 4,13,14
 771.913 821.956 771.913 821.956 785.342 796.186 c 132,-1,15
 798.771 770.415 798.771 770.415 778.91 738.646 c 5,0,1
664.039 912.506 m 5,16,17
 707.522 1001.92 707.522 1001.92 810.424 1017.02 c 4,18,19
 940.986 1036.17 940.986 1036.17 1049.82 912.382 c 132,-1,20
 1158.65 788.596 1158.65 788.596 1154.68 618.428 c 132,-1,21
 1150.71 448.261 1150.71 448.261 1060.96 295.533 c 4,22,23
 1018.62 223.486 1018.62 223.486 966.682 167.86 c 5,24,25
 1057.92 94.6706 1057.92 94.6706 1164.27 130.748 c 4,26,27
 1306.99 179.173 1306.99 179.173 1365.5 382.234 c 4,28,29
 1403.65 514.663 1403.65 514.663 1368.05 660.969 c 132,-1,30
 1332.45 807.269 1332.45 807.269 1228.95 916.622 c 4,31,32
 1210.69 935.904 1210.69 935.904 1211.44 963.079 c 132,-1,33
 1212.18 990.254 1212.18 990.254 1231.47 1008.51 c 132,-1,34
 1250.77 1026.77 1250.77 1026.77 1277.94 1026.02 c 132,-1,35
 1305.11 1025.27 1305.11 1025.27 1323.36 1005.98 c 4,36,37
 1450.59 871.555 1450.59 871.555 1494.36 691.707 c 132,-1,38
 1538.13 511.853 1538.13 511.853 1489.99 344.755 c 132,-1,39
 1441.85 177.657 1441.85 177.657 1338.19 85.4961 c 4,40,41
 1206.98 -31.1666 1206.98 -31.1666 1048.73 -7.08203 c 4,42,43
 948.561 8.16359 948.561 8.16359 866.568 82.5059 c 5,44,45
 746.429 2.63429 746.429 2.63429 605.855 -2.3877 c 4,46,47
 419.125 -9.06072 419.125 -9.06072 275.087 109.967 c 132,-1,48
 131.051 228.996 131.051 228.996 102.421 413.642 c 132,-1,49
 73.7896 598.282 73.7896 598.282 175.014 755.345 c 4,50,51
 221.843 828.006 221.843 828.006 289.628 879.943 c 5,52,53
 343.912 944.391 343.912 944.391 428.257 966.276 c 4,54,55
 556.347 999.512 556.347 999.512 664.039 912.506 c 5,16,17
784.588 184.309 m 5,56,57
 716.867 298.77 716.867 298.77 690.714 507.088 c 132,-1,58
 664.56 715.407 664.56 715.407 605.492 789.02 c 132,-1,59
 546.425 862.634 546.425 862.634 458.642 839.854 c 4,60,61
 414.348 828.361 414.348 828.361 385.998 792.439 c 4,62,63
 380.578 785.572 380.578 785.572 373.537 780.383 c 4,64,65
 262.796 698.77 262.796 698.77 234.21 564.207 c 132,-1,66
 205.621 429.642 205.621 429.642 273.618 310.057 c 132,-1,67
 341.614 190.47 341.614 190.47 471.87 146.226 c 4,68,69
 634.659 90.932 634.659 90.932 784.588 184.309 c 5,56,57
EndSplineSet
EndChar

StartChar: r3
Encoding: 81 3376 81
Width: 1234
GlyphClass: 2
Flags: MW
LayerCount: 2
Fore
SplineSet
568.104 443.256 m 5,0,1
 573.63 688.224 573.63 688.224 807.051 866.227 c 5,2,3
 737.181 892.862 737.181 892.862 617.511 888.125 c 132,-1,4
 497.842 883.389 497.842 883.389 375.847 794.646 c 132,-1,5
 253.852 705.904 253.852 705.904 233.731 568.382 c 4,6,7
 203.275 360.216 203.275 360.216 425.812 112.88 c 4,8,9
 469.283 64.5554 469.283 64.5554 420.966 21.0799 c 132,-1,10
 372.649 -22.3957 372.649 -22.3957 329.171 25.9287 c 4,11,12
 65.8096 318.64 65.8096 318.64 105.101 587.2 c 4,13,14
 133.141 778.855 133.141 778.855 293.21 895.291 c 132,-1,15
 453.279 1011.73 453.279 1011.73 650.286 1019.52 c 132,-1,16
 847.292 1027.32 847.292 1027.32 983.392 909.645 c 4,17,18
 1173.92 743.294 1173.92 743.294 1124.64 414.161 c 5,19,20
 1092.33 112.706 1092.33 112.706 936.57 23.5566 c 4,21,22
 824.668 -40.49 824.668 -40.49 719.015 40.6416 c 4,23,24
 574.17 151.864 574.17 151.864 568.104 443.256 c 5,0,1
921.971 788.347 m 5,25,26
 703.653 645.26 703.653 645.26 698.137 443.104 c 5,27,28
 703.364 216.57 703.364 216.57 798.191 143.748 c 4,29,30
 858.324 97.5766 858.324 97.5766 918.029 179.678 c 132,-1,31
 977.734 261.78 977.734 261.78 995.447 428.679 c 4,32,33
 995.662 430.73 995.662 430.73 997.197 440.823 c 4,34,35
 1031.85 668.602 1031.85 668.602 921.971 788.347 c 5,25,26
EndSplineSet
EndChar

StartChar: rh
Encoding: 82 3377 82
Width: 1142
GlyphClass: 2
Flags: MW
LayerCount: 2
Fore
SplineSet
312.34 5.24316 m 132,-1,1
 288.412 -6.26953 288.412 -6.26953 262.757 2.71777 c 132,-1,2
 237.102 11.7051 237.102 11.7051 225.588 35.6416 c 4,3,4
 36.1367 429.498 36.1367 429.498 132.476 704.198 c 4,5,6
 197.058 888.348 197.058 888.348 362.155 967.984 c 132,-1,7
 527.253 1047.62 527.253 1047.62 700.817 1007.82 c 132,-1,8
 874.38 968.014 874.38 968.014 968.017 828.582 c 4,9,10
 1096.07 637.902 1096.07 637.902 1004.48 356.317 c 4,11,12
 950.211 189.486 950.211 189.486 818.96 4.41309 c 4,13,14
 803.598 -17.248 803.598 -17.248 776.803 -21.8096 c 132,-1,15
 750.009 -26.3721 750.009 -26.3721 728.338 -11.0078 c 132,-1,16
 706.672 4.35742 706.672 4.35742 702.113 31.1562 c 132,-1,17
 697.555 57.9561 697.555 57.9561 712.917 79.6143 c 4,18,19
 832.731 248.56 832.731 248.56 880.853 396.525 c 4,20,21
 952.87 617.974 952.87 617.974 860.099 756.101 c 4,22,23
 795.373 852.469 795.373 852.469 668.822 881.498 c 132,-1,24
 542.271 910.527 542.271 910.527 422.109 852.568 c 132,-1,25
 301.948 794.608 301.948 794.608 255.15 661.175 c 4,26,27
 176.637 437.312 176.637 437.312 342.738 91.9951 c 4,28,29
 354.251 68.0547 354.251 68.0547 345.261 42.4043 c 132,-1,0
 336.271 16.7549 336.271 16.7549 312.34 5.24316 c 132,-1,1
EndSplineSet
EndChar

StartChar: l3
Encoding: 83 3378 83
Width: 1648
GlyphClass: 2
Flags: MW
LayerCount: 2
Fore
SplineSet
240.232 447.579 m 132,-1,1
 239.199 474.114 239.199 474.114 257.655 494.07 c 132,-1,2
 276.111 514.025 276.111 514.025 302.653 515.06 c 4,3,4
 524.449 523.696 524.449 523.696 664.068 559.407 c 132,-1,5
 803.688 595.118 803.688 595.118 849.471 644.674 c 4,6,7
 870.767 667.724 870.767 667.724 871.076 684.846 c 132,-1,8
 871.387 701.967 871.387 701.967 844.893 739.646 c 4,9,10
 788.215 820.256 788.215 820.256 642.776 866.884 c 132,-1,11
 497.336 913.513 497.336 913.513 374.494 882.995 c 4,12,13
 325.501 870.824 325.501 870.824 291.304 835.499 c 132,-1,14
 257.107 800.174 257.107 800.174 247.612 743.617 c 5,15,16
 204.819 391.381 204.819 391.381 261.379 259.27 c 4,17,18
 293.838 183.458 293.838 183.458 349.198 158.215 c 132,-1,19
 404.559 132.973 404.559 132.973 478.384 129.6 c 132,-1,20
 552.209 126.227 552.209 126.227 747.459 115.644 c 132,-1,21
 942.71 105.061 942.71 105.061 1060.48 114.575 c 4,22,23
 1261.82 130.84 1261.82 130.84 1341.22 221.25 c 4,24,25
 1452.32 347.747 1452.32 347.747 1400.67 718.223 c 5,26,27
 1384.6 822.214 1384.6 822.214 1354.63 946.699 c 4,28,29
 1348.41 972.518 1348.41 972.518 1362.59 995.706 c 132,-1,30
 1376.77 1018.89 1376.77 1018.89 1402.6 1025.11 c 132,-1,31
 1428.42 1031.33 1428.42 1031.33 1451.61 1017.14 c 132,-1,32
 1474.79 1002.96 1474.79 1002.96 1481.01 977.14 c 4,33,34
 1631.02 354.217 1631.02 354.217 1438.9 135.468 c 4,35,36
 1324.76 5.50098 1324.76 5.50098 1070.95 -15.0029 c 4,37,38
 944.43 -25.2246 944.43 -25.2246 745.091 -14.4189 c 132,-1,39
 545.753 -3.61426 545.753 -3.61426 491.14 -1.11914 c 4,40,41
 287.446 8.18945 287.446 8.18945 205.825 103.242 c 132,-1,42
 124.203 198.296 124.203 198.296 106.183 354.393 c 132,-1,43
 88.1621 510.489 88.1621 510.489 118.877 761.881 c 5,44,45
 134.764 860.699 134.764 860.699 196.385 924.354 c 4,46,47
 302.652 1034.13 302.652 1034.13 491.348 1024.47 c 132,-1,48
 680.043 1014.82 680.043 1014.82 827.748 924.138 c 4,49,50
 999.842 818.468 999.842 818.468 997.459 682.088 c 4,51,52
 996.234 611.959 996.234 611.959 944.955 556.454 c 4,53,54
 868.63 473.841 868.63 473.841 712.315 434.333 c 132,-1,55
 556 394.826 556 394.826 307.713 385.157 c 4,56,57
 281.171 384.124 281.171 384.124 261.218 402.584 c 132,-1,0
 241.266 421.043 241.266 421.043 240.232 447.579 c 132,-1,1
EndSplineSet
EndChar

StartChar: lh
Encoding: 84 3379 84
Width: 1401
GlyphClass: 2
Flags: MW
LayerCount: 2
Fore
SplineSet
277.767 480.814 m 132,-1,1
 276.043 507.314 276.043 507.314 293.975 527.743 c 132,-1,2
 311.906 548.173 311.906 548.173 338.411 549.896 c 4,3,4
 410.521 554.584 410.521 554.584 477.944 529.878 c 4,5,6
 591.484 488.273 591.484 488.273 663.797 387.004 c 4,7,8
 736.295 285.476 736.295 285.476 702.504 161.836 c 4,9,10
 684.763 96.9209 684.763 96.9209 631.583 53.3008 c 4,11,12
 542.511 -19.7588 542.511 -19.7588 410.461 7.16016 c 132,-1,13
 278.411 34.0791 278.411 34.0791 190.396 161.516 c 132,-1,14
 102.382 288.951 102.382 288.951 107.534 484.137 c 5,15,16
 107.076 788.592 107.076 788.592 366.668 931.894 c 4,17,18
 513.503 1012.95 513.503 1012.95 694.903 1002.88 c 132,-1,19
 876.142 992.82 876.142 992.82 1014.31 891.754 c 4,20,21
 1087.04 838.553 1087.04 838.553 1136.14 764.86 c 4,22,23
 1138.25 761.686 1138.25 761.686 1139.98 758.282 c 4,24,25
 1192.61 655.072 1192.61 655.072 1167.14 561.869 c 132,-1,26
 1141.67 468.666 1141.67 468.666 1044.03 408.56 c 5,27,28
 1199.05 356.345 1199.05 356.345 1266.73 262.946 c 4,29,30
 1307.32 205.984 1307.32 205.984 1308.49 141.905 c 132,-1,31
 1309.65 77.8252 1309.65 77.8252 1272.19 20.0029 c 4,32,33
 1205.48 -84.3867 1205.48 -84.3867 1055.14 -131.277 c 4,34,35
 981.355 -154.288 981.355 -154.288 837.297 -159.396 c 132,-1,36
 693.238 -164.503 693.238 -164.503 582.567 -176.414 c 4,37,38
 316.093 -205.648 316.093 -205.648 235.451 -297.511 c 4,39,40
 225.146 -309.249 225.146 -309.249 227.948 -312.483 c 132,-1,41
 230.75 -315.717 230.75 -315.717 234.476 -322.573 c 132,-1,42
 238.2 -329.431 238.2 -329.431 269.54 -344.58 c 132,-1,43
 300.88 -359.73 300.88 -359.73 386.891 -371.652 c 132,-1,44
 472.902 -383.574 472.902 -383.574 603.635 -363.051 c 4,45,46
 822.956 -328.62 822.956 -328.62 1187.2 -334.724 c 4,47,48
 1567.06 -341.089 1567.06 -341.089 1742.38 -325.739 c 4,49,50
 1768.84 -323.423 1768.84 -323.423 1789.66 -340.893 c 132,-1,51
 1810.49 -358.363 1810.49 -358.363 1812.8 -384.823 c 132,-1,52
 1815.12 -411.284 1815.12 -411.284 1797.65 -432.105 c 132,-1,53
 1780.18 -452.928 1780.18 -452.928 1753.72 -455.244 c 4,54,55
 1571.66 -471.184 1571.66 -471.184 1310.28 -466.804 c 4,56,57
 832.015 -458.79 832.015 -458.79 653.049 -486.886 c 132,-1,58
 474.083 -514.98 474.083 -514.98 342.237 -496.705 c 4,59,60
 168.012 -472.556 168.012 -472.556 116.697 -378.104 c 5,61,62
 78.3809 -310.522 78.3809 -310.522 122.299 -236.396 c 4,63,64
 211.183 -86.3779 211.183 -86.3779 568.517 -47.1758 c 4,65,66
 683.968 -34.75 683.968 -34.75 821.64 -29.8691 c 132,-1,67
 959.311 -24.9883 959.311 -24.9883 1016.43 -7.17285 c 4,68,69
 1121.48 25.5918 1121.48 25.5918 1162.64 90.0078 c 4,70,71
 1181.11 119.101 1181.11 119.101 1180.74 139.614 c 132,-1,72
 1180.37 160.129 1180.37 160.129 1154.42 196.162 c 132,-1,73
 1128.47 232.195 1128.47 232.195 1044.08 269.012 c 4,74,75
 945.754 311.905 945.754 311.905 813.416 327.549 c 4,76,77
 767.774 333.083 767.774 333.083 757.907 378.277 c 4,78,79
 748.569 421.048 748.569 421.048 789.306 455.032 c 4,80,81
 803.074 466.52 803.074 466.52 813.213 463.624 c 132,-1,82
 823.352 460.729 823.352 460.729 824.916 461.135 c 4,83,84
 1013.77 510.133 1013.77 510.133 1043.57 584.923 c 4,85,86
 1060.84 628.288 1060.84 628.288 1025.8 695.976 c 5,87,88
 913.458 860.551 913.458 860.551 687.696 873.082 c 4,89,90
 464.135 885.49 464.135 885.49 328.576 740.003 c 4,91,92
 237.005 641.726 237.005 641.726 237.539 482.535 c 5,93,94
 233.233 328.249 233.233 328.249 294.438 239.629 c 132,-1,95
 355.644 151.009 355.644 151.009 431.764 135.491 c 132,-1,96
 507.883 119.974 507.883 119.974 549.137 153.812 c 4,97,98
 572.188 172.721 572.188 172.721 579.166 198.224 c 4,99,100
 602.468 283.391 602.468 283.391 506.557 366.694 c 4,101,102
 438.147 426.109 438.147 426.109 346.848 420.17 c 4,103,104
 320.343 418.446 320.343 418.446 299.916 436.381 c 132,-1,0
 279.49 454.314 279.49 454.314 277.767 480.814 c 132,-1,1
EndSplineSet
EndChar

StartChar: zh
Encoding: 85 3380 85
Width: 1260
GlyphClass: 2
Flags: MW
AnchorPoint: "dotreph" 600 1234 basechar 0
AnchorPoint: "chandrakkala" 1118 10 basechar 0
LayerCount: 2
Fore
SplineSet
924.899 422.489 m 5,0,1
 955.314 394.265 955.314 394.265 976.827 356.985 c 4,2,3
 1027.67 268.888 1027.67 268.888 1004.82 175.522 c 4,4,5
 977.785 65.0303 977.785 65.0303 838.635 22.3867 c 4,6,7
 733.087 -9.95996 733.087 -9.95996 610.427 16.8164 c 4,8,9
 501.658 40.5635 501.658 40.5635 448.757 94.4951 c 4,10,11
 390.751 153.631 390.751 153.631 382.942 221.183 c 4,12,13
 379.892 247.562 379.892 247.562 396.776 268.865 c 132,-1,14
 413.662 290.167 413.662 290.167 440.048 293.218 c 132,-1,15
 466.434 296.268 466.434 296.268 487.732 279.38 c 132,-1,16
 509.032 262.492 509.032 262.492 512.985 236.562 c 4,17,18
 523.213 169.482 523.213 169.482 636.677 144.15 c 5,19,20
 790.521 118.549 790.521 118.549 862.875 179.933 c 5,21,22
 905.5 217.945 905.5 217.945 862.476 296.196 c 5,23,24
 838.744 335.013 838.744 335.013 765.207 376.553 c 5,25,26
 622.816 349.508 622.816 349.508 476.85 363.303 c 5,27,28
 213.047 392.453 213.047 392.453 114.687 558.386 c 5,29,30
 77.9785 622.539 77.9785 622.539 84.5137 691.595 c 4,31,32
 91.5635 766.09 91.5635 766.09 112.676 818.072 c 132,-1,33
 133.788 870.056 133.788 870.056 150.608 906.044 c 132,-1,34
 167.428 942.032 167.428 942.032 174.731 958.23 c 132,-1,35
 182.035 974.429 182.035 974.429 207.46 984.049 c 132,-1,36
 232.884 993.67 232.884 993.67 257.09 982.751 c 132,-1,37
 281.298 971.835 281.298 971.835 290.921 946.415 c 132,-1,38
 300.543 920.995 300.543 920.995 293.057 904.392 c 132,-1,39
 285.57 887.789 285.57 887.789 269.271 852.91 c 4,40,41
 223.143 754.203 223.143 754.203 219.75 729.574 c 4,42,43
 211.297 668.214 211.297 668.214 215.272 652.895 c 132,-1,44
 219.248 637.576 219.248 637.576 227.031 623.807 c 4,45,46
 302.228 497.817 302.228 497.817 543.387 489.188 c 5,47,48
 464.252 539.887 464.252 539.887 425.297 596.712 c 4,49,50
 422.59 600.662 422.59 600.662 420.49 604.966 c 4,51,52
 356.795 735.521 356.795 735.521 423.086 854.113 c 4,53,54
 474.012 945.217 474.012 945.217 608.695 1003.17 c 4,55,56
 717.266 1049.89 717.266 1049.89 855.674 1051.77 c 4,57,58
 1003.12 1053.76 1003.12 1053.76 1085.15 1003.4 c 132,-1,59
 1167.18 953.03 1167.18 953.03 1192.48 875.901 c 4,60,61
 1240.21 730.38 1240.21 730.38 1137.86 580.192 c 4,62,63
 1084.25 501.516 1084.25 501.516 1028.75 471.531 c 132,-1,64
 973.242 441.547 973.242 441.547 924.899 422.489 c 5,0,1
783.045 513.473 m 5,65,66
 873.874 536.016 873.874 536.016 954.721 579.305 c 5,67,68
 999.197 607.557 999.197 607.557 1031.12 654.41 c 4,69,70
 1096.73 750.688 1096.73 750.688 1069.89 832.521 c 4,71,72
 1058.8 866.342 1058.8 866.342 1027.51 886.262 c 5,73,74
 923.51 942.247 923.51 942.247 754 911.5 c 4,75,76
 656.273 893.773 656.273 893.773 581.479 839.443 c 4,77,78
 523.691 797.467 523.691 797.467 519.66 731.812 c 4,79,80
 517.941 703.814 517.941 703.814 535.211 666.411 c 5,81,82
 576.182 610.562 576.182 610.562 681.314 561.253 c 4,83,84
 697.779 553.53 697.779 553.53 722.918 541.703 c 132,-1,85
 748.056 529.875 748.056 529.875 783.045 513.473 c 5,65,66
EndSplineSet
EndChar

StartChar: v1
Encoding: 86 3381 86
Width: 1692
GlyphClass: 2
Flags: MW
LayerCount: 2
Fore
SplineSet
450.499 12.4121 m 128,-1,1
 431.462 -6.09961 431.462 -6.09961 404.28 -5.71777 c 128,-1,2
 377.099 -5.33691 377.099 -5.33691 358.584 13.709 c 0,3,4
 118.222 260.952 118.222 260.952 101.197 498.553 c 0,5,6
 91.6141 632.316 91.6141 632.316 159.666 742.707 c 128,-1,7
 227.717 853.098 227.717 853.098 346.822 919.782 c 0,8,9
 524.944 1019.51 524.944 1019.51 784.064 978.057 c 0,10,11
 970.23 948.274 970.23 948.274 1065.57 841.324 c 128,-1,12
 1160.9 734.373 1160.9 734.373 1160.02 590.39 c 128,-1,13
 1159.15 446.407 1159.15 446.407 1092.62 322.625 c 128,-1,14
 1026.1 198.843 1026.1 198.843 937.557 116.285 c 1,15,16
 1182.52 111.344 1182.52 111.344 1292.48 112.546 c 1,17,18
 1384.73 126.458 1384.73 126.458 1423.06 181.786 c 128,-1,19
 1461.39 237.113 1461.39 237.113 1462.13 303.606 c 0,20,21
 1463.64 438.014 1463.64 438.014 1449.77 512.51 c 128,-1,22
 1435.89 587.007 1435.89 587.007 1427.81 643.126 c 128,-1,23
 1419.74 699.245 1419.74 699.245 1406.4 776.892 c 128,-1,24
 1393.06 854.539 1393.06 854.539 1409.88 942.645 c 0,25,26
 1414.86 968.73 1414.86 968.73 1437.34 984.008 c 128,-1,27
 1459.82 999.286 1459.82 999.286 1485.91 994.308 c 128,-1,28
 1512 989.329 1512 989.329 1527.28 966.845 c 128,-1,29
 1542.55 944.359 1542.55 944.359 1533.87 898.838 c 128,-1,30
 1525.18 853.316 1525.18 853.316 1536.67 786.429 c 128,-1,31
 1548.16 719.542 1548.16 719.542 1556.17 663.86 c 128,-1,32
 1564.18 608.178 1564.18 608.178 1578.98 528.737 c 128,-1,33
 1593.78 449.295 1593.78 449.295 1592.7 353.76 c 0,34,35
 1588.98 22.0787 1588.98 22.0787 1306.32 -16.7939 c 0,36,37
 1247.94 -24.83 1247.94 -24.83 734.196 -8.34375 c 0,38,39
 694.131 -7.05753 694.131 -7.05753 680.136 23.1797 c 0,40,41
 649.992 88.3064 649.992 88.3064 723.62 122.388 c 0,42,43
 816.961 165.595 816.961 165.595 898.549 263.438 c 128,-1,44
 980.137 361.281 980.137 361.281 1012.64 470.503 c 128,-1,45
 1045.14 579.725 1045.14 579.725 1018.29 669.227 c 128,-1,46
 991.45 758.73 991.45 758.73 886.43 814.032 c 128,-1,47
 781.411 869.335 781.411 869.335 576.435 856.247 c 0,48,49
 444.056 847.797 444.056 847.797 334.081 752.85 c 0,50,51
 268.299 696.054 268.299 696.054 240.713 605.204 c 128,-1,52
 213.126 514.353 213.126 514.353 257.748 386.191 c 128,-1,53
 302.371 258.03 302.371 258.03 451.796 104.326 c 0,54,55
 470.311 85.2783 470.311 85.2783 469.925 58.1006 c 128,-1,0
 469.54 30.9229 469.54 30.9229 450.499 12.4121 c 128,-1,1
EndSplineSet
EndChar

StartChar: z1
Encoding: 87 3382 87
Width: 1728
GlyphClass: 2
Flags: MW
LayerCount: 2
Fore
SplineSet
1169.66 990.58 m 0,0,1
 1275.43 980.254 1275.43 980.254 1351.12 942.945 c 128,-1,2
 1426.81 905.636 1426.81 905.636 1456.17 879.678 c 128,-1,3
 1485.54 853.72 1485.54 853.72 1496.67 844.964 c 128,-1,4
 1507.8 836.208 1507.8 836.208 1514.3 825.425 c 1,5,6
 1681.17 647.566 1681.17 647.566 1604.44 371.466 c 128,-1,7
 1527.71 95.3652 1527.71 95.3652 1370 2.22656 c 1,8,9
 1270.45 -55.3428 1270.45 -55.3428 1157.36 -1.53418 c 0,10,11
 1067.61 41.167 1067.61 41.167 1015.51 167.095 c 128,-1,12
 963.404 293.021 963.404 293.021 973.439 439.607 c 128,-1,13
 983.475 586.194 983.475 586.194 1045.35 694.314 c 128,-1,14
 1107.23 802.435 1107.23 802.435 1188.59 857.099 c 1,15,16
 1023.37 884.013 1023.37 884.013 901.738 793.482 c 128,-1,17
 780.103 702.951 780.103 702.951 779.984 490.209 c 128,-1,18
 779.867 277.467 779.867 277.467 687.049 136.183 c 128,-1,19
 594.23 -5.10156 594.23 -5.10156 459.437 -25.377 c 0,20,21
 389.242 -35.9355 389.242 -35.9355 324.099 -4.5918 c 0,22,23
 114.168 96.417 114.168 96.417 100.344 483.383 c 0,24,25
 96.4883 591.305 96.4883 591.305 135.92 731.932 c 128,-1,26
 175.353 872.559 175.353 872.559 233.588 964.014 c 0,27,28
 247.855 986.418 247.855 986.418 274.394 992.306 c 128,-1,29
 300.933 998.193 300.933 998.193 323.329 983.929 c 128,-1,30
 345.729 969.665 345.729 969.665 351.619 943.131 c 128,-1,31
 357.51 916.597 357.51 916.597 343.244 894.188 c 0,32,33
 295.331 818.942 295.331 818.942 264.335 708.396 c 128,-1,34
 233.327 597.812 233.327 597.812 230.331 486.092 c 1,35,36
 241.833 179.256 241.833 179.256 378.387 113.553 c 0,37,38
 440.606 83.6152 440.606 83.6152 517.012 138.92 c 128,-1,39
 593.417 194.225 593.417 194.225 629.383 328.233 c 0,40,41
 649.355 402.646 649.355 402.646 648.801 489.923 c 0,42,43
 650.092 768.243 650.092 768.243 832.399 903.93 c 0,44,45
 974.433 1009.64 974.433 1009.64 1169.66 990.58 c 0,0,1
1409.55 746.653 m 0,46,47
 1382.44 773.27 1382.44 773.27 1332.48 774.221 c 128,-1,48
 1282.52 775.173 1282.52 775.173 1236.91 731.394 c 0,49,50
 1116.99 616.29 1116.99 616.29 1104.75 438.054 c 128,-1,51
 1092.51 259.817 1092.51 259.817 1173.29 151.309 c 0,52,53
 1206.7 106.427 1206.7 106.427 1256.42 102.896 c 128,-1,54
 1306.13 99.3643 1306.13 99.3643 1370.82 172.396 c 128,-1,55
 1435.52 245.428 1435.52 245.428 1482.92 423.799 c 1,56,57
 1540.51 617.734 1540.51 617.734 1409.55 746.653 c 0,46,47
EndSplineSet
EndChar

StartChar: sh
Encoding: 88 3383 88
Width: 1885
GlyphClass: 2
Flags: MW
LayerCount: 2
Fore
SplineSet
657.733 121.757 m 1,0,-1
 1096.45 116.031 l 1,1,2
 1239.34 319.939 1239.34 319.939 1312.77 459.98 c 1,3,4
 1076.2 544.751 1076.2 544.751 1021.66 690.11 c 128,-1,5
 967.12 835.47 967.12 835.47 1072.53 970.602 c 0,6,7
 1150.83 1070.97 1150.83 1070.97 1282.85 1118.48 c 128,-1,8
 1414.87 1166 1414.87 1166 1507.56 1091.26 c 0,9,10
 1672.68 958.119 1672.68 958.119 1494.57 539.944 c 1,11,12
 1632.09 475.782 1632.09 475.782 1711.2 377.38 c 0,13,14
 1818.97 243.339 1818.97 243.339 1769.6 137.457 c 0,15,16
 1686.76 -40.208 1686.76 -40.208 1250.76 -19.0781 c 0,17,18
 1122.23 -12.8474 1122.23 -12.8474 868.916 -10.7586 c 128,-1,19
 615.599 -8.66992 615.599 -8.66992 515.012 -4.68652 c 0,20,21
 489.854 -3.69043 489.854 -3.69043 471.442 14.4751 c 128,-1,22
 453.03 32.6406 453.03 32.6406 452.847 59.8252 c 128,-1,23
 452.662 87.0107 452.662 87.0107 471.312 105.913 c 0,24,25
 609.069 245.541 609.069 245.541 619.522 333.39 c 0,26,27
 622.603 361.431 622.603 361.431 614.266 374.903 c 128,-1,28
 605.929 388.376 605.929 388.376 575.399 400.832 c 0,29,30
 505.384 429.396 505.384 429.396 402.008 402.482 c 128,-1,31
 298.633 375.568 298.633 375.568 253.201 310.318 c 0,32,33
 195.995 228.155 195.995 228.155 279.341 107.909 c 0,34,35
 294.473 86.0752 294.473 86.0752 289.623 59.3311 c 128,-1,36
 284.774 32.5869 284.774 32.5869 262.949 17.459 c 128,-1,37
 241.128 2.33008 241.128 2.33008 214.379 7.1748 c 128,-1,38
 187.631 12.0205 187.631 12.0205 172.499 33.8506 c 0,39,40
 87.3189 156.735 87.3189 156.735 102.319 272.38 c 0,41,42
 110.09 332.287 110.09 332.287 146.515 384.601 c 0,43,44
 219.394 489.271 219.394 489.271 366.929 527.683 c 128,-1,45
 514.465 566.094 514.465 566.094 624.505 521.2 c 0,46,47
 689.251 494.786 689.251 494.786 722.718 440.853 c 0,48,49
 802.05 313.005 802.05 313.005 657.733 121.757 c 1,0,-1
1369.38 577.899 m 1,50,51
 1448.2 759.293 1448.2 759.293 1454.28 860.809 c 128,-1,52
 1460.35 962.325 1460.35 962.325 1425.25 990.63 c 128,-1,53
 1390.15 1018.94 1390.15 1018.94 1310.18 990.157 c 128,-1,54
 1230.22 961.379 1230.22 961.379 1185.96 904.65 c 128,-1,55
 1141.71 847.921 1141.71 847.921 1134.03 811.646 c 128,-1,56
 1126.35 775.37 1126.35 775.37 1140.3 742.292 c 1,57,58
 1177.75 643.582 1177.75 643.582 1369.38 577.899 c 1,50,51
1439.54 422.168 m 1,59,60
 1371.07 287.547 1371.07 287.547 1251.03 111.057 c 1,61,62
 1254.27 110.904 1254.27 110.904 1323.5 107.549 c 128,-1,63
 1392.73 104.194 1392.73 104.194 1483.34 116.882 c 0,64,65
 1726.47 150.923 1726.47 150.923 1623.62 278.849 c 0,66,67
 1549.72 370.756 1549.72 370.756 1439.54 422.168 c 1,59,60
EndSplineSet
EndChar

StartChar: s1
Encoding: 89 3384 89
Width: 2102
GlyphClass: 2
Flags: MW
LayerCount: 2
Fore
SplineSet
1519.44 757.774 m 4,0,1
 1524.99 715.496 1524.99 715.496 1504.42 621.756 c 132,-1,2
 1483.85 528.016 1483.85 528.016 1430.46 444.786 c 132,-1,3
 1377.07 361.557 1377.07 361.557 1372.47 319.111 c 132,-1,4
 1367.87 276.666 1367.87 276.666 1372.27 232.631 c 5,5,6
 1403.5 135.331 1403.5 135.331 1481.5 115.48 c 132,-1,7
 1559.5 95.6299 1559.5 95.6299 1663.95 161.93 c 132,-1,8
 1768.4 228.229 1768.4 228.229 1827.01 357.357 c 4,9,10
 1947.52 622.838 1947.52 622.838 1757.39 916.91 c 4,11,12
 1742.97 939.208 1742.97 939.208 1748.67 965.785 c 132,-1,13
 1754.38 992.363 1754.38 992.363 1776.68 1006.79 c 132,-1,14
 1798.99 1021.21 1798.99 1021.21 1825.57 1015.5 c 132,-1,15
 1852.14 1009.79 1852.14 1009.79 1866.56 987.493 c 4,16,17
 1926.95 894.094 1926.95 894.094 1960.56 798.097 c 4,18,19
 2051.69 537.811 2051.69 537.811 1945.39 303.627 c 4,20,21
 1870.77 139.228 1870.77 139.228 1726.29 47.5195 c 132,-1,22
 1581.8 -44.1895 1581.8 -44.1895 1446.78 -9.82715 c 4,23,24
 1297.81 28.084 1297.81 28.084 1246.02 200.866 c 4,25,26
 1233.44 242.852 1233.44 242.852 1242.28 324.423 c 132,-1,27
 1251.13 405.994 1251.13 405.994 1306.49 492.306 c 132,-1,28
 1361.86 578.618 1361.86 578.618 1374.87 637.908 c 132,-1,29
 1387.88 697.197 1387.88 697.197 1389.83 746 c 5,30,31
 1375.38 844.338 1375.38 844.338 1317.04 879.314 c 132,-1,32
 1258.7 914.292 1258.7 914.292 1172.73 874.679 c 4,33,34
 1061.29 823.323 1061.29 823.323 986.907 694.426 c 4,35,36
 883.082 514.504 883.082 514.504 862.111 289.159 c 5,37,38
 869.647 179.181 869.647 179.181 858.166 61.8818 c 4,39,40
 855.58 35.4551 855.58 35.4551 834.575 18.1963 c 132,-1,41
 813.571 0.936523 813.571 0.936523 788.118 3.42773 c 132,-1,42
 762.665 5.91895 762.665 5.91895 746.136 25.0898 c 132,-1,43
 729.605 44.2617 729.605 44.2617 728.559 64.9268 c 4,44,45
 722.589 182.767 722.589 182.767 731.688 290.183 c 5,46,47
 719.782 442.954 719.782 442.954 657.463 599.706 c 132,-1,48
 595.143 756.458 595.143 756.458 477.651 845.12 c 4,49,50
 390.591 910.818 390.591 910.818 327.575 891.992 c 132,-1,51
 264.56 873.166 264.56 873.166 242.267 767.361 c 4,52,53
 193.473 535.787 193.473 535.787 366.329 77.8096 c 4,54,55
 375.708 52.959 375.708 52.959 364.512 28.1904 c 132,-1,56
 353.314 3.42188 353.314 3.42188 328.47 -5.95605 c 132,-1,57
 303.625 -15.333 303.625 -15.333 278.854 -4.13965 c 132,-1,58
 254.084 7.05273 254.084 7.05273 244.704 31.9033 c 4,59,60
 -5.19824 694.011 -5.19824 694.011 176.478 937.224 c 4,61,62
 220.04 995.543 220.04 995.543 289.528 1016.3 c 4,63,64
 416.397 1054.21 416.397 1054.21 564.375 942.538 c 132,-1,65
 712.352 830.871 712.352 830.871 797.515 598.228 c 5,66,67
 826.031 675.737 826.031 675.737 865.677 744.441 c 4,68,69
 969.347 924.094 969.347 924.094 1118 992.595 c 132,-1,70
 1266.65 1061.1 1266.65 1061.1 1382.23 991.803 c 132,-1,71
 1497.82 922.511 1497.82 922.511 1519.44 757.774 c 4,0,1
EndSplineSet
EndChar

StartChar: h1
Encoding: 90 3385 90
Width: 2220
GlyphClass: 2
Flags: MW
LayerCount: 2
Fore
SplineSet
331.495 39.2578 m 128,-1,1
 313.216 19.9941 313.216 19.9941 286.045 19.2803 c 128,-1,2
 258.874 18.5664 258.874 18.5664 239.604 36.8496 c 0,3,4
 46.2549 220.323 46.2549 220.323 120.691 377.762 c 0,5,6
 170.188 482.45 170.188 482.45 311.094 522.67 c 128,-1,7
 452 562.89 452 562.89 573.352 524.856 c 0,8,9
 637.946 504.611 637.946 504.611 681.021 462.445 c 128,-1,10
 724.096 420.28 724.096 420.28 734.669 359.721 c 0,11,12
 752.084 259.979 752.084 259.979 672.737 139.179 c 1,13,14
 854.125 148.102 854.125 148.102 1151.02 136.437 c 1,15,16
 1017.84 266.251 1017.84 266.251 1023.67 433.935 c 128,-1,17
 1029.49 601.619 1029.49 601.619 1159.2 741.927 c 128,-1,18
 1288.91 882.235 1288.91 882.235 1478.84 936.959 c 0,19,20
 1576.17 965 1576.17 965 1676.34 965 c 0,21,22
 1679.29 965 1679.29 965 1682.22 964.733 c 0,23,24
 2036.29 932.552 2036.29 932.552 2106.64 669.278 c 0,25,26
 2143.05 533.012 2143.05 533.012 2086.86 362.174 c 128,-1,27
 2030.66 191.337 2030.66 191.337 1920.25 44.8721 c 0,28,29
 1904.27 23.666 1904.27 23.666 1877.34 19.8867 c 128,-1,30
 1850.44 16.1074 1850.44 16.1074 1829.21 32.0957 c 128,-1,31
 1808 48.084 1808 48.084 1804.24 75.0049 c 128,-1,32
 1800.46 101.926 1800.46 101.926 1816.45 123.128 c 0,33,34
 1966.28 321.899 1966.28 321.899 1988.75 522.729 c 0,35,36
 2002.34 644.196 2002.34 644.196 1932.71 730.606 c 128,-1,37
 1863.08 817.015 1863.08 817.015 1673.42 834.993 c 1,38,39
 1507.96 833.973 1507.96 833.973 1374.49 751.84 c 128,-1,40
 1241.02 669.707 1241.02 669.707 1184.41 552.946 c 128,-1,41
 1127.79 436.185 1127.79 436.185 1173.97 323.681 c 0,42,43
 1195.86 270.392 1195.86 270.392 1256.36 215.938 c 128,-1,44
 1316.87 161.484 1316.87 161.484 1414.02 119.716 c 0,45,46
 1455.37 101.941 1455.37 101.941 1453.71 66.1992 c 128,-1,47
 1452.04 30.458 1452.04 30.458 1431.95 12.1475 c 128,-1,48
 1411.86 -6.16211 1411.86 -6.16211 1385.33 -4.92969 c 2,49,-1
 1361.08 -3.80273 l 1,50,51
 749.014 30.2764 749.014 30.2764 534.66 -4.17676 c 0,52,53
 502.689 -9.31543 502.689 -9.31543 481.432 11.0918 c 128,-1,54
 460.175 31.499 460.175 31.499 459.62 58.6797 c 128,-1,55
 459.066 85.8594 459.066 85.8594 477.455 105.015 c 0,56,57
 663.874 299.201 663.874 299.201 587.54 373.988 c 0,58,59
 572.254 388.964 572.254 388.964 534.471 400.806 c 0,60,61
 450.263 427.199 450.263 427.199 356.397 400.409 c 128,-1,62
 262.531 373.62 262.531 373.62 238.217 322.195 c 0,63,64
 204.008 249.841 204.008 249.841 329.087 131.15 c 0,65,66
 348.355 112.867 348.355 112.867 349.065 85.6924 c 128,-1,0
 349.775 58.5176 349.775 58.5176 331.495 39.2578 c 128,-1,1
EndSplineSet
EndChar

StartChar: avagraha
Encoding: 92 3389 91
Width: 1195
GlyphClass: 2
Flags: MW
LayerCount: 2
Fore
SplineSet
1250 1093 m 1,0,-1
 1130 1042 l 1,1,2
 1116 1154 1116 1154 1005 1154 c 0,3,4
 886 1154 886 1154 865 1014 c 1,5,-1
 773 467 l 1,6,-1
 933 476 l 1,7,-1
 933 346 l 1,8,-1
 752 336 l 1,9,-1
 641 -384 l 5,10,11
 604 -635 604 -635 377 -635 c 4,12,13
 179 -635 179 -635 124 -445 c 5,14,-1
 245 -394 l 5,15,16
 257 -506 257 -506 366 -506 c 4,17,18
 488 -506 488 -506 511 -367 c 5,19,-1
 619 329 l 1,20,-1
 489 322 l 1,21,-1
 489 451 l 1,22,-1
 641 458 l 1,23,-1
 734 1032 l 1,24,25
 773 1282 773 1282 997 1282 c 0,26,27
 1196 1282 1196 1282 1250 1093 c 1,0,-1
EndSplineSet
Validated: 1
EndChar

StartChar: a2
Encoding: 93 3390 92
Width: 717
GlyphClass: 2
Flags: MW
LayerCount: 2
Fore
SplineSet
152.283 665.59 m 132,-1,1
 126.246 670.817 126.246 670.817 111.183 693.442 c 132,-1,2
 96.1191 716.068 96.1191 716.068 101.347 742.111 c 4,3,4
 117.388 822.023 117.388 822.023 156.222 877.162 c 4,5,6
 230.115 982.081 230.115 982.081 357.606 955.6 c 4,7,8
 460.13 934.305 460.13 934.305 531.07 834.752 c 132,-1,9
 602.01 735.199 602.01 735.199 613.549 560.029 c 132,-1,10
 625.088 384.859 625.088 384.859 602.688 265.898 c 5,11,12
 573.438 39.0303 573.438 39.0303 389.006 5.40039 c 4,13,14
 299.252 -10.9658 299.252 -10.9658 205.195 34.9375 c 132,-1,15
 111.139 80.8408 111.139 80.8408 109.706 130.94 c 4,16,17
 108.929 158.109 108.929 158.109 127.167 177.423 c 132,-1,18
 145.406 196.732 145.406 196.732 172.579 197.506 c 132,-1,19
 199.752 198.278 199.752 198.278 226.513 173 c 132,-1,20
 253.273 147.721 253.273 147.721 296.675 138.171 c 4,21,22
 451.609 104.08 451.609 104.08 473.951 284.087 c 4,23,24
 474.22 286.247 474.22 286.247 484.312 338.606 c 132,-1,25
 494.404 390.967 494.404 390.967 484.561 540.393 c 132,-1,26
 474.717 689.819 474.717 689.819 429.269 753.6 c 132,-1,27
 383.819 817.381 383.819 817.381 335.535 827.41 c 132,-1,28
 287.251 837.438 287.251 837.438 263.352 803.505 c 132,-1,29
 239.452 769.571 239.452 769.571 231.515 730.027 c 132,-1,30
 223.577 690.483 223.577 690.483 200.947 675.423 c 132,-1,0
 178.318 660.362 178.318 660.362 152.283 665.59 c 132,-1,1
EndSplineSet
EndChar

StartChar: i1
Encoding: 94 3391 93
Width: 521
GlyphClass: 2
Flags: MW
LayerCount: 2
Fore
SplineSet
-606.909 1118.3 m 128,-1,1
 -622.356 1139.9 -622.356 1139.9 -617.904 1166.72 c 128,-1,2
 -613.452 1193.53 -613.452 1193.53 -591.846 1208.98 c 0,3,4
 -257.071 1448.38 -257.071 1448.38 -2.61719 1429.72 c 0,5,6
 152.719 1418.33 152.719 1418.33 253.185 1307.88 c 128,-1,7
 353.651 1197.42 353.651 1197.42 384.853 1028.79 c 128,-1,8
 416.055 860.151 416.055 860.151 385.021 667.608 c 0,9,10
 284.339 43.4092 284.339 43.4092 284.339 -308.101 c 0,11,12
 284.339 -334.656 284.339 -334.656 265.12 -353.878 c 128,-1,13
 245.901 -373.101 245.901 -373.101 219.339 -373.101 c 128,-1,14
 192.777 -373.101 192.777 -373.101 173.559 -353.878 c 128,-1,15
 154.339 -334.656 154.339 -334.656 154.339 -308.101 c 0,16,17
 154.339 53.8271 154.339 53.8271 256.681 688.311 c 0,18,19
 297.359 940.708 297.359 940.708 222.616 1119.7 c 0,20,21
 126.996 1348.69 126.996 1348.69 -153.132 1287.21 c 0,22,23
 -305.805 1253.71 -305.805 1253.71 -516.229 1103.24 c 0,24,25
 -537.837 1087.79 -537.837 1087.79 -564.65 1092.24 c 128,-1,0
 -591.463 1096.7 -591.463 1096.7 -606.909 1118.3 c 128,-1,1
EndSplineSet
EndChar

StartChar: i2
Encoding: 95 3392 94
Width: 441
GlyphClass: 2
Flags: MW
LayerCount: 2
Fore
SplineSet
-182.736 1293.01 m 132,-1,1
 -156.879 1286.96 -156.879 1286.96 -142.539 1263.87 c 132,-1,2
 -128.199 1240.78 -128.199 1240.78 -134.248 1214.91 c 4,3,4
 -182.156 1010.08 -182.156 1010.08 -316.904 934.167 c 4,5,6
 -420.329 875.897 -420.329 875.897 -514.822 917.073 c 132,-1,7
 -609.315 958.249 -609.315 958.249 -618.401 1054.79 c 4,8,9
 -631.238 1191.18 -631.238 1191.18 -453.593 1313.19 c 4,10,11
 -192.195 1492.74 -192.195 1492.74 23.623 1429.91 c 4,12,13
 148.402 1393.58 148.402 1393.58 230.918 1274.95 c 132,-1,14
 313.435 1156.33 313.435 1156.33 340.54 993.472 c 132,-1,15
 367.646 830.612 367.646 830.612 339.683 657.108 c 4,16,17
 239 32.9082 239 32.9082 239 -318.601 c 4,18,19
 239 -345.156 239 -345.156 219.781 -364.379 c 132,-1,20
 200.562 -383.601 200.562 -383.601 174 -383.601 c 132,-1,21
 147.438 -383.601 147.438 -383.601 128.219 -364.379 c 132,-1,22
 109 -345.156 109 -345.156 109 -318.601 c 4,23,24
 109 43.3262 109 43.3262 211.341 677.81 c 4,25,26
 247.475 902 247.475 902 181.927 1089.85 c 4,27,28
 144.632 1196.74 144.632 1196.74 70.5352 1259.12 c 132,-1,29
 -3.56152 1321.5 -3.56152 1321.5 -116.249 1315.64 c 132,-1,30
 -228.938 1309.79 -228.938 1309.79 -379.987 1206.04 c 4,31,32
 -494.65 1127.28 -494.65 1127.28 -488.974 1066.97 c 4,33,34
 -487.074 1046.79 -487.074 1046.79 -457.409 1033.86 c 132,-1,35
 -427.745 1020.93 -427.745 1020.93 -380.718 1047.43 c 4,36,37
 -295.731 1095.31 -295.731 1095.31 -260.832 1244.52 c 4,38,39
 -254.782 1270.38 -254.782 1270.38 -231.688 1284.72 c 132,-1,0
 -208.594 1299.06 -208.594 1299.06 -182.736 1293.01 c 132,-1,1
EndSplineSet
EndChar

StartChar: u1
Encoding: 96 3393 95
Width: 639
GlyphClass: 2
Flags: MW
LayerCount: 2
Fore
SplineSet
285.758 31.7867 m 1,0,1
 170.318 -165.002 170.318 -165.002 215.609 -266.771 c 0,2,3
 238.325 -317.815 238.325 -317.815 301.165 -330.637 c 128,-1,4
 364.004 -343.459 364.004 -343.459 404.213 -318.865 c 128,-1,5
 444.422 -294.27 444.422 -294.27 454.775 -275.193 c 128,-1,6
 465.129 -256.117 465.129 -256.117 463.309 -217.96 c 128,-1,7
 461.489 -179.804 461.489 -179.804 421.848 -118.766 c 128,-1,8
 382.207 -57.7292 382.207 -57.7292 300.62 13.0761 c 0,9,10
 291.624 20.8831 291.624 20.8831 285.758 31.7867 c 1,0,1
342.366 127.162 m 1,11,12
 367.209 127.415 367.209 127.415 385.827 111.258 c 0,13,14
 586.037 -62.4938 586.037 -62.4938 593.54 -219.714 c 0,15,16
 599.834 -351.6 599.834 -351.6 484.404 -422.205 c 0,17,18
 388.17 -481.069 388.17 -481.069 274.176 -457.809 c 0,19,20
 146.765 -431.812 146.765 -431.812 96.8388 -319.627 c 0,21,22
 21.4455 -150.217 21.4455 -150.217 186.008 118.17 c 1,23,24
 248.715 217.756 248.715 217.756 313.442 358.02 c 0,25,26
 458.806 673.025 458.806 673.025 445.748 826.557 c 0,27,28
 441.305 878.788 441.305 878.788 423.878 893.682 c 128,-1,29
 406.45 908.577 406.45 908.577 348.995 903.649 c 128,-1,30
 291.539 898.722 291.539 898.722 191.323 854.527 c 0,31,32
 167.016 843.81 167.016 843.81 141.677 853.642 c 128,-1,33
 116.337 863.474 116.337 863.474 105.621 887.772 c 128,-1,34
 94.9046 912.066 94.9046 912.066 104.734 937.411 c 128,-1,35
 114.563 962.755 114.563 962.755 138.866 973.473 c 0,36,37
 258.877 1026.4 258.877 1026.4 350.275 1034.24 c 128,-1,38
 441.673 1042.07 441.673 1042.07 504.335 988.503 c 0,39,40
 678.751 839.387 678.751 839.387 431.48 303.55 c 0,41,42
 386.729 206.574 386.729 206.574 342.366 127.162 c 1,11,12
EndSplineSet
EndChar

StartChar: u2
Encoding: 97 3394 96
Width: 639
GlyphClass: 2
Flags: MW
LayerCount: 2
Fore
SplineSet
229.569 -94.423 m 5,0,1
 201.134 -193.723 201.134 -193.723 243.939 -262.648 c 132,-1,2
 286.743 -331.574 286.743 -331.574 396.717 -353.25 c 132,-1,3
 506.692 -374.927 506.692 -374.927 596.027 -337.883 c 4,4,5
 666.915 -308.489 666.915 -308.489 674.482 -259.171 c 4,6,7
 687.52 -174.204 687.52 -174.204 537.32 -43.8523 c 4,8,9
 454.884 27.6898 454.884 27.6898 391.487 25.1001 c 4,10,11
 366.807 24.0919 366.807 24.0919 347.152 5.16588 c 5,12,13
 339.665 -18.0508 339.665 -18.0508 354.435 -58.5072 c 4,14,15
 383.664 -138.566 383.664 -138.566 440.008 -177.84 c 4,16,17
 475.855 -202.827 475.855 -202.827 512.837 -167.249 c 4,18,19
 531.971 -148.837 531.971 -148.837 559.149 -149.361 c 132,-1,20
 586.328 -149.885 586.328 -149.885 604.744 -169.026 c 132,-1,21
 623.159 -188.172 623.159 -188.172 622.631 -215.347 c 132,-1,22
 622.103 -242.522 622.103 -242.522 602.966 -260.933 c 4,23,24
 548.121 -313.697 548.121 -313.697 483.189 -317.421 c 4,25,26
 374.058 -323.679 374.058 -323.679 287.838 -207.47 c 4,27,28
 248.528 -154.489 248.528 -154.489 229.569 -94.423 c 5,0,1
355.704 151.409 m 5,29,30
 482.259 176.063 482.259 176.063 622.528 54.3289 c 4,31,32
 826.895 -123.03 826.895 -123.03 802.979 -278.888 c 4,33,34
 784.311 -400.542 784.311 -400.542 652.302 -455.282 c 132,-1,35
 520.292 -510.021 520.292 -510.021 363.169 -479.033 c 132,-1,36
 206.046 -448.045 206.046 -448.045 132.122 -329.009 c 4,37,38
 21.2651 -150.504 21.2651 -150.504 186.008 118.17 c 5,39,40
 248.712 217.748 248.712 217.748 313.442 358.02 c 4,41,42
 458.806 673.025 458.806 673.025 445.748 826.557 c 4,43,44
 441.305 878.788 441.305 878.788 423.878 893.682 c 132,-1,45
 406.45 908.577 406.45 908.577 348.995 903.649 c 132,-1,46
 291.539 898.722 291.539 898.722 191.323 854.527 c 4,47,48
 167.016 843.81 167.016 843.81 141.677 853.642 c 132,-1,49
 116.337 863.474 116.337 863.474 105.621 887.772 c 132,-1,50
 94.9046 912.066 94.9046 912.066 104.734 937.411 c 132,-1,51
 114.563 962.755 114.563 962.755 138.866 973.473 c 4,52,53
 258.877 1026.4 258.877 1026.4 350.275 1034.24 c 132,-1,54
 441.673 1042.07 441.673 1042.07 504.335 988.503 c 4,55,56
 678.751 839.387 678.751 839.387 431.48 303.55 c 4,57,58
 393.561 221.379 393.561 221.379 355.704 151.409 c 5,29,30
EndSplineSet
EndChar

StartChar: r1
Encoding: 98 3395 97
Width: 777
GlyphClass: 2
Flags: MW
LayerCount: 2
Fore
SplineSet
769 -180 m 4,0,1
 769 -354 769 -354 646 -437.5 c 132,-1,2
 523 -521 523 -521 379 -521 c 260,3,4
 235 -521 235 -521 158 -441.5 c 132,-1,5
 81 -362 81 -362 81 -249 c 260,6,7
 81 -136 81 -136 150.5 -67 c 132,-1,8
 220 2 220 2 326 2 c 260,9,10
 432 2 432 2 496.5 -73 c 132,-1,11
 561 -148 561 -148 561 -255 c 260,12,13
 561 -362 561 -362 481 -413 c 5,14,15
 659 -362 659 -362 659 -183 c 4,16,17
 659 -71 659 -71 465.5 132 c 132,-1,18
 272 335 272 335 272 757 c 4,19,20
 272 894 272 894 280 920 c 5,21,-1
 408 920 l 5,22,23
 406 800 406 800 406 751 c 4,24,25
 406 532 406 532 442.5 414.5 c 132,-1,26
 479 297 479 297 587 170.5 c 132,-1,27
 695 44 695 44 732 -25 c 132,-1,28
 769 -94 769 -94 769 -180 c 4,0,1
445 -251 m 4,29,30
 445 -185 445 -185 410.5 -139.5 c 132,-1,31
 376 -94 376 -94 317 -94 c 4,32,33
 192 -94 192 -94 192 -251 c 4,34,35
 192 -315 192 -315 230 -361.5 c 132,-1,36
 268 -408 268 -408 319 -408 c 4,37,38
 445 -408 445 -408 445 -251 c 4,29,30
EndSplineSet
Validated: 1
EndChar

StartChar: e1
Encoding: 100 3398 98
Width: 1199
GlyphClass: 2
Flags: MW
LayerCount: 2
Fore
SplineSet
232.648 449.217 m 1,0,1
 226.059 376.132 226.059 376.132 235.897 310.428 c 0,2,3
 254.233 187.97 254.233 187.97 314.715 138.259 c 0,4,5
 338.125 119.018 338.125 119.018 355.088 117.561 c 128,-1,6
 372.051 116.103 372.051 116.103 396.339 130.67 c 0,7,8
 436.183 154.114 436.183 154.114 473.48 219.94 c 128,-1,9
 510.778 285.767 510.778 285.767 538.233 394.631 c 0,10,11
 549.167 437.982 549.167 437.982 544.933 478.542 c 0,12,13
 536.397 555.207 536.397 555.207 482.312 595.606 c 0,14,15
 457.046 614.48 457.046 614.48 435.43 618.596 c 128,-1,16
 413.814 622.712 413.814 622.712 391.091 614.527 c 0,17,18
 330.152 594.584 330.152 594.584 300.995 495.593 c 0,19,20
 294.631 473.987 294.631 473.987 275.114 460.81 c 128,-1,21
 255.597 447.632 255.597 447.632 232.648 449.217 c 1,0,1
320.879 725.996 m 1,22,23
 335.496 733.117 335.496 733.117 350.654 738.078 c 0,24,25
 405.825 755.386 405.825 755.386 459.379 745.192 c 128,-1,26
 512.932 734.998 512.932 734.998 560.109 699.758 c 0,27,28
 659.854 625.254 659.854 625.254 674.184 492.465 c 0,29,30
 681.015 429.176 681.015 429.176 664.287 362.842 c 0,31,32
 597.563 98.2383 597.563 98.2383 462.268 18.6279 c 0,33,34
 405.22 -14.665 405.22 -14.665 344.252 -9.4248 c 128,-1,35
 283.285 -4.18555 283.285 -4.18555 232.169 37.8291 c 0,36,37
 133.07 119.28 133.07 119.28 107.33 291.175 c 0,38,39
 90.0508 406.567 90.0508 406.567 113.502 536.928 c 0,40,41
 123.379 591.831 123.379 591.831 138.824 640.775 c 0,42,43
 201.709 840.043 201.709 840.043 355.422 939.575 c 0,44,45
 511.255 1040.48 511.255 1040.48 699.802 1005.6 c 0,46,47
 872.901 973.587 872.901 973.587 985.42 843.335 c 0,48,49
 1123.17 683.871 1123.17 683.871 1094.96 461.454 c 0,50,51
 1065.69 230.809 1065.69 230.809 854.905 -8.08594 c 0,52,53
 837.336 -27.998 837.336 -27.998 810.208 -29.6953 c 128,-1,54
 783.081 -31.3936 783.081 -31.3936 763.16 -13.8193 c 128,-1,55
 743.243 3.75488 743.243 3.75488 741.55 30.8857 c 128,-1,56
 739.856 58.0156 739.856 58.0156 757.427 77.9258 c 0,57,58
 941.76 286.838 941.76 286.838 965.989 477.819 c 0,59,60
 986.912 642.743 986.912 642.743 887.043 758.353 c 0,61,62
 804.367 854.059 804.367 854.059 676.158 877.772 c 0,63,64
 538.484 903.238 538.484 903.238 426.08 830.454 c 0,65,66
 363.569 789.978 363.569 789.978 320.879 725.996 c 1,22,23
EndSplineSet
EndChar

StartChar: e2
Encoding: 101 3399 99
Width: 896
GlyphClass: 2
Flags: MW
LayerCount: 2
Fore
SplineSet
389.657 843.12 m 1,0,1
 420.911 848.979 420.911 848.979 443.183 830.348 c 128,-1,2
 465.454 811.718 465.454 811.718 467.849 784.804 c 128,-1,3
 470.243 757.891 470.243 757.891 490.387 739.204 c 128,-1,4
 510.531 720.517 510.531 720.517 538.006 720.138 c 128,-1,5
 565.661 719.758 565.661 719.758 585.514 738 c 0,6,7
 626.49 775.661 626.49 775.661 593.09 825.265 c 0,8,9
 578.739 846.576 578.739 846.576 552.804 859.5 c 0,10,11
 477.309 897.118 477.309 897.118 389.657 843.12 c 1,0,1
344.228 807.158 m 1,12,13
 261.784 725.927 261.784 725.927 240.742 615.3 c 128,-1,14
 219.699 504.673 219.699 504.673 241.6 406.553 c 0,15,16
 286.969 203.286 286.969 203.286 431.407 133.305 c 0,17,18
 500.983 99.5938 500.983 99.5938 548.768 110.211 c 0,19,20
 707.426 145.465 707.426 145.465 654.265 302.707 c 0,21,22
 635.171 359.188 635.171 359.188 597.605 394.618 c 0,23,24
 537.632 451.181 537.632 451.181 471.074 427.68 c 0,25,26
 430.176 413.238 430.176 413.238 419.964 374.898 c 128,-1,27
 409.753 336.558 409.753 336.558 436.147 317.612 c 128,-1,28
 462.54 298.665 462.54 298.665 466.949 271.845 c 128,-1,29
 471.358 245.025 471.358 245.025 455.869 223.443 c 128,-1,30
 440.382 201.864 440.382 201.864 413.557 197.46 c 128,-1,31
 386.732 193.055 386.732 193.055 365.161 208.54 c 0,32,33
 314.538 244.877 314.538 244.877 297.473 300.446 c 0,34,35
 262.903 413.014 262.903 413.014 339.585 492.066 c 128,-1,36
 416.268 571.117 416.268 571.117 515.977 563.69 c 128,-1,37
 615.687 556.263 615.687 556.263 681.815 493.893 c 128,-1,38
 747.944 431.522 747.944 431.522 771.616 361.505 c 0,39,40
 844.2 146.811 844.2 146.811 699.733 36.1152 c 0,41,42
 652.807 0.157227 652.807 0.157227 592.825 -13.1689 c 0,43,44
 485.016 -37.126 485.016 -37.126 378.498 14.4839 c 128,-1,45
 271.979 66.0938 271.979 66.0938 207.034 160.863 c 128,-1,46
 142.088 255.632 142.088 255.632 114.528 379.102 c 128,-1,47
 86.9688 502.572 86.9688 502.572 111.557 631.841 c 128,-1,48
 136.145 761.109 136.145 761.109 214.075 856.443 c 128,-1,49
 292.006 951.776 292.006 951.776 399.35 989.748 c 128,-1,50
 506.693 1027.72 506.693 1027.72 610.783 975.854 c 0,51,52
 667.414 947.635 667.414 947.635 703.051 894.712 c 128,-1,53
 738.688 841.79 738.688 841.79 735.807 769.354 c 128,-1,54
 732.927 696.918 732.927 696.918 674.245 642.989 c 128,-1,55
 615.563 589.06 615.563 589.06 537.162 590.139 c 128,-1,56
 458.761 591.218 458.761 591.218 401.974 643.899 c 128,-1,57
 345.186 696.583 345.186 696.583 338.321 773.741 c 0,58,59
 336.826 790.531 336.826 790.531 344.228 807.158 c 1,12,13
EndSplineSet
EndChar

StartChar: xx
Encoding: 106 3405 104
Width: 176
GlyphClass: 2
Flags: MW
AnchorPoint: "chandrakkala" -3.0343 -0.167953 mark 0
AnchorPoint: "dotreph" -600 1020 basechar 0
LayerCount: 2
Fore
SplineSet
-211.506 1437.76 m 128,-1,1
 -185.491 1443.09 -185.491 1443.09 -162.8 1428.13 c 128,-1,2
 -140.107 1413.17 -140.107 1413.17 -134.771 1387.14 c 0,3,4
 -95.5483 1195.94 -95.5483 1195.94 -20.8887 1146.17 c 0,5,6
 -1.94616 1133.54 -1.94616 1133.54 19.9058 1144.06 c 0,7,8
 85.8279 1175.8 85.8279 1175.8 111.619 1291.25 c 0,9,10
 120.556 1331.26 120.556 1331.26 120.556 1365.95 c 128,-1,11
 120.556 1400.64 120.556 1400.64 139.774 1419.86 c 128,-1,12
 158.994 1439.08 158.994 1439.08 185.556 1439.08 c 128,-1,13
 212.117 1439.08 212.117 1439.08 231.336 1419.86 c 128,-1,14
 250.556 1400.64 250.556 1400.64 250.556 1358.77 c 0,15,16
 250.556 1201.15 250.556 1201.15 155.844 1088.3 c 0,17,18
 93.8553 1014.44 93.8553 1014.44 3.47168 1009.67 c 0,19,20
 -85.3885 1004.99 -85.3885 1004.99 -162.794 1104.73 c 0,21,22
 -226.341 1186.61 -226.341 1186.61 -262.119 1361.02 c 0,23,24
 -267.456 1387.04 -267.456 1387.04 -252.488 1409.73 c 128,-1,0
 -237.52 1432.42 -237.52 1432.42 -211.506 1437.76 c 128,-1,1
EndSplineSet
EndChar

